<svg width="512" height="512" viewBox="0 0 512 512" fill="none" xmlns="http://www.w3.org/2000/svg">
<g clip-path="url(#clip0_2002_674)">
<mask id="mask0_2002_674" style="mask-type:luminance" maskUnits="userSpaceOnUse" x="0" y="0" width="512" height="512">
<path d="M512 0H0V512H512V0Z" fill="white"/>
</mask>
<g mask="url(#mask0_2002_674)">
<path d="M235.25 478.75C233.25 488.5 242.379 493.561 257.875 494C284.375 494.75 291.5 491.5 291.75 483C292.015 473.99 236.994 470.249 235.25 478.75Z" fill="#018961"/>
<path d="M235.25 478.75C233.25 488.5 242.379 493.561 257.875 494C284.375 494.75 291.5 491.5 291.75 483C292.015 473.99 236.994 470.249 235.25 478.75Z" stroke="#006140" stroke-width="6"/>
<path d="M308.25 481.5C308.25 491 317.375 495.125 339.75 493.25C359.508 491.594 366.073 483.042 364.25 475.75C363.937 474.496 362.346 473.568 359.886 472.926C356.632 472.077 351.855 471.731 346.503 471.798C330.088 472.002 308.25 476.092 308.25 481.5Z" fill="#018961"/>
<path d="M308.25 481.5C308.25 491 317.375 495.125 339.75 493.25C359.508 491.594 366.073 483.042 364.25 475.75C363.937 474.496 362.346 473.568 359.886 472.926C356.632 472.077 351.855 471.731 346.503 471.798C330.088 472.002 308.25 476.092 308.25 481.5Z" stroke="#006140" stroke-width="6"/>
<path d="M336.522 466.922C321.593 468.404 311.967 474.743 312.784 479.872C313.601 485.001 328.045 483.893 338.364 482.691C348.683 481.489 359.488 479.912 359.693 475.411C359.898 470.91 351.451 465.44 336.522 466.922Z" fill="#067957"/>
<path d="M199.125 287.625C195.5 300.875 197.393 325.69 206.906 331.938C215.375 337.501 226.268 316.101 225.75 306.25C224.25 277.75 203.03 273.352 199.125 287.625Z" fill="#0A6749"/>
<path d="M199.125 287.625C195.5 300.875 197.393 325.69 206.906 331.938C215.375 337.501 226.268 316.101 225.75 306.25C224.25 277.75 203.03 273.352 199.125 287.625Z" stroke="#014831" stroke-width="6" stroke-linecap="round" stroke-linejoin="round"/>
<path d="M170.75 210.5C168 202.75 149.618 219.88 152.25 227.25C156 237.75 177.75 285.75 182.5 292.25C187.25 298.75 214.5 322.25 226.5 328.5C238.32 334.656 249.568 313.167 242 307C235.25 301.5 210.25 280.25 205.5 273.75C200.75 267.25 173.5 218.25 170.75 210.5Z" fill="url(#paint0_linear_2002_674)"/>
<path d="M170.75 210.5C168 202.75 149.618 219.88 152.25 227.25C156 237.75 177.75 285.75 182.5 292.25C187.25 298.75 214.5 322.25 226.5 328.5C238.32 334.656 249.568 313.167 242 307C235.25 301.5 210.25 280.25 205.5 273.75C200.75 267.25 173.5 218.25 170.75 210.5Z" stroke="url(#paint1_linear_2002_674)" stroke-width="6" stroke-linecap="round" stroke-linejoin="round"/>
<path d="M217.25 283.25C220.125 288.5 222.125 296.875 219.75 309.25C217.375 321.625 212.531 331.313 206.406 331.313C212.75 337.501 233.75 347.75 246.5 349.75C257.06 351.406 279.51 326.04 271.47 319.608C265.22 314.608 226 289 217.25 283.25Z" fill="url(#paint2_linear_2002_674)"/>
<path d="M217.25 283.25C220.125 288.5 222.125 296.875 219.75 309.25C217.375 321.625 212.531 331.313 206.406 331.313C212.75 337.501 233.75 347.75 246.5 349.75C257.06 351.406 279.51 326.04 271.47 319.608C265.22 314.608 226 289 217.25 283.25Z" stroke="url(#paint3_linear_2002_674)" stroke-width="6" stroke-linecap="round" stroke-linejoin="round"/>
<path d="M366.803 366.139C379.086 361.858 388.529 352.115 386.826 344.285C385.31 337.314 369.868 338.847 362.883 343.694C342.673 357.716 353.573 370.75 366.803 366.139Z" fill="#0E673E"/>
<path d="M366.803 366.139C379.086 361.858 388.529 352.115 386.826 344.285C385.31 337.314 369.868 338.847 362.883 343.694C342.673 357.716 353.573 370.75 366.803 366.139Z" stroke="#1D6244" stroke-width="6" stroke-linecap="round" stroke-linejoin="round"/>
<path d="M387.882 383.202C387 372.5 382.364 355.099 378.886 342.337C376.75 334.5 348.375 344.375 352.493 360.694C355.689 373.359 358.651 381.404 360.353 389.273C362.055 397.142 388.543 391.225 387.882 383.202Z" fill="url(#paint4_linear_2002_674)"/>
<path d="M387.882 383.202C387 372.5 382.364 355.099 378.886 342.337C376.75 334.5 348.375 344.375 352.493 360.694C355.689 373.359 358.651 381.404 360.353 389.273C362.055 397.142 388.543 391.225 387.882 383.202Z" stroke="url(#paint5_linear_2002_674)" stroke-width="6" stroke-linecap="round" stroke-linejoin="round"/>
<path d="M351.442 358.786C353.429 354.857 358.327 349.928 369.123 345.407C379.919 340.886 382.604 341.662 386.695 344.834C387.063 338.673 359.25 313.75 350.216 312.798C339.586 311.678 339.75 323.75 342.15 333.104C344.416 341.938 346.49 350.182 351.442 358.786Z" fill="url(#paint6_linear_2002_674)"/>
<path d="M351.442 358.786C353.429 354.857 358.327 349.928 369.123 345.407C379.919 340.886 382.604 341.662 386.695 344.834C387.063 338.673 359.25 313.75 350.216 312.798C339.586 311.678 339.75 323.75 342.15 333.104C344.416 341.938 346.49 350.182 351.442 358.786Z" stroke="url(#paint7_linear_2002_674)" stroke-width="6" stroke-linecap="round" stroke-linejoin="round"/>
<path d="M264 316.5L295 405.5L341 314L264 316.5Z" fill="#1D9971"/>
<path d="M251.375 358.375C238.375 369 206.343 385.906 204.312 387.719C199.059 392.406 219.005 413.705 231.25 409.5C256 401 257.783 353.137 251.375 358.375Z" fill="#0B694B"/>
<path d="M251.375 358.375C238.375 369 206.343 385.906 204.312 387.719C199.059 392.406 219.005 413.705 231.25 409.5C256 401 257.783 353.137 251.375 358.375Z" stroke="#006240" stroke-width="6"/>
<path d="M341.75 313.5C339.497 311.003 310.5 349 302.255 349.594C294.01 350.188 282.25 329.5 276.63 313.253C275.02 308.597 263.274 298.086 259.5 304.25C229.5 353.25 220.25 416.75 226 475C231.25 481.25 260 484 297.25 484C334.5 484 361 479 373.5 472.5C377 437 375.75 403.75 368.25 370.25C362.202 343.237 351 323.75 341.75 313.5Z" fill="url(#paint8_linear_2002_674)"/>
<path d="M341.75 313.5C339.497 311.003 310.5 349 302.255 349.594C294.01 350.188 282.25 329.5 276.63 313.253C275.02 308.597 263.274 298.086 259.5 304.25C229.5 353.25 220.25 416.75 226 475C231.25 481.25 260 484 297.25 484C334.5 484 361 479 373.5 472.5C377 437 375.75 403.75 368.25 370.25C362.202 343.237 351 323.75 341.75 313.5Z" stroke="url(#paint9_linear_2002_674)" stroke-width="6" stroke-linecap="round" stroke-linejoin="round"/>
<path d="M345.375 323.625C340.125 318.375 329.5 331.5 327.5 335C325.5 338.5 331.303 352.185 339.875 391.5C347.125 424.75 342.668 443.271 341.291 441.746C339.375 439.625 342.25 424 338.652 420.761C334.217 416.768 335.25 475.375 321.74 476.564C318.113 476.883 322.25 456.75 320.738 455.665C316.233 452.434 317 476.375 295.347 481.109C313.375 481.625 331.625 479.75 340.125 478.75C347 477.625 361 476.125 371.125 470.5C372.75 439.125 373.125 405.375 366.625 376.375C360.125 347.375 350.625 328.875 345.375 323.625Z" fill="url(#paint10_linear_2002_674)"/>
<path d="M337.25 307.75C327.75 321.5 303 346 274.75 363.25C246.93 380.237 219.75 391 204.5 387.75C198.5 393.5 210.5 417 218 430C217 447 214.5 455.5 216.75 459.5C219 463.5 221.75 468.75 227.5 465.5C233.25 462.25 270.81 438.495 303.5 398.75C338.25 356.5 346.25 331.5 348.75 322.75C351.25 314 341.314 301.867 337.25 307.75Z" fill="url(#paint11_linear_2002_674)"/>
<path d="M337.25 307.75C327.75 321.5 303 346 274.75 363.25C246.93 380.237 219.75 391 204.5 387.75C198.5 393.5 210.5 417 218 430C217 447 214.5 455.5 216.75 459.5C219 463.5 221.75 468.75 227.5 465.5C233.25 462.25 270.81 438.495 303.5 398.75C338.25 356.5 346.25 331.5 348.75 322.75C351.25 314 341.314 301.867 337.25 307.75Z" stroke="url(#paint12_linear_2002_674)" stroke-width="6"/>
<path d="M331.25 319.25C331.25 319.25 323.125 332.5 293.375 354.5C263.625 376.5 248 381.25 234 386.75C220 392.25 210.5 391.625 206.5 391C202.5 390.375 213.528 396.316 216.75 397.5C225.25 400.625 234 401.375 245.875 395.125C270.281 382.28 305.729 355.672 317.75 342.375C331.875 326.75 331.25 319.25 331.25 319.25Z" fill="url(#paint13_linear_2002_674)"/>
<path d="M326.702 345.859C326.702 345.859 307.5 367.625 288.828 383.31C273.4 396.27 260.544 407.847 247.627 415.555C234.71 423.263 222.704 428.403 221.062 432.104C219.5 435.625 218.85 454.703 219.359 458.097C224.875 453.875 225.166 439.516 232.833 434.008C240.5 428.5 274.683 407 287.651 394.625C314.375 369.125 326.702 345.859 326.702 345.859Z" fill="url(#paint14_linear_2002_674)"/>
<path d="M273.752 321.055C271.348 317.922 261.682 310.561 261.562 318.917C261.25 340.563 256.75 352.875 248.859 369.472C261 361.125 266.875 341.875 269.833 329.258C271.875 337.25 271.875 342.375 271.526 353.25C280.625 346.375 276.875 325.125 273.752 321.055Z" fill="url(#paint15_linear_2002_674)"/>
<path d="M400.125 245.125C374.625 255 233.278 248.032 233.278 248.032C233.278 248.032 235.49 303.954 243.623 310.051C251.756 316.148 381 313.5 401 304.375C400.375 286.375 399.694 260.371 400.125 245.125Z" fill="#007754"/>
<path d="M400.125 245.125C374.625 255 233.278 248.032 233.278 248.032C233.278 248.032 235.49 303.954 243.623 310.051C251.756 316.148 381 313.5 401 304.375C400.375 286.375 399.694 260.371 400.125 245.125Z" stroke="#0C4E31" stroke-width="6" stroke-linecap="round" stroke-linejoin="round"/>
<path d="M250.125 258.125C250 275.375 257.375 310.875 257.375 310.875M241.625 257.125C241.5 274.375 248.875 309.875 248.875 309.875M376.125 254.375C376 271.625 378.125 305.375 378.125 305.375M384 253.75C383.875 271 386 304.75 386 304.75M391 252C390.875 269.25 393 303 393 303" stroke="#08593F" stroke-width="3" stroke-linecap="round" stroke-linejoin="round"/>
<path d="M301.735 115.164C235.235 114.164 196.235 153.664 197.735 216.664C199.57 293.722 246.741 328.708 300.735 329.664C357.235 330.664 411.235 285.664 411.235 219.164C411.235 152.596 360.737 116.051 301.735 115.164Z" fill="url(#paint16_radial_2002_674)"/>
<path d="M301.735 115.164C235.235 114.164 196.235 153.664 197.735 216.664C199.57 293.722 246.741 328.708 300.735 329.664C357.235 330.664 411.235 285.664 411.235 219.164C411.235 152.596 360.737 116.051 301.735 115.164Z" stroke="url(#paint17_radial_2002_674)" stroke-width="6"/>
<path d="M332.482 110.414C258.553 92.6681 216.176 117.87 191.512 167.276C181.855 186.62 245.618 128.99 303.897 131.922C358.741 134.681 408.03 199.051 408.393 183.929C408.855 164.663 406.411 128.16 332.482 110.414Z" fill="url(#paint18_radial_2002_674)"/>
<path d="M332.482 110.414C258.553 92.6681 216.176 117.87 191.512 167.276C181.855 186.62 245.618 128.99 303.897 131.922C358.741 134.681 408.03 199.051 408.393 183.929C408.855 164.663 406.411 128.16 332.482 110.414Z" stroke="url(#paint19_linear_2002_674)" stroke-width="6"/>
<path d="M162.392 68.693C157.121 64.153 153.204 67.544 157.915 73.337C163.753 80.515 192.91 122.542 205.896 139.466C210.739 145.777 233.799 127.924 221.987 118.27C205.75 105 169.914 75.172 162.392 68.693ZM371.894 38.549C374.083 31.946 369.455 29.615 365.895 36.179C361.484 44.312 332 86.75 319.4 104.576C314.808 111.072 347.579 127.742 351.467 112.99C357 92 368.77 47.973 371.894 38.549ZM131.635 126.761C125.621 125.607 123.5 128.541 129.506 131.772C135.131 134.798 176.513 156.62 193.31 164.935C199.792 168.144 207.89 142.407 194.727 139.465C174.75 135 142 128.75 131.635 126.761ZM445.353 91.363C449.686 87.036 447.984 83.462 442.136 86.971C436.659 90.258 391 115.75 375.663 124.185C369.326 127.67 389.305 151.011 398.529 141.171C409 130 439.169 97.538 445.353 91.363ZM143.052 164.449C137.415 164.899 135.274 168.483 141.479 169.669C149.75 171.25 184.25 178.625 204.661 182.431C211.244 183.658 215.85 160.119 203.411 160.854C186.125 161.875 153.375 163.625 143.052 164.449ZM472.931 146.779C478.109 144.506 478.75 140.25 472.528 141.343C466.701 142.366 425.43 147.553 406.929 151.395C400.373 152.756 405.272 176.364 416.813 171.667C431.973 165.497 465.541 150.022 472.931 146.779ZM251.258 31.633C248.636 24.544 243.612 24.444 244.879 32.613C246.065 40.264 250 91.75 252.675 114.872C253.68 123.56 291.742 121.557 285.049 106.343C277.75 89.75 255 41.75 251.258 31.633Z" fill="url(#paint20_radial_2002_674)"/>
<path d="M162.392 68.693C157.121 64.153 153.204 67.544 157.915 73.337C163.753 80.515 192.91 122.542 205.896 139.466C210.739 145.777 233.799 127.924 221.987 118.27C205.75 105 169.914 75.172 162.392 68.693ZM371.894 38.549C374.083 31.946 369.455 29.615 365.895 36.179C361.484 44.312 332 86.75 319.4 104.576C314.808 111.072 347.579 127.742 351.467 112.99C357 92 368.77 47.973 371.894 38.549ZM131.635 126.761C125.621 125.607 123.5 128.541 129.506 131.772C135.131 134.798 176.513 156.62 193.31 164.935C199.792 168.144 207.89 142.407 194.727 139.465C174.75 135 142 128.75 131.635 126.761ZM445.353 91.363C449.686 87.036 447.984 83.462 442.136 86.971C436.659 90.258 391 115.75 375.663 124.185C369.326 127.67 389.305 151.011 398.529 141.171C409 130 439.169 97.538 445.353 91.363ZM143.052 164.449C137.415 164.899 135.274 168.483 141.479 169.669C149.75 171.25 184.25 178.625 204.661 182.431C211.244 183.658 215.85 160.119 203.411 160.854C186.125 161.875 153.375 163.625 143.052 164.449ZM472.931 146.779C478.109 144.506 478.75 140.25 472.528 141.343C466.701 142.366 425.43 147.553 406.929 151.395C400.373 152.756 405.272 176.364 416.813 171.667C431.973 165.497 465.541 150.022 472.931 146.779ZM251.258 31.633C248.636 24.544 243.612 24.444 244.879 32.613C246.065 40.264 250 91.75 252.675 114.872C253.68 123.56 291.742 121.557 285.049 106.343C277.75 89.75 255 41.75 251.258 31.633Z" stroke="url(#paint21_radial_2002_674)" stroke-width="6"/>
<path d="M269.625 135.375C268.625 131.375 205.75 149.25 196.5 164.75C187.25 180.25 194.119 200.864 199.25 202.5C216.5 208 259.273 198.099 271.25 170.5C274.125 163.875 270.625 139.375 269.625 135.375Z" fill="url(#paint22_radial_2002_674)"/>
<path d="M269.625 135.375C268.625 131.375 205.75 149.25 196.5 164.75C187.25 180.25 194.119 200.864 199.25 202.5C216.5 208 259.273 198.099 271.25 170.5C274.125 163.875 270.625 139.375 269.625 135.375Z" stroke="#156642" stroke-width="6"/>
<path d="M390.5 184.5C389.5 197.25 391.994 220.863 377.75 251.25C366.5 275.25 342.75 303 298 308.25C265.427 312.071 241.75 303.5 229.75 297.75C241.125 311 264.875 326.25 300.5 327C348.792 328.017 382.502 296.625 395.75 269.625C408.875 242.875 408.25 229.75 408.625 213.75C409 197.75 391.5 171.75 390.5 184.5Z" fill="url(#paint23_radial_2002_674)"/>
<path d="M269 147.25C268 144.125 264.966 143.871 265.125 148.375C265.5 159 265.5 164.5 259.312 174.125C252.375 184.915 233.125 193.75 215.75 196.125C206.764 197.353 198.875 195.75 197.625 195.5C196.375 195.25 196.25 198.5 200 199.875C203.75 201.25 209.011 202.078 220.125 200.5C239.5 197.75 258.383 187.596 265.625 175.375C273.625 161.875 270.547 152.084 269 147.25Z" fill="#1F9064"/>
<path d="M273.625 136.5C269.842 138.5 267 163.75 278 174.25C291.246 186.894 334.783 198.103 365.25 192.5C387 188.5 399.5 177 397.5 166.25C395.5 155.5 308.625 118 273.625 136.5Z" fill="url(#paint24_radial_2002_674)"/>
<path d="M273.625 136.5C269.842 138.5 267 163.75 278 174.25C291.246 186.894 334.783 198.103 365.25 192.5C387 188.5 399.5 177 397.5 166.25C395.5 155.5 308.625 118 273.625 136.5Z" stroke="#196941" stroke-width="6"/>
<path d="M394.334 172.807C395.75 169.035 394.781 164.767 391.148 168.917C385.905 174.906 379.625 181.375 362.225 184.232C343.729 187.269 305.033 182.882 286.579 169.846C280.25 165.375 275.875 156.25 274.412 148.491C274.113 146.905 272.676 146.375 272.71 149.877C272.75 154 273.734 169.262 283.196 175.207C304.75 188.75 341.591 194.065 364.172 189.991C380.75 187 392.144 178.642 394.334 172.807Z" fill="#1F9064"/>
<path d="M203.923 180.517C227.375 179.5 244.875 164.25 248.984 152.533M197.048 190.017C232.375 188.75 258.375 168.75 259.359 149.658M290.375 143.125C295.5 163.375 347 169.375 366.375 161.125M280 147C285.625 174.75 350.5 182.625 380.25 169.25" stroke="#1F9064" stroke-width="3" stroke-linecap="round" stroke-linejoin="round"/>
<path d="M411.792 211.375C410.761 186.98 404.375 194.249 404.655 204.354C404.935 214.459 408.937 233.312 407.132 253.03C406.345 261.632 408.687 259.474 410.312 250.203C412.375 238.437 412.125 219.249 411.792 211.375Z" fill="#037C58"/>
<path d="M411.792 211.375C410.761 186.98 404.375 194.249 404.655 204.354C404.935 214.459 408.937 233.312 407.132 253.03C406.345 261.632 408.687 259.474 410.312 250.203C412.375 238.437 412.125 219.249 411.792 211.375Z" stroke="#0E5F47" stroke-width="6"/>
<path d="M409.175 246.984C409.375 241.593 406.926 218.477 406.723 209.541C406.487 199.14 405.907 196.17 406.024 204.2C406.305 223.429 408.998 244.146 408.752 248.123C408.544 251.482 408.285 254.627 408.549 254.392C408.813 254.157 408.975 252.375 409.175 246.984Z" fill="#06996D"/>
<path d="M411.731 218.435C411.625 226.937 408.875 246.187 403.556 260.512C413.125 262.5 425 253.25 427.924 237.419C430.779 221.963 422.125 216.625 411.731 218.435Z" fill="#00986E"/>
<path d="M411.731 218.435C411.625 226.937 408.875 246.187 403.556 260.512C413.125 262.5 425 253.25 427.924 237.419C430.779 221.963 422.125 216.625 411.731 218.435Z" stroke="#006E52" stroke-width="6" stroke-linecap="round" stroke-linejoin="round"/>
<path d="M420.179 226.469C413.508 228.796 420.368 238.431 419.283 242.816C418.198 247.201 413.355 247.42 414.884 250.171C416.413 252.922 419.468 250.355 422.005 242.085C425.002 232.313 424.036 225.124 420.179 226.469Z" fill="#007F59"/>
<path d="M407.714 184.525C401.919 161.018 389.625 166.5 388.152 184.332C386.662 202.368 396 233.5 402.625 245.372C408.102 255.188 410.349 245.17 411.362 233.71C412.375 222.25 411.375 199.375 407.714 184.525Z" fill="#008960"/>
<path d="M407.714 184.525C401.919 161.018 389.625 166.5 388.152 184.332C386.662 202.368 396 233.5 402.625 245.372C408.102 255.188 410.349 245.17 411.362 233.71C412.375 222.25 411.375 199.375 407.714 184.525Z" stroke="#0E5F47" stroke-width="6"/>
<path d="M404.682 230.664C402.638 223.19 398.125 201.75 397.322 192.814C396.387 182.413 391.735 177.318 391.333 185.348C390.5 202 397.726 225.963 401.647 236.427C402.902 239.777 405.82 245.954 406.908 244.633C408.076 243.215 406.125 235.938 404.682 230.664Z" fill="#06A979"/>
<path d="M404.351 199.385C404.172 207.514 405.832 213.722 409.546 224.21M399.502 194.136C398.952 202.984 401.602 219.965 407.612 234.463" stroke="#116E50" stroke-width="3" stroke-linecap="round" stroke-linejoin="round"/>
<path d="M266.25 97.0001C206.791 105.301 181 149.75 180.5 170.25C183 180.25 188.5 198.625 197 210.125C197.125 184.875 213.5 159.25 270.25 149C305.679 142.601 355.742 152.461 384.5 176.75C403 192.375 408.5 203.625 412.875 213.625C416.875 201.5 421.5 183.375 422 168.75C409.75 136 354 84.7501 266.25 97.0001Z" fill="url(#paint25_radial_2002_674)"/>
<path d="M266.25 97.0001C206.791 105.301 181 149.75 180.5 170.25C183 180.25 188.5 198.625 197 210.125C197.125 184.875 213.5 159.25 270.25 149C305.679 142.601 355.742 152.461 384.5 176.75C403 192.375 408.5 203.625 412.875 213.625C416.875 201.5 421.5 183.375 422 168.75C409.75 136 354 84.7501 266.25 97.0001Z" stroke="url(#paint26_radial_2002_674)" stroke-width="6" stroke-linecap="round" stroke-linejoin="round"/>
<path d="M338.25 207.5C323.866 211.468 317.085 225.551 321.375 239C326 253.5 341.911 257.855 353.75 253.875C368.25 249 371.25 237.5 369.625 224.75C376.875 220.5 379.875 214.75 379.625 213.375C379.375 212 373.875 215.375 366.5 217.25C362.625 210.875 352.75 203.5 338.25 207.5Z" fill="url(#paint27_radial_2002_674)"/>
<path d="M338.25 207.5C323.866 211.468 317.085 225.551 321.375 239C326 253.5 341.911 257.855 353.75 253.875C368.25 249 371.25 237.5 369.625 224.75C376.875 220.5 379.875 214.75 379.625 213.375C379.375 212 373.875 215.375 366.5 217.25C362.625 210.875 352.75 203.5 338.25 207.5Z" stroke="#0A0B0A" stroke-width="6"/>
<path d="M240.309 218.818C253.75 220.625 260.357 233.063 259.323 246.464C258.25 260.375 245.125 267.125 233.433 264.765C221.843 262.425 217.625 250.5 216.942 238.899C213 237 207.625 232.375 207.874 231.205C208.123 230.035 213.25 231.5 217.996 231.433C219.375 225.625 227.11 217.043 240.309 218.818Z" fill="url(#paint28_radial_2002_674)"/>
<path d="M240.309 218.818C253.75 220.625 260.357 233.063 259.323 246.464C258.25 260.375 245.125 267.125 233.433 264.765C221.843 262.425 217.625 250.5 216.942 238.899C213 237 207.625 232.375 207.874 231.205C208.123 230.035 213.25 231.5 217.996 231.433C219.375 225.625 227.11 217.043 240.309 218.818Z" stroke="#0A0B0A" stroke-width="6"/>
<path d="M282.5 264C284.909 266.605 288.744 267.751 292.306 267.438C295.582 267.151 298.628 265.63 300.125 262.875" stroke="#133828" stroke-width="6" stroke-linecap="round" stroke-linejoin="round"/>
<path d="M407.951 161.641C404.317 158.163 403.375 168 401.662 176.865C404.125 179.75 407.25 184.125 409.813 188.289C412.5 175.75 412.375 165.875 407.951 161.641ZM386.034 138.313C378.541 134.302 376.979 144.24 375.971 156.419C381.09 159.936 387.282 163.912 392.13 168.387C394.053 155.275 393.411 142.262 386.034 138.313ZM354.046 120.091C344.556 117.041 342.25 130.375 342.156 142.886C349.583 145.12 357.875 147.625 363.912 150.832C365.25 137.625 363.875 123.25 354.046 120.091ZM313.568 109.846C302.511 109.192 300 120.125 300.997 135.552C309.125 135.75 320.375 137.375 326.984 138.635C327 123.75 324.625 110.5 313.568 109.846ZM188.496 166.508C187.75 171.25 189 175.5 192.455 186.503C193.504 181.951 194.5 179.125 195.218 176.964C191.75 166.25 189.252 161.704 188.496 166.508ZM201.38 143.38C197.801 148.196 200.875 157.875 203.451 167.582C206.875 163.25 211.25 159.375 215.036 156.708C211.875 141.625 205.75 137.5 201.38 143.38ZM229.536 121.343C220.759 125.274 222.25 138.375 225.236 150.846C231.256 147.393 240.012 144.456 245.732 142.34C242.25 127.625 237 118 229.536 121.343ZM268.25 109.5C256.686 111.134 256.25 127.25 258.25 139C266.25 136.875 277 135.875 284.375 135C283.875 119.75 279.75 107.875 268.25 109.5Z" fill="url(#paint29_radial_2002_674)"/>
<path d="M407.951 161.641C404.317 158.163 403.375 168 401.662 176.865C404.125 179.75 407.25 184.125 409.813 188.289C412.5 175.75 412.375 165.875 407.951 161.641ZM386.034 138.313C378.541 134.302 376.979 144.24 375.971 156.419C381.09 159.936 387.282 163.912 392.13 168.387C394.053 155.275 393.411 142.262 386.034 138.313ZM354.046 120.091C344.556 117.041 342.25 130.375 342.156 142.886C349.583 145.12 357.875 147.625 363.912 150.832C365.25 137.625 363.875 123.25 354.046 120.091ZM313.568 109.846C302.511 109.192 300 120.125 300.997 135.552C309.125 135.75 320.375 137.375 326.984 138.635C327 123.75 324.625 110.5 313.568 109.846ZM188.496 166.508C187.75 171.25 189 175.5 192.455 186.503C193.504 181.951 194.5 179.125 195.218 176.964C191.75 166.25 189.252 161.704 188.496 166.508ZM201.38 143.38C197.801 148.196 200.875 157.875 203.451 167.582C206.875 163.25 211.25 159.375 215.036 156.708C211.875 141.625 205.75 137.5 201.38 143.38ZM229.536 121.343C220.759 125.274 222.25 138.375 225.236 150.846C231.256 147.393 240.012 144.456 245.732 142.34C242.25 127.625 237 118 229.536 121.343ZM268.25 109.5C256.686 111.134 256.25 127.25 258.25 139C266.25 136.875 277 135.875 284.375 135C283.875 119.75 279.75 107.875 268.25 109.5Z" stroke="url(#paint30_radial_2002_674)" stroke-width="6" stroke-linecap="round" stroke-linejoin="round"/>
<path d="M338.208 214.995C332.063 213.502 326.082 228.109 332.155 229.768C337.125 231.125 343.375 216.25 338.208 214.995ZM233.875 225.125C228.875 222 221.298 234.304 226 237.125C229.75 239.375 237.623 227.467 233.875 225.125Z" fill="white"/>
<path d="M166.25 34.5C219.647 34.5 263 77.8537 263 131.25C263 184.646 219.647 228 166.25 228C112.854 228 69.5005 184.646 69.5005 131.25C69.5005 77.8537 112.854 34.5 166.25 34.5Z" fill="url(#paint31_radial_2002_674)"/>
<path d="M142.759 163.182C142.759 163.182 136.395 159.578 132.47 151.121C128.054 141.607 129.647 136.164 129.647 136.164C129.647 136.164 129.363 129.548 130.571 125.761C132.145 120.828 135.046 114.224 135.046 114.224C135.046 114.224 143.055 103.285 147.218 97.7686C152.645 90.5776 155.444 81.2776 155.444 81.2776C155.444 81.2776 162.248 83.8691 167.859 94.5026C173.77 105.703 170.653 121.228 170.653 121.228C170.653 121.228 175.788 115.616 179.628 112.403C185.395 107.578 191.142 105.603 191.142 105.603C191.142 105.603 198.644 132.578 193.042 147.206C189.298 156.981 180.897 162.469 168.096 164.371C154.589 166.378 142.759 163.182 142.759 163.182Z" fill="url(#paint32_linear_2002_674)"/>
<path d="M142.759 163.182C142.759 163.182 136.395 159.578 132.47 151.121C128.054 141.607 129.647 136.164 129.647 136.164C129.647 136.164 129.363 129.548 130.571 125.761C132.145 120.828 135.046 114.224 135.046 114.224C135.046 114.224 143.055 103.285 147.218 97.7686C152.645 90.5776 155.444 81.2776 155.444 81.2776C155.444 81.2776 162.248 83.8691 167.859 94.5026C173.77 105.703 170.653 121.228 170.653 121.228C170.653 121.228 175.788 115.616 179.628 112.403C185.395 107.578 191.142 105.603 191.142 105.603C191.142 105.603 198.644 132.578 193.042 147.206C189.298 156.981 180.897 162.469 168.096 164.371C154.589 166.378 142.759 163.182 142.759 163.182Z" stroke="url(#paint33_linear_2002_674)" stroke-width="6" stroke-linecap="round" stroke-linejoin="round"/>
<path d="M159.494 160.878C142.306 161.904 139.019 151.703 138.794 144.578C142.394 146.203 143.269 141.328 144.519 136.028C145.699 131.028 149.894 122.828 154.094 118.853C153.144 126.328 153.269 131.756 154.469 136.403C155.644 140.953 158.069 145.06 161.544 146.256C165.019 147.453 170.202 144.278 170.202 144.278C170.202 144.278 175.269 140.077 177.844 131.528C182.519 143.327 181.269 159.578 159.494 160.878Z" fill="#FFFFBD"/>
<path d="M179.375 186C179.312 184.25 148.687 186.437 148.75 188.5C148.813 190.563 155.75 254.5 156.75 262.25C157.584 268.716 179.5 268.25 179.5 261.25C179.5 254.25 179.438 187.75 179.375 186Z" fill="url(#paint34_linear_2002_674)"/>
<path d="M179.375 186C179.312 184.25 148.687 186.437 148.75 188.5C148.813 190.563 155.75 254.5 156.75 262.25C157.584 268.716 179.5 268.25 179.5 261.25C179.5 254.25 179.438 187.75 179.375 186Z" stroke="url(#paint35_linear_2002_674)" stroke-width="6" stroke-linecap="round" stroke-linejoin="round"/>
<path d="M158.623 195.829C147.78 196.297 141.125 200.25 138.374 205.032C134.876 211.114 136.677 219.6 140.254 220.136C143.831 220.672 150.125 215.625 153.693 213.929C158.185 211.794 167.932 210.027 169.438 205.532C171.375 199.75 166.25 195.5 158.623 195.829Z" fill="url(#paint36_linear_2002_674)"/>
<path d="M158.623 195.829C147.78 196.297 141.125 200.25 138.374 205.032C134.876 211.114 136.677 219.6 140.254 220.136C143.831 220.672 150.125 215.625 153.693 213.929C158.185 211.794 167.932 210.027 169.438 205.532C171.375 199.75 166.25 195.5 158.623 195.829Z" stroke="url(#paint37_linear_2002_674)" stroke-width="6" stroke-linecap="round" stroke-linejoin="round"/>
<path d="M165.15 207.201C156.193 206.325 148.151 208.997 143.161 214.173C142.133 215.24 141.235 216.413 140.485 217.683C135.352 226.372 140.791 236.352 143.568 235.519C147.029 234.481 150.141 228.755 158.147 225.528C166.05 222.343 165.487 223.446 169.545 221.792C174.25 219.875 175.875 208.25 165.15 207.201Z" fill="url(#paint38_linear_2002_674)"/>
<path d="M165.15 207.201C156.193 206.325 148.151 208.997 143.161 214.173C142.133 215.24 141.235 216.413 140.485 217.683C135.352 226.372 140.791 236.352 143.568 235.519C147.029 234.481 150.141 228.755 158.147 225.528C166.05 222.343 165.487 223.446 169.545 221.792C174.25 219.875 175.875 208.25 165.15 207.201Z" stroke="url(#paint39_linear_2002_674)" stroke-width="6" stroke-linecap="round" stroke-linejoin="round"/>
<path d="M162.446 221.692C161.61 221.735 160.791 221.816 159.99 221.934C152.695 223.01 146.865 227.149 143.092 233.271C138.905 240.065 145.75 254.375 155.056 252.555C156.745 252.225 154.917 247.018 156.206 244.075C159.25 237.125 168.8 238.201 171.062 231.765C173 226.25 168.62 221.375 162.446 221.692Z" fill="url(#paint40_linear_2002_674)"/>
<path d="M162.446 221.692C161.61 221.735 160.791 221.816 159.99 221.934C152.695 223.01 146.865 227.149 143.092 233.271C138.905 240.065 145.75 254.375 155.056 252.555C156.745 252.225 154.917 247.018 156.206 244.075C159.25 237.125 168.8 238.201 171.062 231.765C173 226.25 168.62 221.375 162.446 221.692Z" stroke="url(#paint41_linear_2002_674)" stroke-width="6" stroke-linecap="round" stroke-linejoin="round"/>
<path d="M178.418 210.709C183.812 209.75 189.5 213.75 190.807 218.303C192.114 222.856 188.687 231.375 185.799 231.267C182.911 231.159 177.775 230.121 174.722 227.512C171.125 224.438 170.605 212.098 178.418 210.709Z" fill="url(#paint42_linear_2002_674)"/>
<path d="M178.418 210.709C183.812 209.75 189.5 213.75 190.807 218.303C192.114 222.856 188.687 231.375 185.799 231.267C182.911 231.159 177.775 230.121 174.722 227.512C171.125 224.438 170.605 212.098 178.418 210.709Z" stroke="url(#paint43_linear_2002_674)" stroke-width="6" stroke-linecap="round" stroke-linejoin="round"/>
<path d="M190.718 168.846C179.357 168.099 149.567 169.575 137.13 172.305C138.029 176.951 141.424 187.527 142.761 189.307C144.098 191.087 149.349 190.771 165.753 190.204C178.875 189.75 186.764 189.639 187.688 187.409C188.612 185.179 190.625 173.875 190.718 168.846Z" fill="url(#paint44_linear_2002_674)"/>
<path d="M190.718 168.846C179.357 168.099 149.567 169.575 137.13 172.305C138.029 176.951 141.424 187.527 142.761 189.307C144.098 191.087 149.349 190.771 165.753 190.204C178.875 189.75 186.764 189.639 187.688 187.409C188.612 185.179 190.625 173.875 190.718 168.846Z" stroke="url(#paint45_linear_2002_674)" stroke-width="6" stroke-linecap="round" stroke-linejoin="round"/>
<path d="M192.479 156.876C177.875 155.75 148.75 156.75 134.514 159.748C134.337 162.12 135.25 169.375 135.989 173.03C150.181 170.088 177.587 168.934 192.448 169.758C192.489 167.883 193.125 162 192.479 156.876Z" fill="url(#paint46_linear_2002_674)"/>
<path d="M192.479 156.876C177.875 155.75 148.75 156.75 134.514 159.748C134.337 162.12 135.25 169.375 135.989 173.03C150.181 170.088 177.587 168.934 192.448 169.758C192.489 167.883 193.125 162 192.479 156.876Z" stroke="url(#paint47_linear_2002_674)" stroke-width="6" stroke-linecap="round" stroke-linejoin="round"/>
<path d="M182.687 172.687C178.812 172.687 174.125 172.562 170.312 172.812C170.312 176.125 170.749 182.937 170.812 187C173.875 187.313 178.874 186.812 180.812 186.687C181.187 185.374 182.312 176.812 182.687 172.687Z" fill="#0A8B62"/>
<path d="M183.812 159.625C180.437 159.75 173.75 159.499 170.312 159.687C170.312 161.562 170.374 165.062 170.437 166.875C173.875 166.812 180.312 166.625 183.375 166.75C183.5 164.5 183.749 161.938 183.812 159.625Z" fill="#0A8B62"/>
<path d="M371.25 322.5L336.25 390.5L372.75 413L413 334.25L371.25 322.5Z" fill="#1FD494"/>
<path d="M371.25 322.5L336.25 390.5L372.75 413L413 334.25L371.25 322.5Z" stroke="url(#paint48_linear_2002_674)" stroke-width="6" stroke-linecap="round" stroke-linejoin="round"/>
<path d="M413.125 334.5L372.625 412.75L386.25 417.75L423.875 344.875L413.125 334.5Z" fill="#009268"/>
<path d="M413.125 334.5L372.625 412.75L386.25 417.75L423.875 344.875L413.125 334.5Z" stroke="#00734B" stroke-width="6" stroke-linecap="round" stroke-linejoin="round"/>
<path d="M400.25 345.938C393.125 346.813 392.063 356.813 397.938 358.563C404.215 360.433 410.314 360.541 413.625 363.125C421.313 369.125 420.029 374.518 422.5 371.75C425.625 368.25 426.293 359.838 424.063 355.5C421.846 351.188 417.552 347.851 411.58 346.418C408.29 345.629 404.491 345.417 400.25 345.938Z" fill="#019463"/>
<path d="M400.25 345.938C393.125 346.813 392.063 356.813 397.938 358.563C404.215 360.433 410.314 360.541 413.625 363.125C421.313 369.125 420.029 374.518 422.5 371.75C425.625 368.25 426.293 359.838 424.063 355.5C421.846 351.188 417.552 347.851 411.58 346.418C408.29 345.629 404.491 345.417 400.25 345.938Z" stroke="url(#paint49_linear_2002_674)" stroke-width="6"/>
<path d="M393.563 355.875C387.313 355.938 384.407 359.643 384 364C383.562 368.688 385.25 371.438 393.688 372.063C400.562 372.572 410.074 377.291 411.875 379.5C415.188 383.563 415.419 385.959 418.563 383.25C422.626 379.75 424.462 371.753 420.938 366.75C415.875 359.562 404.334 355.767 393.563 355.875Z" fill="#019463"/>
<path d="M393.563 355.875C387.313 355.938 384.407 359.643 384 364C383.562 368.688 385.25 371.438 393.688 372.063C400.562 372.572 410.074 377.291 411.875 379.5C415.188 383.563 415.419 385.959 418.563 383.25C422.626 379.75 424.462 371.753 420.938 366.75C415.875 359.562 404.334 355.767 393.563 355.875Z" stroke="url(#paint50_linear_2002_674)" stroke-width="6"/>
<path d="M391.813 369.75C386.882 369.391 384.625 376.5 385.625 379.25C386.625 382 390.615 382.602 393.813 383.5C397.376 384.5 400.875 385.813 401.875 387.938C402.375 389.001 398.688 394.187 396.313 398.25C405.501 398.75 412.625 397.625 415.813 391C417.547 387.397 417.443 383.771 413.563 378.75C409.313 373.25 401.251 370.438 391.813 369.75Z" fill="#009F6B"/>
<path d="M391.813 369.75C386.882 369.391 384.625 376.5 385.625 379.25C386.625 382 390.615 382.602 393.813 383.5C397.376 384.5 400.875 385.813 401.875 387.938C402.375 389.001 398.688 394.187 396.313 398.25C405.501 398.75 412.625 397.625 415.813 391C417.547 387.397 417.443 383.771 413.563 378.75C409.313 373.25 401.251 370.438 391.813 369.75Z" stroke="url(#paint51_linear_2002_674)" stroke-width="6" stroke-linecap="round" stroke-linejoin="round"/>
<path d="M410.108 349.022C407.25 348.25 401.612 348.42 400.047 349.11C398.312 349.875 397.416 352.402 398.819 352.685C401.312 353.188 405.375 353.062 408.717 353.558C411.168 353.922 414.027 350.081 410.108 349.022ZM401.769 374.306C397.966 372.589 393.911 372.534 391.36 373.037C388.286 373.643 388.007 376.018 389.069 376.999C390.24 378.081 393.639 378.019 398.304 379.825C401.22 380.954 405.572 376.023 401.769 374.306ZM404.813 360.5C399.875 358.937 392.75 358.438 389.75 359.688C386.136 361.194 386.402 363.992 387.875 365.125C389.5 366.375 395.875 365.063 401.875 366.563C405.625 367.501 409.751 362.063 404.813 360.5Z" fill="#1DC38C"/>
</g>
</g>
<defs>
<linearGradient id="paint0_linear_2002_674" x1="185.75" y1="285.25" x2="197.5" y2="271.25" gradientUnits="userSpaceOnUse">
<stop stop-color="#078163"/>
<stop offset="0.5" stop-color="#1EA580"/>
<stop offset="1" stop-color="#36C99E"/>
</linearGradient>
<linearGradient id="paint1_linear_2002_674" x1="187.75" y1="291.25" x2="200.25" y2="277.5" gradientUnits="userSpaceOnUse">
<stop stop-color="#05583D"/>
<stop offset="0.5" stop-color="#027354"/>
<stop offset="1" stop-color="#008E6B"/>
</linearGradient>
<linearGradient id="paint2_linear_2002_674" x1="222.5" y1="337" x2="236" y2="313.375" gradientUnits="userSpaceOnUse">
<stop stop-color="#086E55"/>
<stop offset="0.5" stop-color="#1A9473"/>
<stop offset="1" stop-color="#2CBB91"/>
</linearGradient>
<linearGradient id="paint3_linear_2002_674" x1="229" y1="339.75" x2="247.5" y2="312" gradientUnits="userSpaceOnUse">
<stop stop-color="#05583D"/>
<stop offset="0.5" stop-color="#027354"/>
<stop offset="1" stop-color="#008E6B"/>
</linearGradient>
<linearGradient id="paint4_linear_2002_674" x1="366.625" y1="374.375" x2="383.875" y2="371" gradientUnits="userSpaceOnUse">
<stop stop-color="#086E55"/>
<stop offset="0.5" stop-color="#1A9473"/>
<stop offset="1" stop-color="#2CBB91"/>
</linearGradient>
<linearGradient id="paint5_linear_2002_674" x1="388.5" y1="360.25" x2="368.625" y2="364" gradientUnits="userSpaceOnUse">
<stop stop-color="#1E8162"/>
<stop offset="0.5" stop-color="#136D53"/>
<stop offset="1" stop-color="#075945"/>
</linearGradient>
<linearGradient id="paint6_linear_2002_674" x1="346.625" y1="334.875" x2="378" y2="328.5" gradientUnits="userSpaceOnUse">
<stop stop-color="#086E55"/>
<stop offset="0.5" stop-color="#1A9473"/>
<stop offset="1" stop-color="#2CBB91"/>
</linearGradient>
<linearGradient id="paint7_linear_2002_674" x1="380.125" y1="332.625" x2="348.125" y2="340.125" gradientUnits="userSpaceOnUse">
<stop stop-color="#1E8162"/>
<stop offset="0.5" stop-color="#136D53"/>
<stop offset="1" stop-color="#075945"/>
</linearGradient>
<linearGradient id="paint8_linear_2002_674" x1="247.25" y1="402.75" x2="346.5" y2="416" gradientUnits="userSpaceOnUse">
<stop stop-color="#54E1A7"/>
<stop offset="0.5" stop-color="#2FBE8C"/>
<stop offset="1" stop-color="#0A9C71"/>
</linearGradient>
<linearGradient id="paint9_linear_2002_674" x1="241.75" y1="351.75" x2="363.5" y2="434.5" gradientUnits="userSpaceOnUse">
<stop stop-color="#178668"/>
<stop offset="0.5" stop-color="#117154"/>
<stop offset="1" stop-color="#0B5C40"/>
</linearGradient>
<linearGradient id="paint10_linear_2002_674" x1="305.5" y1="282.5" x2="366" y2="282" gradientUnits="userSpaceOnUse">
<stop stop-color="#239868"/>
<stop offset="0.5" stop-color="#128A60"/>
<stop offset="1" stop-color="#007C57"/>
</linearGradient>
<linearGradient id="paint11_linear_2002_674" x1="242.25" y1="362.75" x2="292.25" y2="397.5" gradientUnits="userSpaceOnUse">
<stop stop-color="#2DBA80"/>
<stop offset="0.5" stop-color="#189F6F"/>
<stop offset="1" stop-color="#04855F"/>
</linearGradient>
<linearGradient id="paint12_linear_2002_674" x1="239.25" y1="372.75" x2="283.75" y2="405" gradientUnits="userSpaceOnUse">
<stop stop-color="#0D926E"/>
<stop offset="0.5" stop-color="#097A58"/>
<stop offset="1" stop-color="#056242"/>
</linearGradient>
<linearGradient id="paint13_linear_2002_674" x1="236.5" y1="325" x2="332.5" y2="311.5" gradientUnits="userSpaceOnUse">
<stop stop-color="#54E1A7"/>
<stop offset="0.5" stop-color="#2FBE8C"/>
<stop offset="1" stop-color="#0A9C71"/>
</linearGradient>
<linearGradient id="paint14_linear_2002_674" x1="249" y1="359" x2="345" y2="345.5" gradientUnits="userSpaceOnUse">
<stop stop-color="#54E1A7"/>
<stop offset="0.5" stop-color="#2FBE8C"/>
<stop offset="1" stop-color="#0A9C71"/>
</linearGradient>
<linearGradient id="paint15_linear_2002_674" x1="259.5" y1="316.25" x2="282.75" y2="329" gradientUnits="userSpaceOnUse">
<stop stop-color="#3AB683"/>
<stop offset="0.5" stop-color="#1FA476"/>
<stop offset="1" stop-color="#049369"/>
</linearGradient>
<radialGradient id="paint16_radial_2002_674" cx="0" cy="0" r="1" gradientUnits="userSpaceOnUse" gradientTransform="translate(267.735 224.664) scale(114.005 114.005)">
<stop stop-color="#8FFFBC"/>
<stop offset="0.5" stop-color="#47D399"/>
<stop offset="1" stop-color="#00A776"/>
</radialGradient>
<radialGradient id="paint17_radial_2002_674" cx="0" cy="0" r="1" gradientUnits="userSpaceOnUse" gradientTransform="translate(266.485 232.164) scale(121.121 121.121)">
<stop stop-color="#3CBC67"/>
<stop offset="0.5" stop-color="#208753"/>
<stop offset="1" stop-color="#03533F"/>
</radialGradient>
<radialGradient id="paint18_radial_2002_674" cx="0" cy="0" r="1" gradientUnits="userSpaceOnUse" gradientTransform="translate(269.628 119.997) scale(119.486)">
<stop stop-color="#8AE5C2"/>
<stop offset="0.5" stop-color="#57BB97"/>
<stop offset="1" stop-color="#23926D"/>
</radialGradient>
<linearGradient id="paint19_linear_2002_674" x1="280.38" y1="107.401" x2="376.658" y2="156.811" gradientUnits="userSpaceOnUse">
<stop stop-color="#50BC9C"/>
<stop offset="0.5" stop-color="#349776"/>
<stop offset="1" stop-color="#16734F"/>
</linearGradient>
<radialGradient id="paint20_radial_2002_674" cx="0" cy="0" r="1" gradientUnits="userSpaceOnUse" gradientTransform="translate(246.303 77.433) scale(234.304 234.304)">
<stop stop-color="#38A988"/>
<stop offset="0.5" stop-color="#208A6B"/>
<stop offset="1" stop-color="#086C4F"/>
</radialGradient>
<radialGradient id="paint21_radial_2002_674" cx="0" cy="0" r="1" gradientUnits="userSpaceOnUse" gradientTransform="translate(244.879 65.418) scale(244.474 244.474)">
<stop stop-color="#2D8D73"/>
<stop offset="0.5" stop-color="#22715A"/>
<stop offset="1" stop-color="#165640"/>
</radialGradient>
<radialGradient id="paint22_radial_2002_674" cx="0" cy="0" r="1" gradientUnits="userSpaceOnUse" gradientTransform="translate(227 162.5) scale(68.0165 68.0165)">
<stop stop-color="#7DFFB3"/>
<stop offset="0.5" stop-color="#4BD290"/>
<stop offset="1" stop-color="#18A56D"/>
</radialGradient>
<radialGradient id="paint23_radial_2002_674" cx="0" cy="0" r="1" gradientUnits="userSpaceOnUse" gradientTransform="translate(274.5 247.75) scale(123.775 123.775)">
<stop stop-color="#00AC8A"/>
<stop offset="0.5" stop-color="#009B75"/>
<stop offset="1" stop-color="#008961"/>
</radialGradient>
<radialGradient id="paint24_radial_2002_674" cx="0" cy="0" r="1" gradientUnits="userSpaceOnUse" gradientTransform="translate(295.25 151.25) scale(86.9921 86.9921)">
<stop stop-color="#7DFFB3"/>
<stop offset="0.5" stop-color="#4BD290"/>
<stop offset="1" stop-color="#18A56D"/>
</radialGradient>
<radialGradient id="paint25_radial_2002_674" cx="0" cy="0" r="1" gradientUnits="userSpaceOnUse" gradientTransform="translate(245 96.2501) scale(157.537 157.537)">
<stop stop-color="#69E8BA"/>
<stop offset="0.5" stop-color="#39B78E"/>
<stop offset="1" stop-color="#098661"/>
</radialGradient>
<radialGradient id="paint26_radial_2002_674" cx="0" cy="0" r="1" gradientUnits="userSpaceOnUse" gradientTransform="translate(239.25 107.5) scale(132.171 132.171)">
<stop stop-color="#3FAE8B"/>
<stop offset="0.5" stop-color="#21886B"/>
<stop offset="1" stop-color="#04634B"/>
</radialGradient>
<radialGradient id="paint27_radial_2002_674" cx="0" cy="0" r="1" gradientUnits="userSpaceOnUse" gradientTransform="translate(338.25 224.75) scale(25.3285 25.3285)">
<stop stop-color="#2A2A2A"/>
<stop offset="0.5" stop-color="#212121"/>
<stop offset="1" stop-color="#191919"/>
</radialGradient>
<radialGradient id="paint28_radial_2002_674" cx="0" cy="0" r="1" gradientUnits="userSpaceOnUse" gradientTransform="translate(233.5 235) scale(23.7118)">
<stop stop-color="#2A2A2A"/>
<stop offset="0.5" stop-color="#212121"/>
<stop offset="1" stop-color="#191919"/>
</radialGradient>
<radialGradient id="paint29_radial_2002_674" cx="0" cy="0" r="1" gradientUnits="userSpaceOnUse" gradientTransform="translate(244 131.5) scale(139.445 139.445)">
<stop stop-color="#3EA98A"/>
<stop offset="0.5" stop-color="#238A6C"/>
<stop offset="1" stop-color="#086C4F"/>
</radialGradient>
<radialGradient id="paint30_radial_2002_674" cx="0" cy="0" r="1" gradientUnits="userSpaceOnUse" gradientTransform="translate(272.5 152.25) scale(115.186)">
<stop stop-color="#2A9372"/>
<stop offset="0.5" stop-color="#18765B"/>
<stop offset="1" stop-color="#075945"/>
</radialGradient>
<radialGradient id="paint31_radial_2002_674" cx="0" cy="0" r="1" gradientUnits="userSpaceOnUse" gradientTransform="translate(166.25 131.25) scale(100)">
<stop stop-color="#FFF719"/>
<stop offset="0.5" stop-color="#FFF43C" stop-opacity="0.5"/>
<stop offset="1" stop-color="#FFF25F" stop-opacity="0"/>
</radialGradient>
<linearGradient id="paint32_linear_2002_674" x1="159.669" y1="169.244" x2="157.794" y2="111.744" gradientUnits="userSpaceOnUse">
<stop stop-color="#FFFD60" stop-opacity="0.9"/>
<stop offset="0.5" stop-color="#FFE430" stop-opacity="0.95"/>
<stop offset="1" stop-color="#FFCC00"/>
</linearGradient>
<linearGradient id="paint33_linear_2002_674" x1="164.461" y1="154.869" x2="163.211" y2="90.4941" gradientUnits="userSpaceOnUse">
<stop stop-color="#FFC600"/>
<stop offset="0.5" stop-color="#FF9600"/>
<stop offset="1" stop-color="#FF6600"/>
</linearGradient>
<linearGradient id="paint34_linear_2002_674" x1="160.375" y1="257" x2="173.375" y2="256.5" gradientUnits="userSpaceOnUse">
<stop stop-color="#6BFFCD"/>
<stop offset="0.5" stop-color="#3AD09D"/>
<stop offset="1" stop-color="#08A06D"/>
</linearGradient>
<linearGradient id="paint35_linear_2002_674" x1="156" y1="260.5" x2="181.375" y2="260.5" gradientUnits="userSpaceOnUse">
<stop stop-color="#37CB9C"/>
<stop offset="0.5" stop-color="#1C9370"/>
<stop offset="1" stop-color="#005B45"/>
</linearGradient>
<linearGradient id="paint36_linear_2002_674" x1="142.25" y1="205" x2="162" y2="201" gradientUnits="userSpaceOnUse">
<stop stop-color="#6BFFCD"/>
<stop offset="0.5" stop-color="#3AD09D"/>
<stop offset="1" stop-color="#08A06D"/>
</linearGradient>
<linearGradient id="paint37_linear_2002_674" x1="137.625" y1="209.75" x2="162.25" y2="209.75" gradientUnits="userSpaceOnUse">
<stop stop-color="#37CB9C"/>
<stop offset="0.5" stop-color="#1C9E78"/>
<stop offset="1" stop-color="#007054"/>
</linearGradient>
<linearGradient id="paint38_linear_2002_674" x1="142.25" y1="222.375" x2="164" y2="216" gradientUnits="userSpaceOnUse">
<stop stop-color="#6BFFCD"/>
<stop offset="0.5" stop-color="#3AD09D"/>
<stop offset="1" stop-color="#08A06D"/>
</linearGradient>
<linearGradient id="paint39_linear_2002_674" x1="134.375" y1="222.375" x2="169.375" y2="216.5" gradientUnits="userSpaceOnUse">
<stop stop-color="#37CB9C"/>
<stop offset="0.5" stop-color="#1C9E78"/>
<stop offset="1" stop-color="#007054"/>
</linearGradient>
<linearGradient id="paint40_linear_2002_674" x1="148.25" y1="238.125" x2="164.375" y2="233.5" gradientUnits="userSpaceOnUse">
<stop stop-color="#6BFFCD"/>
<stop offset="0.5" stop-color="#3AD09D"/>
<stop offset="1" stop-color="#08A06D"/>
</linearGradient>
<linearGradient id="paint41_linear_2002_674" x1="146.875" y1="235.875" x2="169.5" y2="230.25" gradientUnits="userSpaceOnUse">
<stop stop-color="#37CB9C"/>
<stop offset="0.5" stop-color="#1C9E78"/>
<stop offset="1" stop-color="#007054"/>
</linearGradient>
<linearGradient id="paint42_linear_2002_674" x1="177.937" y1="222.062" x2="184.687" y2="223.312" gradientUnits="userSpaceOnUse">
<stop stop-color="#0C8A60"/>
<stop offset="0.5" stop-color="#10A070"/>
<stop offset="1" stop-color="#14B67F"/>
</linearGradient>
<linearGradient id="paint43_linear_2002_674" x1="186.5" y1="221.125" x2="179.812" y2="219.937" gradientUnits="userSpaceOnUse">
<stop stop-color="#078D62"/>
<stop offset="0.5" stop-color="#047D5B"/>
<stop offset="1" stop-color="#026D53"/>
</linearGradient>
<linearGradient id="paint44_linear_2002_674" x1="146.25" y1="181.75" x2="169.75" y2="181.25" gradientUnits="userSpaceOnUse">
<stop stop-color="#6BFFCD"/>
<stop offset="0.5" stop-color="#3AD09D"/>
<stop offset="1" stop-color="#08A06D"/>
</linearGradient>
<linearGradient id="paint45_linear_2002_674" x1="140" y1="178.375" x2="183.75" y2="177" gradientUnits="userSpaceOnUse">
<stop stop-color="#37CB9C"/>
<stop offset="0.5" stop-color="#1C9370"/>
<stop offset="1" stop-color="#005B45"/>
</linearGradient>
<linearGradient id="paint46_linear_2002_674" x1="139.5" y1="163" x2="175.25" y2="161.5" gradientUnits="userSpaceOnUse">
<stop stop-color="#6BFFCD"/>
<stop offset="0.5" stop-color="#3AD09D"/>
<stop offset="1" stop-color="#08A06D"/>
</linearGradient>
<linearGradient id="paint47_linear_2002_674" x1="141.625" y1="176.75" x2="187.25" y2="173.875" gradientUnits="userSpaceOnUse">
<stop stop-color="#37CB9C"/>
<stop offset="0.5" stop-color="#1C9370"/>
<stop offset="1" stop-color="#005B45"/>
</linearGradient>
<linearGradient id="paint48_linear_2002_674" x1="344" y1="376.25" x2="398.5" y2="344.75" gradientUnits="userSpaceOnUse">
<stop stop-color="#009163"/>
<stop offset="0.5" stop-color="#00966C"/>
<stop offset="1" stop-color="#009B75"/>
</linearGradient>
<linearGradient id="paint49_linear_2002_674" x1="401.5" y1="333.625" x2="426.25" y2="346.625" gradientUnits="userSpaceOnUse">
<stop stop-color="#009968"/>
<stop offset="0.5" stop-color="#00895C"/>
<stop offset="1" stop-color="#007A50"/>
</linearGradient>
<linearGradient id="paint50_linear_2002_674" x1="400.125" y1="327.625" x2="429.75" y2="348.375" gradientUnits="userSpaceOnUse">
<stop stop-color="#009464"/>
<stop offset="0.5" stop-color="#008256"/>
<stop offset="1" stop-color="#006F49"/>
</linearGradient>
<linearGradient id="paint51_linear_2002_674" x1="387.375" y1="364.875" x2="420.75" y2="387.125" gradientUnits="userSpaceOnUse">
<stop stop-color="#008E61"/>
<stop offset="0.5" stop-color="#007956"/>
<stop offset="1" stop-color="#00634A"/>
</linearGradient>
<clipPath id="clip0_2002_674">
<rect width="512" height="512" fill="white"/>
</clipPath>
</defs>
</svg>
