<svg width="512" height="512" viewBox="0 0 512 512" fill="none" xmlns="http://www.w3.org/2000/svg">
<g clip-path="url(#clip0_4_3925)">
<mask id="mask0_4_3925" style="mask-type:luminance" maskUnits="userSpaceOnUse" x="0" y="0" width="512" height="512">
<path d="M512 0H0V512H512V0Z" fill="white"/>
</mask>
<g mask="url(#mask0_4_3925)">
<mask id="mask1_4_3925" style="mask-type:luminance" maskUnits="userSpaceOnUse" x="22" y="6" width="468" height="485">
<path d="M489.207 248.099C489.207 381.807 384.654 491.762 255.702 490.198C132.588 488.705 25.8274 380.88 22.1973 248.099C18.5434 114.441 126.741 6 255.702 6C384.663 6 489.207 114.391 489.207 248.099Z" fill="url(#paint0_radial_4_3925)"/>
</mask>
<g mask="url(#mask1_4_3925)">
<path d="M489.207 248.099C489.207 381.807 384.654 491.762 255.702 490.198C132.588 488.705 25.8274 380.88 22.1973 248.099C18.5434 114.441 126.741 6 255.702 6C384.663 6 489.207 114.391 489.207 248.099Z" fill="url(#paint1_radial_4_3925)"/>
</g>
<mask id="mask2_4_3925" style="mask-type:luminance" maskUnits="userSpaceOnUse" x="1" y="-30" width="512" height="512">
<path d="M1 -30H513V482H1V-30Z" fill="white"/>
</mask>
<g mask="url(#mask2_4_3925)">
<path d="M192.142 363.588L232.477 391.109L292.224 392.689L444.974 190.687L360.416 38.4709L211.151 118.086L192.142 363.588Z" fill="#E6FCFE"/>
<path d="M212.619 117.767L312.877 194.632L232.52 391.851L192.143 363.588L212.619 117.767Z" fill="#88DBFF"/>
<path d="M360.057 38.6169L312.876 194.633L445.244 190.415L360.057 38.6169Z" fill="#D5F0FD"/>
<mask id="mask3_4_3925" style="mask-type:luminance" maskUnits="userSpaceOnUse" x="312" y="38" width="134" height="157">
<path d="M360.057 38.6169L312.876 194.633L445.244 190.415L360.057 38.6169Z" fill="url(#paint2_linear_4_3925)"/>
</mask>
<g mask="url(#mask3_4_3925)">
<path d="M360.057 38.6169L312.876 194.633L445.244 190.415L360.057 38.6169Z" fill="url(#paint3_linear_4_3925)"/>
</g>
<path d="M360.057 38.6169L312.876 194.633L210.847 117.932L360.057 38.6169Z" fill="#F4FCFF"/>
<g opacity="0.4">
<path d="M192.142 363.588L232.477 391.109L292.224 392.689L444.974 190.687L360.416 38.4709L211.151 118.086L192.142 363.588Z" fill="url(#paint4_linear_4_3925)"/>
</g>
<path d="M232.477 391.109L313.042 194.367L360.417 38.4709" stroke="#80D8FF" stroke-width="15" stroke-linecap="round" stroke-linejoin="round"/>
<path d="M211.151 118.086L313.041 194.368L444.973 190.688" stroke="#80D8FF" stroke-width="15" stroke-linecap="round" stroke-linejoin="round"/>
<g opacity="0.5">
<path d="M199.57 281.621L226.412 128.099L354.026 57.405L428.174 190.779L331.385 331.271" stroke="white" stroke-width="18" stroke-linecap="round" stroke-linejoin="round"/>
</g>
<path d="M192.142 363.588L232.477 391.109L292.224 392.689L444.974 190.687L360.416 38.4709L211.151 118.086L192.142 363.588Z" stroke="url(#paint5_linear_4_3925)" stroke-width="18" stroke-linecap="round" stroke-linejoin="round"/>
</g>
<mask id="mask4_4_3925" style="mask-type:luminance" maskUnits="userSpaceOnUse" x="-31" y="43" width="350" height="512">
<path d="M-31 43H319V555H-31V43Z" fill="white"/>
</mask>
<g mask="url(#mask4_4_3925)">
<path d="M113.375 417.904L158.534 456.192L210.52 411.692L221.817 202.333L115.739 137.664L29.0947 240.294L113.375 417.904Z" fill="#D8F1FD"/>
<path d="M33.6211 244.398L108.59 259.953L154.159 452.184L113.376 417.904L33.6211 244.398Z" fill="#80DBFF"/>
<path d="M220.937 202.089L108.435 259.541L158.987 456.053L210.52 411.692L220.937 202.089Z" fill="#C2F1FD"/>
<mask id="mask5_4_3925" style="mask-type:luminance" maskUnits="userSpaceOnUse" x="108" y="202" width="113" height="255">
<path d="M220.937 202.089L108.435 259.541L158.987 456.053L210.52 411.692L220.937 202.089Z" fill="url(#paint6_linear_4_3925)"/>
</mask>
<g mask="url(#mask5_4_3925)">
<path d="M220.937 202.089L108.435 259.541L158.987 456.053L210.52 411.692L220.937 202.089Z" fill="url(#paint7_linear_4_3925)"/>
</g>
<path d="M117.288 140.617L108.435 259.541L220.937 202.088L117.288 140.617Z" fill="#F5FFFF"/>
<g opacity="0.4">
<path d="M113.375 417.904L158.534 456.192L210.52 411.692L221.817 202.333L115.739 137.664L29.0947 240.294L113.375 417.904Z" fill="url(#paint8_linear_4_3925)"/>
</g>
<path d="M158.534 456.192L108.59 259.953L115.74 137.664" stroke="#80D8FF" stroke-width="15" stroke-linecap="round" stroke-linejoin="round"/>
<path d="M221.817 202.332L108.59 259.952L29.0947 240.293" stroke="#80D8FF" stroke-width="15" stroke-linecap="round" stroke-linejoin="round"/>
<g opacity="0.5">
<path d="M112.763 415.519L44.1328 241.7L118.173 154.601L207.686 208.879L210.027 408.233" stroke="white" stroke-width="18" stroke-linecap="round" stroke-linejoin="round"/>
</g>
<path d="M113.375 417.904L158.534 456.192L210.52 411.692L221.817 202.332L115.739 137.664L29.0947 240.294L113.375 417.904Z" stroke="url(#paint9_linear_4_3925)" stroke-width="18" stroke-linecap="round" stroke-linejoin="round"/>
</g>
<mask id="mask6_4_3925" style="mask-type:luminance" maskUnits="userSpaceOnUse" x="131" y="235" width="350" height="350">
<path d="M131 235H481V585H131V235Z" fill="white"/>
</mask>
<g mask="url(#mask6_4_3925)">
<path d="M336.089 303.862L446.436 359.781L398.954 469.915L276.862 492.676L182.8 432.595L234.41 327.846L336.089 303.862Z" fill="#ABEFFF"/>
<path d="M242.664 329.389L261.122 362.248L359.098 345.476L335.892 308.248L242.664 329.389Z" fill="#D2FAFF"/>
<path d="M254.906 369.944L267.602 447.026L182.8 432.595L254.906 369.944Z" fill="#8FDAFF"/>
<path d="M234.113 332.487L182.8 432.595L251.974 365.057L234.113 332.487Z" fill="#B6F1FF"/>
<path d="M390.334 426.57L405.056 461.459L280.976 491.7L278.45 449.466L390.334 426.57Z" fill="#C7FFFC"/>
<path d="M365.294 353.506L384.805 424.1L277.645 444.208L260.657 371.152L365.294 353.506Z" fill="#CCF1FF"/>
<mask id="mask7_4_3925" style="mask-type:luminance" maskUnits="userSpaceOnUse" x="260" y="353" width="125" height="92">
<path d="M365.294 353.506L384.805 424.1L277.645 444.208L260.657 371.152L365.294 353.506Z" fill="url(#paint10_linear_4_3925)"/>
</mask>
<g mask="url(#mask7_4_3925)">
<path d="M365.294 353.506L384.805 424.1L277.645 444.208L260.657 371.152L365.294 353.506Z" fill="url(#paint11_linear_4_3925)"/>
</g>
<path d="M336.299 304.44L368.011 348.887L445.763 359.418L336.299 304.44Z" fill="#E6FAFF"/>
<path d="M336.089 303.861L367.864 349.163L390.335 426.57L398.955 469.915" stroke="#80D8FF" stroke-width="15" stroke-linecap="round" stroke-linejoin="round"/>
<path d="M276.862 492.676L274.974 448.168L257.791 367.56L234.41 327.846" stroke="#80D8FF" stroke-width="15" stroke-linecap="round" stroke-linejoin="round"/>
<path d="M182.8 432.595L257.791 367.56L367.864 349.163L446.436 359.781L390.335 426.57L274.974 448.167L182.8 432.595Z" stroke="#80D8FF" stroke-width="15" stroke-linecap="round" stroke-linejoin="round"/>
<g opacity="0.4">
<path d="M336.089 303.862L446.436 359.781L398.954 469.915L276.862 492.676L182.8 432.595L234.41 327.846L336.089 303.862Z" fill="url(#paint12_linear_4_3925)"/>
</g>
<g opacity="0.5">
<path d="M182.801 432.595L242.045 339.607L336.242 317.059L432.763 364.929L413.7 435.749" stroke="white" stroke-width="18" stroke-linecap="round" stroke-linejoin="round"/>
</g>
<path d="M336.089 303.862L446.436 359.781L398.954 469.915L276.862 492.676L182.8 432.595L234.41 327.846L336.089 303.862Z" stroke="url(#paint13_linear_4_3925)" stroke-width="18" stroke-linecap="round" stroke-linejoin="round"/>
</g>
<path d="M329.768 337.796C329.768 337.796 331.827 376.787 303.365 378.221C303.365 378.221 329.834 380.886 329.801 417.204C329.801 417.204 330.307 378.423 354.761 377.5C354.761 377.5 330.445 381.501 329.768 337.796Z" fill="white"/>
<path d="M106.768 281.796C106.768 281.796 108.827 320.787 80.3652 322.221C80.3652 322.221 106.834 324.886 106.801 361.204C106.801 361.204 107.307 322.423 131.761 321.5C131.761 321.5 107.445 325.501 106.768 281.796Z" fill="white"/>
<path d="M370.66 142.115C370.66 142.115 374.501 174.75 349.098 177.509C349.098 177.509 372.927 178.302 374.758 208.807C374.758 208.807 373.224 176.207 395.066 174.097C395.066 174.097 373.505 178.785 370.66 142.115Z" fill="white"/>
</g>
</g>
<defs>
<radialGradient id="paint0_radial_4_3925" cx="0" cy="0" r="1" gradientUnits="userSpaceOnUse" gradientTransform="translate(256.261 250.002) scale(242.004 242.004)">
<stop stop-color="white"/>
<stop offset="0.1" stop-color="white"/>
<stop offset="0.2" stop-color="white"/>
<stop offset="0.53" stop-color="white" stop-opacity="0.5"/>
<stop offset="0.94" stop-color="white" stop-opacity="0"/>
<stop offset="0.97" stop-color="white" stop-opacity="0"/>
<stop offset="1" stop-color="white" stop-opacity="0"/>
</radialGradient>
<radialGradient id="paint1_radial_4_3925" cx="0" cy="0" r="1" gradientUnits="userSpaceOnUse" gradientTransform="translate(256.261 250.002) scale(242.004 242.004)">
<stop offset="0.2" stop-color="#51BEFF"/>
<stop offset="0.53" stop-color="#51BEFF"/>
<stop offset="0.94" stop-color="#51BEFF"/>
</radialGradient>
<linearGradient id="paint2_linear_4_3925" x1="382.556" y1="174.941" x2="360.231" y2="60.3699" gradientUnits="userSpaceOnUse">
<stop offset="0.09" stop-color="white" stop-opacity="0"/>
<stop offset="0.1" stop-color="white" stop-opacity="0.5"/>
<stop offset="0.12" stop-color="white"/>
<stop offset="0.23" stop-color="white"/>
<stop offset="0.35" stop-color="white"/>
<stop offset="0.37" stop-color="white" stop-opacity="0.5"/>
<stop offset="0.39" stop-color="white" stop-opacity="0"/>
<stop offset="0.43" stop-color="white" stop-opacity="0"/>
<stop offset="0.47" stop-color="white" stop-opacity="0"/>
<stop offset="0.48" stop-color="white" stop-opacity="0.5"/>
<stop offset="0.5" stop-color="white"/>
<stop offset="0.54" stop-color="white"/>
<stop offset="0.58" stop-color="white"/>
<stop offset="0.6" stop-color="white" stop-opacity="0.5"/>
<stop offset="0.62" stop-color="white" stop-opacity="0"/>
</linearGradient>
<linearGradient id="paint3_linear_4_3925" x1="382.556" y1="174.941" x2="360.231" y2="60.3699" gradientUnits="userSpaceOnUse">
<stop stop-color="white"/>
<stop offset="0.5" stop-color="white"/>
<stop offset="1" stop-color="white"/>
</linearGradient>
<linearGradient id="paint4_linear_4_3925" x1="192.047" y1="363.177" x2="326.736" y2="244.243" gradientUnits="userSpaceOnUse">
<stop stop-color="#0080F1"/>
<stop offset="0.73" stop-color="#1E7FF8" stop-opacity="0.5"/>
<stop offset="1" stop-color="#3B7EFF" stop-opacity="0"/>
</linearGradient>
<linearGradient id="paint5_linear_4_3925" x1="197" y1="381" x2="390.681" y2="45.5339" gradientUnits="userSpaceOnUse">
<stop offset="0.13" stop-color="#307BE7"/>
<stop offset="0.52" stop-color="#2B95EF"/>
<stop offset="0.93" stop-color="#26AFF8"/>
</linearGradient>
<linearGradient id="paint6_linear_4_3925" x1="214.182" y1="313.387" x2="111.857" y2="238.816" gradientUnits="userSpaceOnUse">
<stop offset="0.09" stop-color="white" stop-opacity="0"/>
<stop offset="0.1" stop-color="white" stop-opacity="0.5"/>
<stop offset="0.12" stop-color="white"/>
<stop offset="0.23" stop-color="white"/>
<stop offset="0.35" stop-color="white"/>
<stop offset="0.37" stop-color="white" stop-opacity="0.5"/>
<stop offset="0.39" stop-color="white" stop-opacity="0"/>
<stop offset="0.43" stop-color="white" stop-opacity="0"/>
<stop offset="0.47" stop-color="white" stop-opacity="0"/>
<stop offset="0.48" stop-color="white" stop-opacity="0.5"/>
<stop offset="0.5" stop-color="white"/>
<stop offset="0.54" stop-color="white"/>
<stop offset="0.58" stop-color="white"/>
<stop offset="0.6" stop-color="white" stop-opacity="0.5"/>
<stop offset="0.62" stop-color="white" stop-opacity="0"/>
</linearGradient>
<linearGradient id="paint7_linear_4_3925" x1="214.182" y1="313.387" x2="111.857" y2="238.816" gradientUnits="userSpaceOnUse">
<stop stop-color="white"/>
<stop offset="0.5" stop-color="white"/>
<stop offset="1" stop-color="white"/>
</linearGradient>
<linearGradient id="paint8_linear_4_3925" x1="124.524" y1="452.082" x2="131.561" y2="249.941" gradientUnits="userSpaceOnUse">
<stop stop-color="#0080F1"/>
<stop offset="0.73" stop-color="#1E7FF8" stop-opacity="0.5"/>
<stop offset="1" stop-color="#3B7EFF" stop-opacity="0"/>
</linearGradient>
<linearGradient id="paint9_linear_4_3925" x1="233" y1="423" x2="75.3737" y2="149.985" gradientUnits="userSpaceOnUse">
<stop offset="0.13" stop-color="#307BE7"/>
<stop offset="0.52" stop-color="#2B95EF"/>
<stop offset="0.93" stop-color="#26AFF8"/>
</linearGradient>
<linearGradient id="paint10_linear_4_3925" x1="372.227" y1="383.173" x2="251.402" y2="321.602" gradientUnits="userSpaceOnUse">
<stop offset="0.09" stop-color="white" stop-opacity="0"/>
<stop offset="0.1" stop-color="white" stop-opacity="0.5"/>
<stop offset="0.12" stop-color="white"/>
<stop offset="0.23" stop-color="white"/>
<stop offset="0.35" stop-color="white"/>
<stop offset="0.37" stop-color="white" stop-opacity="0.5"/>
<stop offset="0.39" stop-color="white" stop-opacity="0"/>
<stop offset="0.43" stop-color="white" stop-opacity="0"/>
<stop offset="0.47" stop-color="white" stop-opacity="0"/>
<stop offset="0.48" stop-color="white" stop-opacity="0.5"/>
<stop offset="0.5" stop-color="white"/>
<stop offset="0.54" stop-color="white"/>
<stop offset="0.58" stop-color="white"/>
<stop offset="0.6" stop-color="white" stop-opacity="0.5"/>
<stop offset="0.62" stop-color="white" stop-opacity="0"/>
</linearGradient>
<linearGradient id="paint11_linear_4_3925" x1="372.227" y1="383.173" x2="251.402" y2="321.602" gradientUnits="userSpaceOnUse">
<stop stop-color="white"/>
<stop offset="0.5" stop-color="white"/>
<stop offset="1" stop-color="white"/>
</linearGradient>
<linearGradient id="paint12_linear_4_3925" x1="219.611" y1="363.717" x2="301.392" y2="395.466" gradientUnits="userSpaceOnUse">
<stop stop-color="#0080F1"/>
<stop offset="0.73" stop-color="#1E7FF8" stop-opacity="0.5"/>
<stop offset="1" stop-color="#3B7EFF" stop-opacity="0"/>
</linearGradient>
<linearGradient id="paint13_linear_4_3925" x1="261" y1="494" x2="369.939" y2="305.313" gradientUnits="userSpaceOnUse">
<stop offset="0.13" stop-color="#307BE7"/>
<stop offset="0.52" stop-color="#2B95EF"/>
<stop offset="0.93" stop-color="#26AFF8"/>
</linearGradient>
<clipPath id="clip0_4_3925">
<rect width="512" height="512" fill="white"/>
</clipPath>
</defs>
</svg>
