<svg width="512" height="512" viewBox="0 0 512 512" fill="none" xmlns="http://www.w3.org/2000/svg">
<g clip-path="url(#clip0_4_15405)">
<mask id="mask0_4_15405" style="mask-type:luminance" maskUnits="userSpaceOnUse" x="0" y="0" width="512" height="512">
<path d="M512 0H0V512H512V0Z" fill="white"/>
</mask>
<g mask="url(#mask0_4_15405)">
<path d="M350.833 474.634C350.833 474.634 345.25 493.501 252.867 493.538C161.001 493.575 157.093 475.384 157.093 475.384L148.817 331.184H359.109L350.833 474.634Z" fill="url(#paint0_linear_4_15405)"/>
<path d="M350.833 474.634C350.833 474.634 345.25 493.501 252.867 493.538C161.001 493.575 157.093 475.384 157.093 475.384L148.817 331.184H359.109L350.833 474.634Z" stroke="#175AC8" stroke-width="8" stroke-linecap="round" stroke-linejoin="round"/>
<path d="M359.108 329.012C359.999 340.5 335.946 350.977 254.023 351.111C169 351.25 149.619 341.482 148.938 329.012C148.5 321 182.495 310.831 254.023 311.663C326 312.501 358.527 321.522 359.108 329.012Z" fill="#44570C"/>
<path d="M359.108 329.012C359.999 340.5 335.946 350.977 254.023 351.111C169 351.25 149.619 341.482 148.938 329.012C148.5 321 182.495 310.831 254.023 311.663C326 312.501 358.527 321.522 359.108 329.012Z" stroke="#175AC8" stroke-width="8"/>
<g opacity="0.4">
<path d="M144 322.5C144.5 323 153.25 477 153.75 477C236.5 523 298.5 345 277.25 310C271.5 308.5 186.5 301.5 144 322.5Z" fill="url(#paint1_linear_4_15405)"/>
</g>
<g opacity="0.4">
<path d="M362 327.501C346.75 309.751 250.5 304.001 231.5 310.501C217 347.001 275 517.501 353.5 475.001C354 474.501 360.25 392.251 362 327.501Z" fill="url(#paint2_linear_4_15405)"/>
</g>
<path d="M356.688 402.251C310.5 416.001 201.001 416.501 150.188 402.501C149.688 402.751 151.688 433.001 151.688 433.501C187.501 452.501 322.75 451.751 355.438 432.501C355.688 432.251 357.438 402.251 356.688 402.251Z" fill="url(#paint3_linear_4_15405)"/>
<path d="M356.688 402.251C310.5 416.001 201.001 416.501 150.188 402.501C149.688 402.751 151.688 433.001 151.688 433.501C187.501 452.501 322.75 451.751 355.438 432.501C355.688 432.251 357.438 402.251 356.688 402.251Z" stroke="url(#paint4_linear_4_15405)" stroke-width="8"/>
<path d="M361 331.751C372 398.501 316 432.501 259.75 382.251C214.5 398.501 173 347.001 186 310.751C202 303.001 357.338 309.527 361 331.751Z" fill="url(#paint5_linear_4_15405)"/>
<path d="M253.5 153C240 230.5 271.5 319 262 327.5C236 307 196.5 217.5 139.5 190.5" stroke="url(#paint6_linear_4_15405)" stroke-width="17" stroke-linecap="round" stroke-linejoin="round"/>
<path d="M253.5 153C240 230.5 271.5 319 262 327.5C236 307 196.5 217.5 139.5 190.5" stroke="url(#paint7_linear_4_15405)" stroke-width="7"/>
<path d="M166 295.5C204 297 244 309 259.5 320.5" stroke="url(#paint8_linear_4_15405)" stroke-width="17" stroke-linecap="round" stroke-linejoin="round"/>
<path d="M166 295.5C204 297 244 309 259.5 320.5" stroke="url(#paint9_linear_4_15405)" stroke-width="7" stroke-linecap="round" stroke-linejoin="round"/>
<path d="M321.372 319.608C382 321.001 408 400 399.989 457.722C357.5 437.5 309 384.5 321.372 319.608Z" fill="url(#paint10_linear_4_15405)"/>
<path d="M321.372 319.608C382 321.001 408 400 399.989 457.722C357.5 437.5 309 384.5 321.372 319.608Z" stroke="url(#paint11_linear_4_15405)" stroke-width="8" stroke-linecap="round" stroke-linejoin="round"/>
<g opacity="0.21">
<path d="M321.372 319.608C340.532 334.863 383 397 394.032 443.298C376.5 412 332.864 354.085 321.372 319.608Z" fill="#036A36"/>
</g>
<path d="M196.154 304.627C175.308 348.572 104.788 394.479 125.216 477.371C141.754 426.935 265.726 372.125 196.154 304.627Z" fill="url(#paint12_linear_4_15405)"/>
<path d="M196.154 304.627C175.308 348.572 104.788 394.479 125.216 477.371C141.754 426.935 265.726 372.125 196.154 304.627Z" stroke="url(#paint13_linear_4_15405)" stroke-width="8" stroke-linecap="round" stroke-linejoin="round"/>
<g opacity="0.14">
<path d="M196.911 305.798C186.418 353.215 138.348 399.005 132.128 439.02C145.118 406.072 199.201 366.362 196.911 305.798Z" fill="#2F7402"/>
</g>
<path d="M360.341 233.629C395.551 267.185 477.839 284.771 488.473 369.478C454.959 328.319 319.579 321.577 360.341 233.629Z" fill="url(#paint14_linear_4_15405)"/>
<path d="M360.341 233.629C395.551 267.185 477.839 284.771 488.473 369.478C454.959 328.319 319.579 321.577 360.341 233.629Z" stroke="url(#paint15_linear_4_15405)" stroke-width="8" stroke-linecap="round" stroke-linejoin="round"/>
<g opacity="0.14">
<path d="M360.054 234.994C386.843 275.501 447.379 301.523 467.526 336.651C443.749 317.75 376.25 300.75 360.054 234.994Z" fill="#537408"/>
</g>
<path d="M185.72 323.972C143.002 313.424 80.8488 394.23 75.5278 419.41C99.9188 418.302 166.839 391.696 185.72 323.972Z" fill="url(#paint16_linear_4_15405)"/>
<path d="M185.72 323.972C143.002 313.424 80.8488 394.23 75.5278 419.41C99.9188 418.302 166.839 391.696 185.72 323.972Z" stroke="url(#paint17_linear_4_15405)" stroke-width="8" stroke-linecap="round" stroke-linejoin="round"/>
<g opacity="0.21">
<path d="M185.72 323.972C162.638 332.158 98.8757 396.541 83.4297 413.222C106.76 401.645 163.63 352.829 185.72 323.972Z" fill="#597000"/>
</g>
<path d="M157.064 320.522C139.077 280.365 79.5 277 14.0173 292.447C49.9999 335.5 92.0729 347.338 157.064 320.522Z" fill="url(#paint18_linear_4_15405)"/>
<path d="M157.064 320.522C139.077 280.365 79.5 277 14.0173 292.447C49.9999 335.5 92.0729 347.338 157.064 320.522Z" stroke="url(#paint19_linear_4_15405)" stroke-width="8" stroke-linecap="round" stroke-linejoin="round"/>
<path d="M322.799 206.242C292.767 153.557 347.5 86.4991 402.195 66.7212C392.5 112.999 384.794 183.426 322.799 206.242Z" fill="url(#paint20_linear_4_15405)"/>
<path d="M322.799 206.242C292.767 153.557 347.5 86.4991 402.195 66.7212C392.5 112.999 384.794 183.426 322.799 206.242Z" stroke="url(#paint21_linear_4_15405)" stroke-width="8" stroke-linecap="round" stroke-linejoin="round"/>
<path d="M381.989 222.12C346.759 136.269 462.571 118.261 456.298 155.14C523.997 184.843 439.589 287.186 381.989 222.12Z" fill="url(#paint22_radial_4_15405)"/>
<path d="M381.989 222.12C346.759 136.269 462.571 118.261 456.298 155.14C523.997 184.843 439.589 287.186 381.989 222.12Z" stroke="#F45BA4" stroke-width="8" stroke-linecap="round" stroke-linejoin="round"/>
<path d="M488.209 215.731C508.946 167.323 462.545 156.565 428.251 230.335C392.857 306.471 462.009 310.146 495.692 241.616C502.87 224.883 502.985 209.555 488.209 215.731Z" fill="url(#paint23_radial_4_15405)"/>
<path d="M488.209 215.731C508.946 167.323 462.545 156.565 428.251 230.335C392.857 306.471 462.009 310.146 495.692 241.616C502.87 224.883 502.985 209.555 488.209 215.731Z" stroke="#CD356C" stroke-width="8" stroke-linecap="round" stroke-linejoin="round"/>
<path d="M406.691 283.319C434.879 309.687 491.761 281.479 495.695 240.599C481.159 284.17 434.968 275.004 406.691 283.319Z" fill="#E54C94"/>
<path d="M406.691 283.319C434.879 309.687 491.761 281.479 495.695 240.599C481.159 284.17 434.968 275.004 406.691 283.319Z" stroke="#A91E53" stroke-width="8" stroke-linecap="round" stroke-linejoin="round"/>
<path d="M447.621 171.678C426.031 155.001 372.078 190.711 418.568 214.606C459.153 235.666 473.058 191.327 447.621 171.678Z" fill="#DC4384"/>
<path d="M447.621 171.678C426.031 155.001 372.078 190.711 418.568 214.606C459.153 235.666 473.058 191.327 447.621 171.678Z" stroke="#9D194E" stroke-width="8" stroke-linecap="round" stroke-linejoin="round"/>
<path d="M416.337 252.105C385.43 243.271 435.221 177.091 449.852 202.907C485.453 167.524 467.991 266.868 416.337 252.105Z" fill="#FFB6DB"/>
<path d="M416.337 252.105C385.43 243.271 435.221 177.091 449.852 202.907C485.453 167.524 467.991 266.868 416.337 252.105Z" stroke="#D62D86" stroke-width="8" stroke-linecap="round" stroke-linejoin="round"/>
<path d="M391.902 268.929C477.307 313.682 510.686 183.312 451.284 226.995C458.422 207.153 435.128 213.766 428.283 218.628C430.702 173.726 326.911 191.967 391.902 268.929Z" fill="url(#paint24_linear_4_15405)"/>
<path d="M391.902 268.929C477.307 313.682 510.686 183.312 451.284 226.995C458.422 207.153 435.128 213.766 428.283 218.628C430.702 173.726 326.911 191.967 391.902 268.929Z" stroke="url(#paint25_linear_4_15405)" stroke-width="8" stroke-linecap="round" stroke-linejoin="round"/>
<path d="M377.105 236.873C402.074 200.221 442.068 190.231 418.68 171.716C444.264 173.372 452.86 149.117 424.373 144.18C370.433 134.831 343.019 221.466 377.105 236.873Z" fill="url(#paint26_radial_4_15405)"/>
<path d="M377.105 236.873C402.074 200.221 442.068 190.231 418.68 171.716C444.264 173.372 452.86 149.117 424.373 144.18C370.433 134.831 343.019 221.466 377.105 236.873Z" stroke="#E34F89" stroke-width="8" stroke-linecap="round" stroke-linejoin="round"/>
<g opacity="0.56">
<path d="M383.765 215.462C396.977 193.671 430.668 186.543 407.507 166.602C431.503 171.746 442.175 148.958 413.532 148.884C382.36 150.837 367.231 191.725 383.765 215.462Z" fill="url(#paint27_linear_4_15405)"/>
</g>
<path d="M371.367 159.349C378.735 150.829 417.408 131.94 412.935 122.018C408.417 111.999 378.513 120.12 357.745 141.964C334.394 166.526 314.883 209.125 350.849 242.506C358.668 249.764 408.067 201.793 375.667 198.256C398.27 183.741 407.724 143.362 371.367 159.349Z" fill="url(#paint28_radial_4_15405)"/>
<path d="M371.367 159.349C378.735 150.829 417.408 131.94 412.935 122.018C408.417 111.999 378.513 120.12 357.745 141.964C334.394 166.526 314.883 209.125 350.849 242.506C358.668 249.764 408.067 201.793 375.667 198.256C398.27 183.741 407.724 143.362 371.367 159.349Z" stroke="url(#paint29_linear_4_15405)" stroke-width="8" stroke-linecap="round" stroke-linejoin="round"/>
<path d="M356.344 261.079C312.014 208.618 401.845 204.873 391.297 228.084C430.949 215.584 473.183 256.315 434.291 275.05C469.237 280.036 416.25 324.64 356.344 261.079Z" fill="url(#paint30_radial_4_15405)"/>
<path d="M356.344 261.079C312.014 208.618 401.845 204.873 391.297 228.084C430.949 215.584 473.183 256.315 434.291 275.05C469.237 280.036 416.25 324.64 356.344 261.079Z" stroke="url(#paint31_linear_4_15405)" stroke-width="8" stroke-linecap="round" stroke-linejoin="round"/>
<g opacity="0.7">
<path d="M357.77 261.082C326.055 221.975 389.791 208.967 386.14 235.478C428.384 230.398 452.493 260.311 419.826 275.218C438.544 294.845 391.835 294.823 357.77 261.082Z" fill="url(#paint32_linear_4_15405)"/>
</g>
<path d="M38.9511 156.22C59.9393 194.991 101.378 177.125 107.476 142.708C112.257 115.722 98.4918 103.646 79.0625 83.3415C41.2499 82.2495 20.1903 121.562 38.9511 156.22Z" fill="#CD3974"/>
<path d="M38.9511 156.22C59.9393 194.991 101.378 177.125 107.476 142.708C112.257 115.722 98.4918 103.646 79.0625 83.3415C41.2499 82.2495 20.1903 121.562 38.9511 156.22Z" stroke="#9D194E" stroke-width="8" stroke-linecap="round" stroke-linejoin="round"/>
<path d="M58.8305 115.846C26.1996 145.69 72.9975 197.293 106.924 149.971C142.557 105.092 78.1592 67.1584 58.8305 115.846Z" fill="#CD3974"/>
<path d="M58.8305 115.846C26.1996 145.69 72.9975 197.293 106.924 149.971C142.557 105.092 78.1592 67.1584 58.8305 115.846Z" stroke="#9D194E" stroke-width="8" stroke-linecap="round" stroke-linejoin="round"/>
<path d="M33.8719 138.926C10.524 107.874 58.2006 73.4609 78.932 81.4042C74.0023 81.428 74.4767 96.0746 65.836 101.273C47.0933 112.548 31.2484 111 33.8719 138.926Z" fill="#FFB6DB"/>
<path d="M33.8719 138.926C10.524 107.874 58.2006 73.4609 78.932 81.4042C74.0023 81.428 74.4767 96.0746 65.836 101.273C47.0933 112.548 31.2484 111 33.8719 138.926Z" stroke="#E94698" stroke-width="8" stroke-linecap="round" stroke-linejoin="round"/>
<path d="M152.697 150.231C160.249 28.3312 11.8113 90.3457 87.6642 115.107C134.122 138.446 150.741 181.79 152.697 150.231Z" fill="#FFAACF"/>
<path d="M152.697 150.231C160.249 28.3312 11.8113 90.3457 87.6642 115.107C134.122 138.446 150.741 181.79 152.697 150.231Z" stroke="#FF8DB7" stroke-width="8" stroke-linecap="round" stroke-linejoin="round"/>
<path d="M74.0529 92.083C64.7085 111.71 120.782 108.179 143.778 126.485C149.961 82.1534 82.9608 73.3711 74.0529 92.083Z" fill="url(#paint33_linear_4_15405)"/>
<path d="M130.046 186.657C64.6953 228.615 -9.22719 108.043 77.7475 113.963C87.6468 65.5236 190.841 147.625 130.046 186.657Z" fill="#F278B2"/>
<path d="M130.046 186.657C64.6953 228.615 -9.22719 108.043 77.7475 113.963C87.6468 65.5236 190.841 147.625 130.046 186.657Z" stroke="url(#paint34_linear_4_15405)" stroke-width="8" stroke-linecap="round" stroke-linejoin="round"/>
<path d="M97.7363 159.293C54.7884 184.035 11.9615 114.644 83.979 120.661C87.0955 87.4827 151.706 128.201 97.7363 159.293Z" fill="url(#paint35_linear_4_15405)"/>
<path d="M142.294 181.05C105.168 172.306 70.8393 94.3761 42.955 161.737C45.1768 108.54 14.0648 112.543 19.8793 155.086C27.2921 209.326 113.338 228.797 142.294 181.05Z" fill="url(#paint36_radial_4_15405)"/>
<path d="M142.294 181.05C105.168 172.306 70.8393 94.3761 42.955 161.737C45.1768 108.54 14.0648 112.543 19.8793 155.086C27.2921 209.326 113.338 228.797 142.294 181.05Z" stroke="#F76A9E" stroke-width="8" stroke-linecap="round" stroke-linejoin="round"/>
<path d="M113.246 178.18C77.3168 136.521 61.2321 136.596 39.9755 176.716C37.9916 113.206 19.0712 136.673 27.6308 164.007C38.8856 193.141 79.8665 210.976 113.246 178.18Z" fill="url(#paint37_linear_4_15405)"/>
<path d="M138.074 187.698C142.403 210.029 52.8654 244.422 27.8574 187.12C46.2554 195.975 89.7223 165.252 138.074 187.698Z" fill="url(#paint38_linear_4_15405)"/>
<path d="M138.074 187.698C142.403 210.029 52.8654 244.422 27.8574 187.12C46.2554 195.975 89.7223 165.252 138.074 187.698Z" stroke="url(#paint39_linear_4_15405)" stroke-width="8" stroke-linecap="round" stroke-linejoin="round"/>
<path d="M135 83.2505C135 96.5005 119.999 118.001 121.499 133.001C105.749 130.001 109.75 180.251 141 195.501C176.75 180.001 174 92.5007 135 83.2505Z" fill="url(#paint40_linear_4_15405)"/>
<path d="M135 83.2505C135 96.5005 119.999 118.001 121.499 133.001C105.749 130.001 109.75 180.251 141 195.501C176.75 180.001 174 92.5007 135 83.2505Z" stroke="url(#paint41_linear_4_15405)" stroke-width="8" stroke-linecap="round" stroke-linejoin="round"/>
<path d="M247.083 143.358C212.112 118.733 142.793 149.48 177.04 180.406C141.729 252.353 357.957 205.526 247.083 143.358Z" fill="url(#paint42_linear_4_15405)"/>
<path d="M247.083 143.358C212.112 118.733 142.793 149.48 177.04 180.406C141.729 252.353 357.957 205.526 247.083 143.358Z" stroke="#9D194E" stroke-width="8" stroke-linecap="round" stroke-linejoin="round"/>
<g opacity="0.53">
<path d="M262.119 152.964C202.359 111.782 154.215 159.89 189.107 174.364C173.662 230.538 325.078 209.088 262.119 152.964Z" fill="url(#paint43_linear_4_15405)"/>
</g>
<path d="M267.818 132.764C186.181 192.156 340.365 238.177 351.393 164.945C362.815 154.972 363.919 145.043 356.717 140.045C381.254 116.165 342.029 88.3575 267.818 132.764Z" fill="url(#paint44_linear_4_15405)"/>
<path d="M267.818 132.764C186.181 192.156 340.365 238.177 351.393 164.945C362.815 154.972 363.919 145.043 356.717 140.045C381.254 116.165 342.029 88.3575 267.818 132.764Z" stroke="#DE467E" stroke-width="8" stroke-linecap="round" stroke-linejoin="round"/>
<path d="M261.461 135.107C206.617 203.066 337.655 213.417 340.588 157.104C352.568 153.417 356.718 140.045 345.933 136.135C368.432 114.73 310.405 102.067 261.461 135.107Z" fill="url(#paint45_linear_4_15405)"/>
<path d="M281.639 142.808C119.008 113.29 244.919 -24.6566 243.899 79.6124C257.426 40.1074 283.755 30.1164 297.307 52.8174C324.713 30.7284 371.606 126.505 281.639 142.808Z" fill="#FFA2CA"/>
<path d="M281.639 142.808C119.008 113.29 244.919 -24.6566 243.899 79.6124C257.426 40.1074 283.755 30.1164 297.307 52.8174C324.713 30.7284 371.606 126.505 281.639 142.808Z" stroke="#E34F8A" stroke-width="8" stroke-linecap="round" stroke-linejoin="round"/>
<path d="M206.564 167.831C307.266 139.069 190.937 8.48711 167.211 92.9661C129.775 79.1661 161.23 185.428 206.564 167.831Z" fill="url(#paint46_radial_4_15405)"/>
<path d="M206.564 167.831C307.266 139.069 190.937 8.48711 167.211 92.9661C129.775 79.1661 161.23 185.428 206.564 167.831Z" stroke="#F76B9F" stroke-width="8" stroke-linecap="round" stroke-linejoin="round"/>
<path d="M212.467 165.936C292.961 146.772 199.649 35.5642 185.183 101.277C149.244 88.1552 145.718 156.786 212.467 165.936Z" fill="url(#paint47_linear_4_15405)"/>
<path d="M272.019 169.039C325.845 194.342 345.303 143.359 337.441 139.293C315.732 162.214 272.019 169.039 272.019 169.039Z" fill="#FF9FBD"/>
<path d="M272.019 169.039C325.845 194.342 345.303 143.359 337.441 139.293C315.732 162.214 272.019 169.039 272.019 169.039Z" stroke="#FB83AE" stroke-width="8" stroke-linecap="round" stroke-linejoin="round"/>
<path d="M226.825 58.1323C232.603 79.1473 223.528 121.14 250.933 124.384C270.299 126.676 278.345 97.5143 287.912 67.6623C281.91 42.5143 226.464 45.2573 226.825 58.1323Z" fill="url(#paint48_radial_4_15405)"/>
<path d="M226.825 58.1323C232.603 79.1473 223.528 121.14 250.933 124.384C270.299 126.676 278.345 97.5143 287.912 67.6623C281.91 42.5143 226.464 45.2573 226.825 58.1323Z" stroke="#D62D86" stroke-width="8" stroke-linecap="round" stroke-linejoin="round"/>
<path d="M249.02 137.859C225.544 147.319 195.171 105.59 199.575 89.5287C204.62 74.7767 232.737 60.3777 247.074 73.5377C240.683 104.611 265.416 131.252 249.02 137.859Z" fill="url(#paint49_radial_4_15405)"/>
<path d="M249.02 137.859C225.544 147.319 195.171 105.59 199.575 89.5287C204.62 74.7767 232.737 60.3777 247.074 73.5377C240.683 104.611 265.416 131.252 249.02 137.859Z" stroke="#D62D86" stroke-width="8" stroke-linecap="round" stroke-linejoin="round"/>
<path d="M199.751 100.463C201.879 85.6431 227.917 94.5371 228.82 75.1711C241.503 87.3001 257.23 80.4091 249.58 69.1801C236.445 52.7741 187.857 61.5351 199.751 100.463Z" fill="#F791C0"/>
<path d="M199.751 100.463C201.879 85.6431 227.917 94.5371 228.82 75.1711C241.503 87.3001 257.23 80.4091 249.58 69.1801C236.445 52.7741 187.857 61.5351 199.751 100.463Z" stroke="#F6689D" stroke-width="8" stroke-linecap="round" stroke-linejoin="round"/>
<path d="M202.642 84.4819C206.285 78.5229 222.097 88.3479 226.058 69.5109C237.842 75.1389 250.732 77.4579 244.853 69.7109C231.538 61.0489 205.698 65.8999 202.642 84.4819Z" fill="url(#paint50_linear_4_15405)"/>
<path d="M257.219 87.7492C258.403 111.386 245.777 131.918 258.587 141.608C272.885 152.424 305.115 150.82 319.271 108.068C319.027 80.1052 260.582 74.3962 257.219 87.7492Z" fill="url(#paint51_radial_4_15405)"/>
<path d="M257.219 87.7492C258.403 111.386 245.777 131.918 258.587 141.608C272.885 152.424 305.115 150.82 319.271 108.068C319.027 80.1052 260.582 74.3962 257.219 87.7492Z" stroke="#D62D86" stroke-width="8" stroke-linecap="round" stroke-linejoin="round"/>
<path d="M319.271 108.068C321.813 73.0623 268.109 50.9643 254.308 76.5263C246.218 97.0233 272.293 91.3963 282.006 93.2083C302.231 113.669 311.477 100.48 319.271 108.068Z" fill="#FFB6DB"/>
<path d="M319.271 108.068C321.813 73.0623 268.109 50.9643 254.308 76.5263C246.218 97.0233 272.293 91.3963 282.006 93.2083C302.231 113.669 311.477 100.48 319.271 108.068Z" stroke="#FF85B1" stroke-width="8" stroke-linecap="round" stroke-linejoin="round"/>
<path d="M262.509 83.9515C269.437 89.6605 282.079 85.1065 284.734 87.9675C307.763 112.787 321.41 87.9985 296.655 75.8945C264.39 60.1175 258.29 80.4745 262.509 83.9515Z" fill="url(#paint52_linear_4_15405)"/>
<path d="M251.113 103.14C246.711 118.664 256.179 137.954 260.502 140.241C264.825 142.528 273.689 126.321 278.433 104.563" stroke="#FFE239" stroke-width="8" stroke-linecap="round" stroke-linejoin="round"/>
<path d="M270.513 98.1904C271.776 115.781 260.393 134.829 258.118 135.435C255.843 136.041 243.672 118.567 238.795 100.554" stroke="#FFB133" stroke-width="8" stroke-linecap="round" stroke-linejoin="round"/>
<path d="M266.836 106.55C259.605 114.202 256.224 137.327 254.43 136.712C252.636 136.097 241.059 114.07 230.448 111.664" stroke="#FFDA3E" stroke-width="8" stroke-linecap="round" stroke-linejoin="round"/>
<path d="M255.378 169.445C322.859 190.761 346.613 81.7977 305.289 76.3447C294.893 79.1037 301.995 104.835 306.746 112.733C272.293 91.3957 272.678 145.716 255.378 169.445Z" fill="url(#paint53_radial_4_15405)"/>
<path d="M255.378 169.445C322.859 190.761 346.613 81.7977 305.289 76.3447C294.893 79.1037 301.995 104.835 306.746 112.733C272.293 91.3957 272.678 145.716 255.378 169.445Z" stroke="url(#paint54_linear_4_15405)" stroke-width="8" stroke-linecap="round" stroke-linejoin="round"/>
<path d="M307.234 82.9814C303.661 102.09 313.78 108.582 311.599 115.186C309.205 122.435 300.342 111.646 289.295 118.457C275.706 126.836 274.435 167.446 295.376 153.595C319.132 137.882 328.898 96.8454 307.234 82.9814Z" fill="url(#paint55_linear_4_15405)"/>
<path d="M214.945 118.346C210.764 75.4086 184.367 87.3156 185.774 112.94C188.837 168.707 234.035 184.293 274.522 173.91C283.284 135.016 258.246 114.386 239.516 132.718C240.116 121.839 223.709 109.58 214.945 118.346Z" fill="url(#paint56_radial_4_15405)"/>
<path d="M214.945 118.346C210.764 75.4086 184.367 87.3156 185.774 112.94C188.837 168.707 234.035 184.293 274.522 173.91C283.284 135.016 258.246 114.386 239.516 132.718C240.116 121.839 223.709 109.58 214.945 118.346Z" stroke="url(#paint57_linear_4_15405)" stroke-width="8" stroke-linecap="round" stroke-linejoin="round"/>
<path d="M212.365 129.257C203.976 80.7307 191.301 99.9347 192.634 117.46C195.535 155.601 234.71 174.779 268.204 167.944C275.215 141.414 252.852 120.32 236.676 143.515C231.726 121.594 218.039 117.232 212.365 129.257Z" fill="url(#paint58_linear_4_15405)"/>
<path d="M152.601 122.557C153.946 147.382 183.706 190.49 226.353 174.586C186.278 173.705 168.603 88.5626 152.601 122.557Z" fill="#FFBAD9"/>
<path d="M152.601 122.557C153.946 147.382 183.706 190.49 226.353 174.586C186.278 173.705 168.603 88.5626 152.601 122.557Z" stroke="#EE669A" stroke-width="8" stroke-linecap="round" stroke-linejoin="round"/>
<path d="M286.878 63.5214C278.822 35.9404 230.465 33.2144 225.81 58.5804C243.391 59.1914 279.684 58.6184 286.878 63.5214Z" fill="#FFD4EA"/>
<path d="M286.878 63.5214C278.822 35.9404 230.465 33.2144 225.81 58.5804C243.391 59.1914 279.684 58.6184 286.878 63.5214Z" stroke="#ED5B91" stroke-width="8" stroke-linecap="round" stroke-linejoin="round"/>
<path d="M178.212 302.285C93.8347 429.537 6.79471 330.061 77.3107 332.399C-0.680298 284.164 132.094 161.35 178.212 302.285Z" fill="#FF6CAB"/>
<path d="M178.212 302.285C93.8347 429.537 6.79471 330.061 77.3107 332.399C-0.680298 284.164 132.094 161.35 178.212 302.285Z" stroke="#E24A80" stroke-width="8" stroke-linecap="round" stroke-linejoin="round"/>
<path d="M178.212 302.286C218.506 266.612 161.714 188.908 105.987 186.499C34.4297 190.676 140.244 311.525 178.212 302.286Z" fill="#FFA3CD"/>
<path d="M178.212 302.286C218.506 266.612 161.714 188.908 105.987 186.499C34.4297 190.676 140.244 311.525 178.212 302.286Z" stroke="#EE5190" stroke-width="8" stroke-linecap="round" stroke-linejoin="round"/>
<path d="M51.4419 256.34C45.3559 197.074 118.679 233.187 149.699 277.394C163.63 297.247 138.529 343.919 115.9 343.852C69.3039 357.721 5.98991 285.44 51.4419 256.34Z" fill="url(#paint59_radial_4_15405)"/>
<path d="M51.4419 256.34C45.3559 197.074 118.679 233.187 149.699 277.394C163.63 297.247 138.529 343.919 115.9 343.852C69.3039 357.721 5.98991 285.44 51.4419 256.34Z" stroke="#DD3571" stroke-width="8" stroke-linecap="round" stroke-linejoin="round"/>
<path d="M199.602 293.616C160.446 427.288 8.13289 375.448 128.302 342.674C104.637 322.871 177.548 311.619 199.602 293.616Z" fill="url(#paint60_radial_4_15405)"/>
<path d="M199.602 293.616C160.446 427.288 8.13288 375.448 128.302 342.674C104.637 322.871 177.548 311.619 199.602 293.616Z" stroke="url(#paint61_linear_4_15405)" stroke-width="8" stroke-linecap="round" stroke-linejoin="round"/>
<g opacity="0.7">
<path d="M196.892 299.401C174.847 380.566 85.791 379.55 140.833 344.808C124.89 327.346 172.147 317.92 196.892 299.401Z" fill="url(#paint62_linear_4_15405)"/>
</g>
<path d="M136.766 267.993C150.271 240.356 123.154 204.522 87.7777 210.769C45.3558 228.761 66.4467 261.931 85.8117 264.936C117.662 269.878 127.334 287.295 136.766 267.993Z" fill="#FFB4D7"/>
<path d="M136.766 267.993C150.271 240.356 123.154 204.522 87.7777 210.769C45.3558 228.761 66.4467 261.931 85.8117 264.936C117.662 269.878 127.334 287.295 136.766 267.993Z" stroke="#E8588F" stroke-width="8" stroke-linecap="round" stroke-linejoin="round"/>
<path d="M152.817 264.497C151.993 248.391 89.7677 254.009 101.698 224.243C89.7677 227.07 88.7497 220.215 72.4497 219.133C101.697 190.524 168.887 211.272 152.817 264.497Z" fill="url(#paint63_radial_4_15405)"/>
<path d="M152.817 264.497C151.993 248.391 89.7677 254.009 101.698 224.243C89.7677 227.07 88.7497 220.215 72.4497 219.133C101.697 190.524 168.887 211.272 152.817 264.497Z" stroke="#E8588F" stroke-width="8" stroke-linecap="round" stroke-linejoin="round"/>
<path d="M98.4781 258.783C110.197 273.583 138.564 271.619 141.085 276.93C143.606 282.241 110.804 291.018 97.7261 290.515" stroke="#FFE239" stroke-width="8" stroke-linecap="round" stroke-linejoin="round"/>
<path d="M110.804 291.018C129.077 282.85 143.81 279.578 144.502 276.811C145.194 274.044 114.983 259.017 109.59 256.148" stroke="#FFF38F" stroke-width="8" stroke-linecap="round" stroke-linejoin="round"/>
<path d="M107.859 275.367C125.516 272.447 143.816 271.144 143.143 268.945C142.47 266.746 125.093 249.782 109.203 245.033" stroke="#FFDA3E" stroke-width="8" stroke-linecap="round" stroke-linejoin="round"/>
<path d="M183.751 295.176C149.699 371.704 53.2858 334.709 72.8508 282.911C81.7228 263.865 98.1478 264.497 101.698 279.025C133.113 243.466 145.817 303.845 183.751 295.176Z" fill="url(#paint64_radial_4_15405)"/>
<path d="M183.751 295.176C149.699 371.704 53.2858 334.709 72.8508 282.911C81.7228 263.865 98.1478 264.497 101.698 279.025C133.113 243.466 145.817 303.845 183.751 295.176Z" stroke="url(#paint65_linear_4_15405)" stroke-width="8" stroke-linecap="round" stroke-linejoin="round"/>
<g opacity="0.64">
<path d="M84.4416 275.227C98.9426 269.386 95.8386 292.671 102.822 285.45C131.575 255.716 154.07 300.916 142.447 317.321C123.154 344.551 94.8476 333.325 82.7106 314.414C70.0466 294.683 78.7896 277.504 84.4416 275.227Z" fill="url(#paint66_linear_4_15405)"/>
</g>
<path d="M162.793 311.185C136.766 377.919 55.7029 337.091 46.4849 311.185C54.7529 309.954 81.2529 310.839 93.8319 331.292C96.0969 290.522 136.766 305.815 162.793 311.185Z" fill="#FFBDDB"/>
<path d="M162.793 311.185C136.766 377.919 55.7029 337.091 46.4849 311.185C54.7529 309.954 81.2529 310.839 93.8319 331.292C96.0969 290.522 136.766 305.815 162.793 311.185Z" stroke="#FF85B1" stroke-width="8" stroke-linecap="round" stroke-linejoin="round"/>
<path d="M137.597 297.024C95.6348 324.672 130.995 362.385 170.807 337.823C182.719 330.474 199.522 319.498 202.744 286.416C210.853 203.162 75.8318 164.283 136.766 230.807C128.725 233.465 131.049 244.645 149.042 251.996C138.707 247.774 123.154 275.217 137.597 297.024Z" fill="url(#paint67_linear_4_15405)"/>
<path d="M137.597 297.024C95.6348 324.672 130.995 362.385 170.807 337.823C182.719 330.474 199.522 319.498 202.744 286.416C210.853 203.162 75.8318 164.283 136.766 230.807C128.725 233.465 131.049 244.645 149.042 251.996C138.707 247.774 123.154 275.217 137.597 297.024Z" stroke="url(#paint68_linear_4_15405)" stroke-width="8" stroke-linecap="round" stroke-linejoin="round"/>
<g opacity="0.34">
<path d="M145.631 299.4C106.5 322.999 141.999 362.999 168.824 290.848C177.999 262.999 110.887 241.388 145.631 299.4Z" fill="url(#paint69_linear_4_15405)"/>
</g>
<path d="M202.744 286.415C210.853 203.161 128.302 164.445 96.0967 188.106C128.302 191.287 142.03 212.453 160.023 219.804C149.699 224.305 145.142 244.644 166.151 260.519C160.023 288.215 200.73 307.091 202.744 286.415Z" fill="url(#paint70_radial_4_15405)"/>
<path d="M202.744 286.415C210.853 203.161 128.302 164.445 96.0967 188.106C128.302 191.287 142.03 212.453 160.023 219.804C149.699 224.305 145.142 244.644 166.151 260.519C160.023 288.215 200.73 307.091 202.744 286.415Z" stroke="url(#paint71_linear_4_15405)" stroke-width="8" stroke-linecap="round" stroke-linejoin="round"/>
<path d="M203.358 273.788C217.685 221.382 186.023 188.78 160.888 190.598C156.109 213.39 206.032 232.155 203.358 273.788Z" fill="#F35292"/>
<path d="M203.358 273.788C217.685 221.382 186.023 188.78 160.888 190.598C156.109 213.39 206.032 232.155 203.358 273.788Z" stroke="#B62E5A" stroke-width="8" stroke-linecap="round" stroke-linejoin="round"/>
<path d="M276.967 296.846C256.325 262.98 179.027 226.338 183.911 268.193C165.71 273.004 169.355 304.556 200.94 328.13C185.271 357.288 323.666 390.143 276.967 296.846Z" fill="url(#paint72_radial_4_15405)"/>
<path d="M276.967 296.846C256.325 262.98 179.027 226.338 183.911 268.193C165.71 273.004 169.355 304.556 200.94 328.13C185.271 357.288 323.666 390.143 276.967 296.846Z" stroke="url(#paint73_linear_4_15405)" stroke-width="8" stroke-linecap="round" stroke-linejoin="round"/>
<g opacity="0.72">
<path d="M284.329 315.194C261.455 266.467 200.954 228.282 195.343 276.158C172.958 283.595 189.45 310.664 209.455 325.752C179.725 350.417 303.945 386.844 284.329 315.194Z" fill="url(#paint74_linear_4_15405)"/>
</g>
<path d="M294.551 300.835C205.098 366.616 327.033 416.22 324.78 366.819C364.711 387.07 385.016 367.484 387.137 355.924C410.88 349.015 425.788 325.11 409.08 315.792C435.992 289.32 375.824 251.687 294.551 300.835Z" fill="url(#paint75_radial_4_15405)"/>
<path d="M294.551 300.835C205.098 366.616 327.033 416.22 324.78 366.819C364.711 387.07 385.016 367.484 387.137 355.924C410.88 349.015 425.788 325.11 409.08 315.792C435.992 289.32 375.824 251.687 294.551 300.835Z" stroke="#CF416F" stroke-width="8" stroke-linecap="round" stroke-linejoin="round"/>
<path d="M292.181 297.885C223.397 387.883 327.898 390.369 335.476 340.909C378.7 364.263 407.902 325.076 392.557 316.697C417.233 292.97 351.913 250.483 292.181 297.885Z" fill="url(#paint76_linear_4_15405)"/>
<path d="M307.894 283.456C224.093 339.342 335.941 411.397 362.509 343.434C430.196 307.225 340.725 257.309 307.894 283.456Z" fill="url(#paint77_radial_4_15405)"/>
<path d="M307.894 283.456C224.093 339.342 335.941 411.397 362.509 343.434C430.196 307.225 340.725 257.309 307.894 283.456Z" stroke="#EB6698" stroke-width="8" stroke-linecap="round" stroke-linejoin="round"/>
<path d="M305.39 294.452C203.178 214.502 298.617 134.006 326.023 205.221C362.267 170.622 403.149 203.899 398.382 244.038C445.308 253.233 371.837 350.133 305.39 294.452Z" fill="url(#paint78_radial_4_15405)"/>
<path d="M305.39 294.452C203.178 214.502 298.617 134.006 326.023 205.221C362.267 170.622 403.149 203.899 398.382 244.038C445.308 253.233 371.837 350.133 305.39 294.452Z" stroke="#E35785" stroke-width="8" stroke-linecap="round" stroke-linejoin="round"/>
<path d="M287.895 282.753C202.556 340.327 178.851 230.894 209.459 228.156C212.709 207.199 226.721 197.092 235.374 203.718C248.628 180.447 303.918 185.391 287.895 282.753Z" fill="url(#paint79_radial_4_15405)"/>
<path d="M287.895 282.753C202.556 340.327 178.851 230.894 209.459 228.156C212.709 207.199 226.721 197.092 235.374 203.718C248.628 180.447 303.918 185.391 287.895 282.753Z" stroke="url(#paint80_linear_4_15405)" stroke-width="8" stroke-linecap="round" stroke-linejoin="round"/>
<g opacity="0.54">
<path d="M287.852 283.654C233.207 329.388 178.681 250.349 222.331 240.848C235.865 180.076 300.757 214.327 287.852 283.654Z" fill="url(#paint81_linear_4_15405)"/>
</g>
<path d="M219.872 292.135C236.923 297.651 265.975 305.704 303.118 275.44C288.408 293.849 287.194 329.409 301.101 349.109C260.849 366.258 218.719 316.275 219.872 292.135Z" fill="#E55F95"/>
<path d="M219.872 292.135C236.923 297.651 265.975 305.704 303.118 275.44C288.408 293.849 287.194 329.409 301.101 349.109C260.849 366.258 218.719 316.275 219.872 292.135Z" stroke="#C73464" stroke-width="8" stroke-linecap="round" stroke-linejoin="round"/>
<path d="M309.336 273.918C276.841 272.366 263.352 215.934 277.007 201.818C290.72 189.324 331.263 188.086 341.089 208.131C317.165 236.448 332.031 275.002 309.336 273.918Z" fill="url(#paint82_linear_4_15405)"/>
<path d="M309.336 273.918C276.841 272.366 263.352 215.934 277.007 201.818C290.72 189.324 331.263 188.086 341.089 208.131C317.165 236.448 332.031 275.002 309.336 273.918Z" stroke="#B93268" stroke-width="8" stroke-linecap="round" stroke-linejoin="round"/>
<path d="M271.427 212.927C281.76 198.986 307.546 220.257 318.851 201.153C327.286 219.377 349.348 219.858 346.331 204.92C339.629 182.17 278.095 168.049 271.427 212.927Z" fill="url(#paint83_radial_4_15405)"/>
<path d="M271.427 212.927C281.76 198.986 307.546 220.257 318.851 201.153C327.286 219.377 349.348 219.858 346.331 204.92C339.629 182.17 278.095 168.049 271.427 212.927Z" stroke="#FF85B0" stroke-width="8" stroke-linecap="round" stroke-linejoin="round"/>
<path d="M283.268 198.177C290.687 193.888 304.004 211.267 318.609 194.141C329.431 205.384 343.298 213.813 340.513 203.222C329.504 188.196 296.678 180.882 283.268 198.177Z" fill="url(#paint84_linear_4_15405)"/>
<path d="M347.362 218.212C343.477 264.694 303.511 257.976 306.464 281.013C309.418 304.051 355.403 330.653 372.625 276.965C378.903 251.992 362.388 218.93 347.362 218.212Z" fill="#CD3974"/>
<path d="M347.362 218.212C343.477 264.694 303.511 257.976 306.464 281.013C309.418 304.051 355.403 330.653 372.625 276.965C378.903 251.992 362.388 218.93 347.362 218.212Z" stroke="#AE2A5F" stroke-width="8" stroke-linecap="round" stroke-linejoin="round"/>
<path d="M345.116 308.499C393.456 294.122 395.662 211.78 354.394 204.203C330.7 199.912 334.687 220.232 344.362 224.513C340.12 228.631 339.9 239.97 349.816 244.708C329.451 268.962 365.098 276.58 345.116 308.499Z" fill="url(#paint85_radial_4_15405)"/>
<path d="M345.116 308.499C393.456 294.122 395.662 211.78 354.394 204.203C330.7 199.912 334.687 220.232 344.362 224.513C340.12 228.631 339.9 239.97 349.816 244.708C329.451 268.962 365.098 276.58 345.116 308.499Z" stroke="url(#paint86_linear_4_15405)" stroke-width="8" stroke-linecap="round" stroke-linejoin="round"/>
<path d="M342.999 209.849C338.375 218.653 353.366 219.891 350.953 223.47C340.103 239.574 360.777 241.544 354.348 247.647C350.044 251.733 344.465 269.758 363.347 267.645C377.364 266.077 378.529 241.337 375.66 231.773C368.751 208.739 345.816 204.487 342.999 209.849Z" fill="url(#paint87_linear_4_15405)"/>
<path d="M273.59 201.061C264.462 257.941 302.907 252.832 303.118 275.439C303.362 301.741 252.974 303.343 243.51 280.784C233.324 258.164 255.717 200.239 273.59 201.061Z" fill="#CD3874"/>
<path d="M273.59 201.061C264.462 257.941 302.907 252.832 303.118 275.439C303.362 301.741 252.974 303.343 243.51 280.784C233.324 258.164 255.717 200.239 273.59 201.061Z" stroke="#C0316A" stroke-width="8" stroke-linecap="round" stroke-linejoin="round"/>
<path d="M269.644 296.615C197.222 285.598 237.19 182.206 281.85 189.069C286.538 196.771 268.098 217.996 258.72 222.733C284.886 231.392 238.522 275.429 269.644 296.615Z" fill="url(#paint88_radial_4_15405)"/>
<path d="M269.644 296.615C197.222 285.598 237.19 182.206 281.85 189.069C286.538 196.771 268.098 217.996 258.72 222.733C284.886 231.392 238.522 275.429 269.644 296.615Z" stroke="url(#paint89_linear_4_15405)" stroke-width="8" stroke-linecap="round" stroke-linejoin="round"/>
<path d="M275.981 194.236C268.098 214.428 254.283 214.722 252.488 222.248C250.518 230.509 259.045 226.687 261.259 232.092C265.531 242.526 249.686 265.9 240.352 255.897C230.077 244.886 246.422 194.828 275.981 194.236Z" fill="url(#paint90_linear_4_15405)"/>
<path d="M308.971 276.031C285.136 278.298 273.249 301 263.917 301.11C293.25 323.918 325.622 329.072 356.583 296.661C344.5 295.5 331.593 273.879 308.971 276.031Z" fill="#DF558C"/>
<path d="M308.971 276.031C285.136 278.298 273.249 301 263.917 301.11C293.25 323.918 325.622 329.072 356.583 296.661C344.5 295.5 331.593 273.879 308.971 276.031Z" stroke="#AE2A5F" stroke-width="8" stroke-linecap="round" stroke-linejoin="round"/>
<path d="M287.633 238.309C300.69 250.104 298.467 278.348 303.18 280.902C307.893 283.455 321.294 251.087 326.513 241.681" stroke="#FFE239" stroke-width="8" stroke-linecap="round" stroke-linejoin="round"/>
<path d="M310.508 238.554C300.73 253.661 307.894 283.456 307.894 283.456C307.894 283.456 328.953 255.758 332.838 256.243" stroke="#FFC41D" stroke-width="8" stroke-linecap="round" stroke-linejoin="round"/>
<path d="M316.288 250.848C314.891 259.662 305.507 283.639 303.018 284.305C300.529 284.972 287.572 254.755 285.092 249.359" stroke="#FFB133" stroke-width="8" stroke-linecap="round" stroke-linejoin="round"/>
<path d="M302.326 247.789C299.423 265.356 297.956 283.576 295.999 282.887C294.042 282.199 279.139 264.752 275.148 248.884" stroke="#FFDA3E" stroke-width="8" stroke-linecap="round" stroke-linejoin="round"/>
<path d="M317.982 294.966C323.335 255.32 354.684 258.26 359.819 273.774C391.398 259.699 360.999 327.921 305.186 325.184C217.355 320.876 241.063 217.986 286.097 264.916C299.146 253.906 318.22 268.349 317.982 294.966Z" fill="url(#paint91_radial_4_15405)"/>
<path d="M317.982 294.966C323.335 255.32 354.684 258.26 359.819 273.774C391.398 259.699 360.999 327.921 305.186 325.184C217.355 320.876 241.063 217.986 286.097 264.916C299.146 253.906 318.22 268.349 317.982 294.966Z" stroke="url(#paint92_linear_4_15405)" stroke-width="8" stroke-linecap="round" stroke-linejoin="round"/>
<path d="M316.606 302.181C330.627 304.859 318.812 274.409 341.295 270.124C355.782 267.363 350.394 282.107 357.192 278.876C375.048 270.388 359.457 312.681 306.147 313.286C250.717 308.957 244.194 267.238 259.312 259.709C272.128 253.328 279.777 269.633 284.88 270.602C290.499 271.668 296.126 258.619 308.043 275.885C314.073 284.62 308.065 300.55 316.606 302.181Z" fill="url(#paint93_linear_4_15405)"/>
<path d="M303.501 332.779C347.501 356 406.749 318.001 387.338 282.73C369.75 279.751 331.5 334.751 303.501 332.779Z" fill="#FFC6DC"/>
<path d="M303.501 332.779C347.501 356 406.749 318.001 387.338 282.73C369.75 279.751 331.5 334.751 303.501 332.779Z" stroke="#FF6DA7" stroke-width="8" stroke-linecap="round" stroke-linejoin="round"/>
<path d="M247.585 316.524C237.214 282.094 202.154 276.484 208.072 304.349C215.133 337.594 264.716 374.413 313.561 355.188C318.472 352.039 289.561 340.506 273.33 343.245C274.034 331.158 262.699 314.262 247.585 316.524Z" fill="url(#paint94_radial_4_15405)"/>
<path d="M247.585 316.524C237.214 282.094 202.154 276.484 208.072 304.349C215.133 337.594 264.716 374.413 313.561 355.188C318.472 352.039 289.561 340.506 273.33 343.245C274.034 331.158 262.699 314.262 247.585 316.524Z" stroke="url(#paint95_linear_4_15405)" stroke-width="8" stroke-linecap="round" stroke-linejoin="round"/>
</g>
</g>
<defs>
<linearGradient id="paint0_linear_4_15405" x1="354.463" y1="450.986" x2="153.963" y2="451.486" gradientUnits="userSpaceOnUse">
<stop stop-color="#649EFF"/>
<stop offset="0.19" stop-color="#8DBAFF"/>
<stop offset="0.5" stop-color="#B7D7FF"/>
<stop offset="0.81" stop-color="#8DBBFF"/>
<stop offset="1" stop-color="#649EFF"/>
</linearGradient>
<linearGradient id="paint1_linear_4_15405" x1="182" y1="392" x2="213.5" y2="418.5" gradientUnits="userSpaceOnUse">
<stop stop-color="#00296C"/>
<stop offset="0.5" stop-color="#00296C" stop-opacity="0.5"/>
<stop offset="1" stop-color="#00296C" stop-opacity="0"/>
</linearGradient>
<linearGradient id="paint2_linear_4_15405" x1="321" y1="395.001" x2="296" y2="416.001" gradientUnits="userSpaceOnUse">
<stop stop-color="#00296C"/>
<stop offset="0.5" stop-color="#00296C" stop-opacity="0.5"/>
<stop offset="1" stop-color="#00296C" stop-opacity="0"/>
</linearGradient>
<linearGradient id="paint3_linear_4_15405" x1="154.75" y1="401.501" x2="354" y2="401.251" gradientUnits="userSpaceOnUse">
<stop offset="0.08" stop-color="#BC6A00"/>
<stop offset="0.23" stop-color="#DEA750"/>
<stop offset="0.5" stop-color="#FFE29F"/>
<stop offset="0.78" stop-color="#DEA650"/>
<stop offset="0.93" stop-color="#BD6A00"/>
</linearGradient>
<linearGradient id="paint4_linear_4_15405" x1="154.5" y1="398.001" x2="354" y2="397.501" gradientUnits="userSpaceOnUse">
<stop stop-color="#894100"/>
<stop offset="0.25" stop-color="#B25C00"/>
<stop offset="0.5" stop-color="#DB7700"/>
<stop offset="0.75" stop-color="#B25C00"/>
<stop offset="1" stop-color="#894000"/>
</linearGradient>
<linearGradient id="paint5_linear_4_15405" x1="276.5" y1="317.751" x2="262.5" y2="398.251" gradientUnits="userSpaceOnUse">
<stop stop-color="#00296C"/>
<stop offset="0.5" stop-color="#00296C" stop-opacity="0.5"/>
<stop offset="1" stop-color="#00296C" stop-opacity="0"/>
</linearGradient>
<linearGradient id="paint6_linear_4_15405" x1="249" y1="353.5" x2="225.5" y2="182" gradientUnits="userSpaceOnUse">
<stop stop-color="#00542D"/>
<stop offset="0.5" stop-color="#006B39"/>
<stop offset="1" stop-color="#008145"/>
</linearGradient>
<linearGradient id="paint7_linear_4_15405" x1="207" y1="187" x2="229" y2="357" gradientUnits="userSpaceOnUse">
<stop stop-color="#6AA809"/>
<stop offset="0.5" stop-color="#5E9705"/>
<stop offset="1" stop-color="#528600"/>
</linearGradient>
<linearGradient id="paint8_linear_4_15405" x1="165" y1="274" x2="267" y2="338" gradientUnits="userSpaceOnUse">
<stop stop-color="#099E3A"/>
<stop offset="0.5" stop-color="#079443"/>
<stop offset="1" stop-color="#058A4D"/>
</linearGradient>
<linearGradient id="paint9_linear_4_15405" x1="164.5" y1="292.5" x2="267.5" y2="336" gradientUnits="userSpaceOnUse">
<stop stop-color="#8FD03F"/>
<stop offset="0.5" stop-color="#6AC532"/>
<stop offset="1" stop-color="#44BA24"/>
</linearGradient>
<linearGradient id="paint10_linear_4_15405" x1="394.436" y1="435.769" x2="357.935" y2="367.623" gradientUnits="userSpaceOnUse">
<stop stop-color="#CFFF97"/>
<stop offset="0.5" stop-color="#9AD14B"/>
<stop offset="1" stop-color="#64A300"/>
</linearGradient>
<linearGradient id="paint11_linear_4_15405" x1="407.006" y1="431.203" x2="369.119" y2="371.234" gradientUnits="userSpaceOnUse">
<stop stop-color="#39B54A"/>
<stop offset="0.5" stop-color="#1D8F42"/>
<stop offset="1" stop-color="#006939"/>
</linearGradient>
<linearGradient id="paint12_linear_4_15405" x1="185.432" y1="332.327" x2="170.606" y2="459.494" gradientUnits="userSpaceOnUse">
<stop stop-color="#64A300"/>
<stop offset="0.5" stop-color="#94D139"/>
<stop offset="1" stop-color="#C5FF73"/>
</linearGradient>
<linearGradient id="paint13_linear_4_15405" x1="195.743" y1="337.636" x2="167.295" y2="460.683" gradientUnits="userSpaceOnUse">
<stop offset="0.01" stop-color="#286E00"/>
<stop offset="0.5" stop-color="#428408"/>
<stop offset="1" stop-color="#5B9B10"/>
</linearGradient>
<linearGradient id="paint14_linear_4_15405" x1="416.278" y1="309.147" x2="470.692" y2="349.055" gradientUnits="userSpaceOnUse">
<stop stop-color="#7D8900"/>
<stop offset="0.5" stop-color="#ACBE2F"/>
<stop offset="1" stop-color="#DCF45E"/>
</linearGradient>
<linearGradient id="paint15_linear_4_15405" x1="402.554" y1="301.298" x2="479.708" y2="351.477" gradientUnits="userSpaceOnUse">
<stop stop-color="#4A6D02"/>
<stop offset="0.5" stop-color="#5E8F0F"/>
<stop offset="1" stop-color="#72B11C"/>
</linearGradient>
<linearGradient id="paint16_linear_4_15405" x1="80.0268" y1="415.721" x2="137.602" y2="354.483" gradientUnits="userSpaceOnUse">
<stop stop-color="#FBFFA5"/>
<stop offset="0.5" stop-color="#CADF53"/>
<stop offset="1" stop-color="#99BF00"/>
</linearGradient>
<linearGradient id="paint17_linear_4_15405" x1="68.0788" y1="404.133" x2="120.551" y2="346.613" gradientUnits="userSpaceOnUse">
<stop stop-color="#9AC003"/>
<stop offset="0.5" stop-color="#7C9C02"/>
<stop offset="1" stop-color="#5F7700"/>
</linearGradient>
<linearGradient id="paint18_linear_4_15405" x1="19.6942" y1="293.721" x2="103.397" y2="301.389" gradientUnits="userSpaceOnUse">
<stop stop-color="#B6E973"/>
<stop offset="0.5" stop-color="#8DC639"/>
<stop offset="1" stop-color="#64A300"/>
</linearGradient>
<linearGradient id="paint19_linear_4_15405" x1="20.913" y1="301.693" x2="105.979" y2="311.494" gradientUnits="userSpaceOnUse">
<stop stop-color="#42C754"/>
<stop offset="0.5" stop-color="#219746"/>
<stop offset="1" stop-color="#006838"/>
</linearGradient>
<linearGradient id="paint20_linear_4_15405" x1="407.738" y1="65.7873" x2="361.124" y2="124.673" gradientUnits="userSpaceOnUse">
<stop stop-color="#CFFF97"/>
<stop offset="0.5" stop-color="#9AD14B"/>
<stop offset="1" stop-color="#64A300"/>
</linearGradient>
<linearGradient id="paint21_linear_4_15405" x1="401.349" y1="54.8639" x2="356.459" y2="110.726" gradientUnits="userSpaceOnUse">
<stop stop-color="#39B54A"/>
<stop offset="0.5" stop-color="#1D8F41"/>
<stop offset="1" stop-color="#006838"/>
</linearGradient>
<radialGradient id="paint22_radial_4_15405" cx="0" cy="0" r="1" gradientUnits="userSpaceOnUse" gradientTransform="translate(456.906 155.796) rotate(45) scale(81.5891)">
<stop stop-color="#FFA9DA"/>
<stop offset="0.44" stop-color="#FF83C4"/>
<stop offset="0.88" stop-color="#FF5DAE"/>
</radialGradient>
<radialGradient id="paint23_radial_4_15405" cx="0" cy="0" r="1" gradientUnits="userSpaceOnUse" gradientTransform="translate(483.838 239.956) rotate(45) scale(102.959 102.959)">
<stop stop-color="#FFC6E1"/>
<stop offset="0.44" stop-color="#F88AB6"/>
<stop offset="0.88" stop-color="#F04E8B"/>
</radialGradient>
<linearGradient id="paint24_linear_4_15405" x1="455.188" y1="216.49" x2="436.213" y2="252.216" gradientUnits="userSpaceOnUse">
<stop offset="0.35" stop-color="#FF98BC"/>
<stop offset="0.68" stop-color="#F87AA7"/>
<stop offset="1" stop-color="#F15C92"/>
</linearGradient>
<linearGradient id="paint25_linear_4_15405" x1="463.131" y1="225.904" x2="448.152" y2="259.985" gradientUnits="userSpaceOnUse">
<stop offset="0.03" stop-color="#FE62A0"/>
<stop offset="0.52" stop-color="#E84886"/>
<stop offset="1" stop-color="#D22F6B"/>
</linearGradient>
<radialGradient id="paint26_radial_4_15405" cx="0" cy="0" r="1" gradientUnits="userSpaceOnUse" gradientTransform="translate(440.459 167.061) rotate(45) scale(73.4813)">
<stop stop-color="#FFD2E6"/>
<stop offset="0.5" stop-color="#F9A7CD"/>
<stop offset="1" stop-color="#F37CB4"/>
</radialGradient>
<linearGradient id="paint27_linear_4_15405" x1="427.277" y1="167.347" x2="376.111" y2="176.492" gradientUnits="userSpaceOnUse">
<stop stop-color="white"/>
<stop offset="0.5" stop-color="white" stop-opacity="0.5"/>
<stop offset="1" stop-color="white" stop-opacity="0"/>
</linearGradient>
<radialGradient id="paint28_radial_4_15405" cx="0" cy="0" r="1" gradientUnits="userSpaceOnUse" gradientTransform="translate(396.074 126.328) rotate(45) scale(107.197)">
<stop stop-color="#FF93C7"/>
<stop offset="0.44" stop-color="#D65A8E"/>
<stop offset="0.88" stop-color="#AD2055"/>
</radialGradient>
<linearGradient id="paint29_linear_4_15405" x1="397.574" y1="127.685" x2="349.395" y2="156.713" gradientUnits="userSpaceOnUse">
<stop stop-color="#EC5089"/>
<stop offset="0.44" stop-color="#C4356C"/>
<stop offset="0.88" stop-color="#9D194E"/>
</linearGradient>
<radialGradient id="paint30_radial_4_15405" cx="0" cy="0" r="1" gradientUnits="userSpaceOnUse" gradientTransform="translate(422.9 242.694) rotate(45) scale(68.0677 68.0677)">
<stop stop-color="#FF9ECD"/>
<stop offset="0.44" stop-color="#F97BB0"/>
<stop offset="0.88" stop-color="#F35793"/>
</radialGradient>
<linearGradient id="paint31_linear_4_15405" x1="455.27" y1="243.009" x2="408.81" y2="278.021" gradientUnits="userSpaceOnUse">
<stop stop-color="#DD3471"/>
<stop offset="0.44" stop-color="#BD2760"/>
<stop offset="0.88" stop-color="#9D194E"/>
</linearGradient>
<linearGradient id="paint32_linear_4_15405" x1="385.381" y1="271.264" x2="444.084" y2="236.194" gradientUnits="userSpaceOnUse">
<stop offset="0.05" stop-color="#9D194E"/>
<stop offset="0.45" stop-color="#9D194E" stop-opacity="0.5"/>
<stop offset="0.86" stop-color="#9D194E" stop-opacity="0"/>
</linearGradient>
<linearGradient id="paint33_linear_4_15405" x1="63.1534" y1="107.436" x2="123.024" y2="92.0099" gradientUnits="userSpaceOnUse">
<stop stop-color="white"/>
<stop offset="0.5" stop-color="white" stop-opacity="0.5"/>
<stop offset="1" stop-color="white" stop-opacity="0"/>
</linearGradient>
<linearGradient id="paint34_linear_4_15405" x1="65.7856" y1="108.59" x2="102.709" y2="143.185" gradientUnits="userSpaceOnUse">
<stop stop-color="#EA5E94"/>
<stop offset="0.5" stop-color="#D04678"/>
<stop offset="1" stop-color="#B62E5B"/>
</linearGradient>
<linearGradient id="paint35_linear_4_15405" x1="58.8051" y1="108.712" x2="112.956" y2="174.464" gradientUnits="userSpaceOnUse">
<stop stop-color="white"/>
<stop offset="0.5" stop-color="white" stop-opacity="0.5"/>
<stop offset="1" stop-color="white" stop-opacity="0"/>
</linearGradient>
<radialGradient id="paint36_radial_4_15405" cx="0" cy="0" r="1" gradientUnits="userSpaceOnUse" gradientTransform="translate(46.4628 129.941) rotate(-50) scale(80.6324 80.6324)">
<stop stop-color="#FFCEE6"/>
<stop offset="0.5" stop-color="#FF9AC3"/>
<stop offset="1" stop-color="#FF65A0"/>
</radialGradient>
<linearGradient id="paint37_linear_4_15405" x1="63.2433" y1="124.633" x2="75.9971" y2="209.01" gradientUnits="userSpaceOnUse">
<stop stop-color="white"/>
<stop offset="0.5" stop-color="white" stop-opacity="0.5"/>
<stop offset="1" stop-color="white" stop-opacity="0"/>
</linearGradient>
<linearGradient id="paint38_linear_4_15405" x1="38.1799" y1="211.757" x2="134.764" y2="201.701" gradientUnits="userSpaceOnUse">
<stop stop-color="#C6FFA8"/>
<stop offset="0.5" stop-color="#81D560"/>
<stop offset="1" stop-color="#3CAB1A"/>
</linearGradient>
<linearGradient id="paint39_linear_4_15405" x1="38.6889" y1="200.867" x2="126.105" y2="189.457" gradientUnits="userSpaceOnUse">
<stop stop-color="#49C077"/>
<stop offset="0.5" stop-color="#299A62"/>
<stop offset="1" stop-color="#08734D"/>
</linearGradient>
<linearGradient id="paint40_linear_4_15405" x1="138.295" y1="175.604" x2="136.824" y2="96.4999" gradientUnits="userSpaceOnUse">
<stop stop-color="#64A300"/>
<stop offset="0.5" stop-color="#8DC841"/>
<stop offset="1" stop-color="#B5EE81"/>
</linearGradient>
<linearGradient id="paint41_linear_4_15405" x1="147.295" y1="173.355" x2="145.324" y2="96.75" gradientUnits="userSpaceOnUse">
<stop stop-color="#006838"/>
<stop offset="0.5" stop-color="#1D8F41"/>
<stop offset="1" stop-color="#39B54A"/>
</linearGradient>
<linearGradient id="paint42_linear_4_15405" x1="173.606" y1="219.965" x2="224.662" y2="179.394" gradientUnits="userSpaceOnUse">
<stop stop-color="#FF65AF"/>
<stop offset="0.44" stop-color="#D54281"/>
<stop offset="0.88" stop-color="#AB1E52"/>
</linearGradient>
<linearGradient id="paint43_linear_4_15405" x1="230.456" y1="183.118" x2="199.827" y2="221.292" gradientUnits="userSpaceOnUse">
<stop offset="0.05" stop-color="#9D194E"/>
<stop offset="0.52" stop-color="#9D194E" stop-opacity="0.5"/>
<stop offset="1" stop-color="#9D194E" stop-opacity="0"/>
</linearGradient>
<linearGradient id="paint44_linear_4_15405" x1="384.051" y1="174.165" x2="307.247" y2="156.173" gradientUnits="userSpaceOnUse">
<stop stop-color="#FF91C8"/>
<stop offset="0.44" stop-color="#FF75B0"/>
<stop offset="0.88" stop-color="#FF5999"/>
</linearGradient>
<linearGradient id="paint45_linear_4_15405" x1="282.028" y1="148.864" x2="355.949" y2="171.62" gradientUnits="userSpaceOnUse">
<stop offset="0.05" stop-color="#D62D86"/>
<stop offset="0.45" stop-color="#D62D86" stop-opacity="0.5"/>
<stop offset="0.86" stop-color="#D62D86" stop-opacity="0"/>
</linearGradient>
<radialGradient id="paint46_radial_4_15405" cx="0" cy="0" r="1" gradientUnits="userSpaceOnUse" gradientTransform="translate(214.153 52.8521) scale(107.18 107.18)">
<stop stop-color="#FFD0E7"/>
<stop offset="0.44" stop-color="#FFAAD3"/>
<stop offset="0.88" stop-color="#FF84BE"/>
</radialGradient>
<linearGradient id="paint47_linear_4_15405" x1="195.929" y1="148.24" x2="165.268" y2="86.2772" gradientUnits="userSpaceOnUse">
<stop offset="0.05" stop-color="#D62D86"/>
<stop offset="0.45" stop-color="#D62D86" stop-opacity="0.5"/>
<stop offset="0.86" stop-color="#D62D86" stop-opacity="0"/>
</linearGradient>
<radialGradient id="paint48_radial_4_15405" cx="0" cy="0" r="1" gradientUnits="userSpaceOnUse" gradientTransform="translate(198.421 46.8763) scale(95.69 95.69)">
<stop stop-color="#F78FCD"/>
<stop offset="0.5" stop-color="#EA6EB1"/>
<stop offset="1" stop-color="#DD4E96"/>
</radialGradient>
<radialGradient id="paint49_radial_4_15405" cx="0" cy="0" r="1" gradientUnits="userSpaceOnUse" gradientTransform="translate(238.099 104.116) scale(35.934)">
<stop stop-color="#F78FCD"/>
<stop offset="0.5" stop-color="#EA6EB1"/>
<stop offset="1" stop-color="#DD4E96"/>
</radialGradient>
<linearGradient id="paint50_linear_4_15405" x1="228.439" y1="39.7609" x2="252.58" y2="67.5339" gradientUnits="userSpaceOnUse">
<stop stop-color="white"/>
<stop offset="0.5" stop-color="white" stop-opacity="0.5"/>
<stop offset="1" stop-color="white" stop-opacity="0"/>
</linearGradient>
<radialGradient id="paint51_radial_4_15405" cx="0" cy="0" r="1" gradientUnits="userSpaceOnUse" gradientTransform="translate(226.581 100.144) scale(77.5517)">
<stop stop-color="#F78FCD"/>
<stop offset="0.5" stop-color="#EA6EB1"/>
<stop offset="1" stop-color="#DD4E96"/>
</radialGradient>
<linearGradient id="paint52_linear_4_15405" x1="273.14" y1="94.6115" x2="295.656" y2="70.5066" gradientUnits="userSpaceOnUse">
<stop stop-color="white"/>
<stop offset="0.5" stop-color="white" stop-opacity="0.5"/>
<stop offset="1" stop-color="white" stop-opacity="0"/>
</linearGradient>
<radialGradient id="paint53_radial_4_15405" cx="0" cy="0" r="1" gradientUnits="userSpaceOnUse" gradientTransform="translate(308.43 91.5507) scale(70.9282 70.9282)">
<stop offset="0.41" stop-color="#FFB5D6"/>
<stop offset="0.7" stop-color="#FF9FCA"/>
<stop offset="1" stop-color="#FF89BE"/>
</radialGradient>
<linearGradient id="paint54_linear_4_15405" x1="310.045" y1="88.7747" x2="299.045" y2="152.275" gradientUnits="userSpaceOnUse">
<stop stop-color="#FF7DAE"/>
<stop offset="0.5" stop-color="#E9558F"/>
<stop offset="1" stop-color="#D32D70"/>
</linearGradient>
<linearGradient id="paint55_linear_4_15405" x1="309.565" y1="71.3674" x2="305.354" y2="170.902" gradientUnits="userSpaceOnUse">
<stop stop-color="white"/>
<stop offset="0.5" stop-color="white" stop-opacity="0.5"/>
<stop offset="1" stop-color="white" stop-opacity="0"/>
</linearGradient>
<radialGradient id="paint56_radial_4_15405" cx="0" cy="0" r="1" gradientUnits="userSpaceOnUse" gradientTransform="translate(229.155 115.869) scale(54.9353 54.9353)">
<stop offset="0.35" stop-color="#FFDEEE"/>
<stop offset="0.68" stop-color="#FFCAE4"/>
<stop offset="1" stop-color="#FFB6DB"/>
</radialGradient>
<linearGradient id="paint57_linear_4_15405" x1="238.022" y1="127.897" x2="248.022" y2="181.397" gradientUnits="userSpaceOnUse">
<stop stop-color="#FF7DAE"/>
<stop offset="0.5" stop-color="#ED5E96"/>
<stop offset="1" stop-color="#DC3F7E"/>
</linearGradient>
<linearGradient id="paint58_linear_4_15405" x1="237.583" y1="128.683" x2="236.364" y2="171.006" gradientUnits="userSpaceOnUse">
<stop stop-color="white"/>
<stop offset="0.5" stop-color="white" stop-opacity="0.5"/>
<stop offset="1" stop-color="white" stop-opacity="0"/>
</linearGradient>
<radialGradient id="paint59_radial_4_15405" cx="0" cy="0" r="1" gradientUnits="userSpaceOnUse" gradientTransform="translate(37.7069 261.409) scale(110.498 110.498)">
<stop stop-color="#FF83AD"/>
<stop offset="0.5" stop-color="#E1568A"/>
<stop offset="1" stop-color="#C42A68"/>
</radialGradient>
<radialGradient id="paint60_radial_4_15405" cx="0" cy="0" r="1" gradientUnits="userSpaceOnUse" gradientTransform="translate(77.5199 375.431) scale(101.444)">
<stop offset="0.01" stop-color="#FF65AF"/>
<stop offset="0.44" stop-color="#D64382"/>
<stop offset="0.88" stop-color="#AE2055"/>
</radialGradient>
<linearGradient id="paint61_linear_4_15405" x1="103.095" y1="374.662" x2="167.095" y2="346.181" gradientUnits="userSpaceOnUse">
<stop stop-color="#D4306B"/>
<stop offset="0.44" stop-color="#B42259"/>
<stop offset="0.88" stop-color="#931447"/>
</linearGradient>
<linearGradient id="paint62_linear_4_15405" x1="181.539" y1="334.661" x2="108.521" y2="373.275" gradientUnits="userSpaceOnUse">
<stop offset="0.05" stop-color="#D62D86"/>
<stop offset="0.45" stop-color="#D62D86" stop-opacity="0.5"/>
<stop offset="0.86" stop-color="#D62D86" stop-opacity="0"/>
</linearGradient>
<radialGradient id="paint63_radial_4_15405" cx="0" cy="0" r="1" gradientUnits="userSpaceOnUse" gradientTransform="translate(101.782 232.373) scale(68.6883 68.6883)">
<stop stop-color="#FFD2E6"/>
<stop offset="0.5" stop-color="#FFBBDA"/>
<stop offset="1" stop-color="#FFA4CD"/>
</radialGradient>
<radialGradient id="paint64_radial_4_15405" cx="0" cy="0" r="1" gradientUnits="userSpaceOnUse" gradientTransform="translate(96.2048 275.561) scale(68.8718 68.8718)">
<stop offset="0.35" stop-color="#FFB6DA"/>
<stop offset="0.68" stop-color="#FF91BE"/>
<stop offset="1" stop-color="#FF6CA3"/>
</radialGradient>
<linearGradient id="paint65_linear_4_15405" x1="81.8058" y1="277.735" x2="110.562" y2="329.661" gradientUnits="userSpaceOnUse">
<stop stop-color="#FF85B1"/>
<stop offset="0.5" stop-color="#EE6499"/>
<stop offset="1" stop-color="#DE4481"/>
</linearGradient>
<linearGradient id="paint66_linear_4_15405" x1="89.4766" y1="260.954" x2="107.184" y2="307.868" gradientUnits="userSpaceOnUse">
<stop stop-color="white"/>
<stop offset="0.5" stop-color="white" stop-opacity="0.5"/>
<stop offset="1" stop-color="white" stop-opacity="0"/>
</linearGradient>
<linearGradient id="paint67_linear_4_15405" x1="123.388" y1="271.422" x2="183.888" y2="298.922" gradientUnits="userSpaceOnUse">
<stop offset="0.35" stop-color="#FF64AF"/>
<stop offset="0.68" stop-color="#E04B8D"/>
<stop offset="1" stop-color="#C2316B"/>
</linearGradient>
<linearGradient id="paint68_linear_4_15405" x1="138.388" y1="278.422" x2="192.388" y2="306.922" gradientUnits="userSpaceOnUse">
<stop offset="0.01" stop-color="#DD3471"/>
<stop offset="0.51" stop-color="#BD275F"/>
<stop offset="1" stop-color="#9D194E"/>
</linearGradient>
<linearGradient id="paint69_linear_4_15405" x1="119.423" y1="282.654" x2="168.765" y2="303.693" gradientUnits="userSpaceOnUse">
<stop stop-color="white"/>
<stop offset="0.5" stop-color="white" stop-opacity="0.5"/>
<stop offset="1" stop-color="white" stop-opacity="0"/>
</linearGradient>
<radialGradient id="paint70_radial_4_15405" cx="0" cy="0" r="1" gradientUnits="userSpaceOnUse" gradientTransform="translate(111.011 196.676) scale(98.9156 98.9156)">
<stop offset="0.35" stop-color="#FF64AF"/>
<stop offset="0.68" stop-color="#D3407F"/>
<stop offset="1" stop-color="#A81B4E"/>
</radialGradient>
<linearGradient id="paint71_linear_4_15405" x1="103.291" y1="196.001" x2="172.726" y2="205.872" gradientUnits="userSpaceOnUse">
<stop offset="0.01" stop-color="#DD3471"/>
<stop offset="0.51" stop-color="#BD275F"/>
<stop offset="1" stop-color="#9D194E"/>
</linearGradient>
<radialGradient id="paint72_radial_4_15405" cx="0" cy="0" r="1" gradientUnits="userSpaceOnUse" gradientTransform="translate(204.083 238.875) rotate(7) scale(63.9769 63.9769)">
<stop stop-color="#FFBBDD"/>
<stop offset="0.44" stop-color="#FF90BF"/>
<stop offset="0.88" stop-color="#FF64A0"/>
</radialGradient>
<linearGradient id="paint73_linear_4_15405" x1="176.659" y1="293.722" x2="231.711" y2="313.075" gradientUnits="userSpaceOnUse">
<stop offset="0.01" stop-color="#F45691"/>
<stop offset="0.51" stop-color="#DB457A"/>
<stop offset="1" stop-color="#C23463"/>
</linearGradient>
<linearGradient id="paint74_linear_4_15405" x1="236.3" y1="299.965" x2="180.565" y2="311.61" gradientUnits="userSpaceOnUse">
<stop offset="0.05" stop-color="#D62D86"/>
<stop offset="0.52" stop-color="#D62D86" stop-opacity="0.5"/>
<stop offset="1" stop-color="#D62D86" stop-opacity="0"/>
</linearGradient>
<radialGradient id="paint75_radial_4_15405" cx="0" cy="0" r="1" gradientUnits="userSpaceOnUse" gradientTransform="translate(357.916 381.796) rotate(7) scale(98.0285 98.0285)">
<stop offset="0.3" stop-color="#FF96BF"/>
<stop offset="0.65" stop-color="#F474A5"/>
<stop offset="1" stop-color="#E8528C"/>
</radialGradient>
<linearGradient id="paint76_linear_4_15405" x1="318.99" y1="294.942" x2="342.352" y2="398.157" gradientUnits="userSpaceOnUse">
<stop offset="0.05" stop-color="#AE2A5F"/>
<stop offset="0.45" stop-color="#AE2A5F" stop-opacity="0.5"/>
<stop offset="0.86" stop-color="#AE2A5F" stop-opacity="0"/>
</linearGradient>
<radialGradient id="paint77_radial_4_15405" cx="0" cy="0" r="1" gradientUnits="userSpaceOnUse" gradientTransform="translate(347.834 354.36) rotate(7) scale(71.002 71.002)">
<stop stop-color="#FFA9D4"/>
<stop offset="0.44" stop-color="#FD8AC2"/>
<stop offset="0.88" stop-color="#FC6BB0"/>
</radialGradient>
<radialGradient id="paint78_radial_4_15405" cx="0" cy="0" r="1" gradientUnits="userSpaceOnUse" gradientTransform="translate(382.919 226.478) rotate(7) scale(130.117 130.117)">
<stop stop-color="#FFA9CA"/>
<stop offset="0.44" stop-color="#FF88BC"/>
<stop offset="0.88" stop-color="#FF68AD"/>
</radialGradient>
<radialGradient id="paint79_radial_4_15405" cx="0" cy="0" r="1" gradientUnits="userSpaceOnUse" gradientTransform="translate(231.443 202.445) rotate(7) scale(89.2851 89.2851)">
<stop stop-color="#FFD1E8"/>
<stop offset="0.44" stop-color="#FFB1D4"/>
<stop offset="0.88" stop-color="#FF92C0"/>
</radialGradient>
<linearGradient id="paint80_linear_4_15405" x1="236.461" y1="277.934" x2="253.284" y2="182.156" gradientUnits="userSpaceOnUse">
<stop stop-color="#EB5088"/>
<stop offset="0.44" stop-color="#F5669B"/>
<stop offset="0.88" stop-color="#FF7DAE"/>
</linearGradient>
<linearGradient id="paint81_linear_4_15405" x1="267.887" y1="280.67" x2="220.897" y2="203.577" gradientUnits="userSpaceOnUse">
<stop offset="0.05" stop-color="#D62D86"/>
<stop offset="0.45" stop-color="#D62D86" stop-opacity="0.5"/>
<stop offset="0.86" stop-color="#D62D86" stop-opacity="0"/>
</linearGradient>
<linearGradient id="paint82_linear_4_15405" x1="304.298" y1="264.866" x2="312.066" y2="220.355" gradientUnits="userSpaceOnUse">
<stop stop-color="#FF89B8"/>
<stop offset="0.5" stop-color="#E66196"/>
<stop offset="1" stop-color="#CD3974"/>
</linearGradient>
<radialGradient id="paint83_radial_4_15405" cx="0" cy="0" r="1" gradientUnits="userSpaceOnUse" gradientTransform="translate(314.083 199.7) rotate(7) scale(88.3131 88.3131)">
<stop stop-color="#FFD2E6"/>
<stop offset="0.5" stop-color="#FFBBDA"/>
<stop offset="1" stop-color="#FFA4CD"/>
</radialGradient>
<linearGradient id="paint84_linear_4_15405" x1="317.912" y1="185.054" x2="315.084" y2="225.789" gradientUnits="userSpaceOnUse">
<stop stop-color="white"/>
<stop offset="0.5" stop-color="white" stop-opacity="0.5"/>
<stop offset="1" stop-color="white" stop-opacity="0"/>
</linearGradient>
<radialGradient id="paint85_radial_4_15405" cx="0" cy="0" r="1" gradientUnits="userSpaceOnUse" gradientTransform="translate(350.436 222.17) rotate(7) scale(77.9051 77.9051)">
<stop offset="0.35" stop-color="#FFDEEE"/>
<stop offset="0.68" stop-color="#FFCAE4"/>
<stop offset="1" stop-color="#FFB6DB"/>
</radialGradient>
<linearGradient id="paint86_linear_4_15405" x1="353.897" y1="205.844" x2="367.056" y2="269.17" gradientUnits="userSpaceOnUse">
<stop stop-color="#FF91B8"/>
<stop offset="0.5" stop-color="#FA78A8"/>
<stop offset="1" stop-color="#F55F97"/>
</linearGradient>
<linearGradient id="paint87_linear_4_15405" x1="363.761" y1="221.917" x2="358.325" y2="263.103" gradientUnits="userSpaceOnUse">
<stop stop-color="white"/>
<stop offset="0.5" stop-color="white" stop-opacity="0.5"/>
<stop offset="1" stop-color="white" stop-opacity="0"/>
</linearGradient>
<radialGradient id="paint88_radial_4_15405" cx="0" cy="0" r="1" gradientUnits="userSpaceOnUse" gradientTransform="translate(262.901 206.538) rotate(7) scale(76.1941 76.1941)">
<stop offset="0.41" stop-color="#FFD2E6"/>
<stop offset="0.7" stop-color="#FFBBDA"/>
<stop offset="1" stop-color="#FFA4CD"/>
</radialGradient>
<linearGradient id="paint89_linear_4_15405" x1="280.566" y1="193.818" x2="244.411" y2="272.499" gradientUnits="userSpaceOnUse">
<stop stop-color="#FF8CB5"/>
<stop offset="0.5" stop-color="#ED659A"/>
<stop offset="1" stop-color="#DC3F7E"/>
</linearGradient>
<linearGradient id="paint90_linear_4_15405" x1="279.974" y1="206.844" x2="241.762" y2="252.059" gradientUnits="userSpaceOnUse">
<stop stop-color="white"/>
<stop offset="0.5" stop-color="white" stop-opacity="0.5"/>
<stop offset="1" stop-color="white" stop-opacity="0"/>
</linearGradient>
<radialGradient id="paint91_radial_4_15405" cx="0" cy="0" r="1" gradientUnits="userSpaceOnUse" gradientTransform="translate(307.76 273.61) rotate(7) scale(43.1241 43.1241)">
<stop offset="0.35" stop-color="#FFDEEE"/>
<stop offset="0.68" stop-color="#FFCAE4"/>
<stop offset="1" stop-color="#FFB6DB"/>
</radialGradient>
<linearGradient id="paint92_linear_4_15405" x1="305.942" y1="270.23" x2="296.596" y2="319.458" gradientUnits="userSpaceOnUse">
<stop stop-color="#FF8DB6"/>
<stop offset="0.5" stop-color="#EF699D"/>
<stop offset="1" stop-color="#DF4683"/>
</linearGradient>
<linearGradient id="paint93_linear_4_15405" x1="308.668" y1="268.55" x2="303.841" y2="305.117" gradientUnits="userSpaceOnUse">
<stop stop-color="white"/>
<stop offset="0.5" stop-color="white" stop-opacity="0.5"/>
<stop offset="1" stop-color="white" stop-opacity="0"/>
</linearGradient>
<radialGradient id="paint94_radial_4_15405" cx="0" cy="0" r="1" gradientUnits="userSpaceOnUse" gradientTransform="translate(222.817 297.145) rotate(7) scale(95.97 95.97)">
<stop offset="0.35" stop-color="#FFDEEE"/>
<stop offset="0.68" stop-color="#FFCAE4"/>
<stop offset="1" stop-color="#FFB6DB"/>
</radialGradient>
<linearGradient id="paint95_linear_4_15405" x1="251.241" y1="325.979" x2="233.544" y2="378.86" gradientUnits="userSpaceOnUse">
<stop offset="0.02" stop-color="#FF9DC0"/>
<stop offset="0.51" stop-color="#F171A2"/>
<stop offset="1" stop-color="#E34685"/>
</linearGradient>
<clipPath id="clip0_4_15405">
<rect width="512" height="512" fill="white"/>
</clipPath>
</defs>
</svg>
