<svg width="512" height="512" viewBox="0 0 512 512" fill="none" xmlns="http://www.w3.org/2000/svg">
<g clip-path="url(#clip0_4_3065)">
<mask id="mask0_4_3065" style="mask-type:luminance" maskUnits="userSpaceOnUse" x="0" y="0" width="512" height="512">
<path d="M512 0H0V512H512V0Z" fill="white"/>
</mask>
<g mask="url(#mask0_4_3065)">
<g opacity="0.65">
<mask id="mask1_4_3065" style="mask-type:luminance" maskUnits="userSpaceOnUse" x="3" y="331" width="506" height="178">
<path d="M256 331.144C395.613 331.144 508.969 370.818 508.969 419.683C508.969 468.548 395.613 508.222 256 508.222C116.387 508.222 3.03125 468.548 3.03125 419.683C3.03125 370.818 116.387 331.144 256 331.144Z" fill="url(#paint0_radial_4_3065)"/>
</mask>
<g mask="url(#mask1_4_3065)">
<path d="M256 331.144C395.613 331.144 508.969 370.818 508.969 419.683C508.969 468.548 395.613 508.222 256 508.222C116.387 508.222 3.03125 468.548 3.03125 419.683C3.03125 370.818 116.387 331.144 256 331.144Z" fill="url(#paint1_radial_4_3065)"/>
</g>
</g>
<path d="M494.601 405.309C494.601 423.904 477.041 440.827 447.361 455.597C447.361 455.597 413.631 444.033 386.911 439.07L406.001 471.725C364.801 484.349 312.251 492.196 255.021 492.196C213.611 492.196 174.641 488.185 140.661 481.266C66.0712 466.079 15.4512 436.879 15.4512 405.309C15.4512 359.35 122.711 325.771 255.021 325.771C387.331 325.771 494.601 359.35 494.601 405.309Z" fill="url(#paint2_linear_4_3065)"/>
<g opacity="0.2">
<path d="M398.24 466.755C397.015 467.233 396.306 467.509 396.306 467.509C357.847 479.293 308.804 486.619 255.386 486.619C215.228 486.619 177.544 482.579 144.969 475.652C77.3664 461.277 31.7744 434.466 31.7744 405.52C31.7744 362.625 131.888 331.282 255.386 331.282C378.884 331.282 478.999 362.625 478.999 405.52C478.999 420.955 465.574 435.341 443.12 448.032" stroke="url(#paint3_linear_4_3065)" stroke-width="10.6489" stroke-linecap="round" stroke-linejoin="round"/>
</g>
<g opacity="0.5">
<path d="M230.587 389.306L230.703 389.311L230.999 389.122L230.299 389.224L230.587 389.306ZM494.585 405.327C494.585 413.895 490.857 422.118 483.921 429.924C479.079 404.332 413.609 381.992 351.212 398.142L324.307 328.997C422.829 338.427 494.585 367.735 494.585 405.327Z" fill="url(#paint4_linear_4_3065)"/>
</g>
<g opacity="0.5">
<path d="M230.587 389.306L230.702 389.311L230.999 389.123L230.298 389.224L230.587 389.306ZM145.016 482.145C68.0445 467.232 15.4375 437.508 15.4375 405.327C15.4375 367.106 89.6165 337.453 190.695 328.55L201.564 333.676L145.85 404.911C131.584 404.886 118.615 407.358 108.795 411.641C78.0935 424.214 74.2925 453.6 145.016 482.145Z" fill="url(#paint5_linear_4_3065)"/>
</g>
<path d="M494.662 405.397C494.662 423.992 477.102 440.915 447.422 455.685C447.422 455.685 413.692 444.121 386.982 439.158L406.062 471.813C364.862 484.437 312.322 492.284 255.092 492.284C213.972 492.284 175.282 488.333 141.472 481.508C66.4717 466.363 15.5117 437.075 15.5117 405.397C15.5117 359.438 122.772 325.859 255.092 325.859C387.402 325.859 494.662 359.438 494.662 405.397Z" stroke="url(#paint6_linear_4_3065)" stroke-width="10.6489" stroke-linecap="round" stroke-linejoin="round"/>
<path d="M335.235 74.207C335.235 91.967 375.416 153.516 371.033 179.767C368.34 195.97 334.277 248.96 338.996 263.999C342.561 275.359 384.366 338.964 397.327 375.272C397.783 376.548 397.653 377.96 397.816 379.317C397.816 406.409 334.777 431.152 257.018 431.152C179.245 431.152 116.219 406.409 116.219 379.317C115.175 319.345 154.015 230.596 160.23 225.819C172.5 216.389 246.701 165.593 246.701 156.839C246.701 148.085 257.546 50.563 279.628 37.658C303.192 23.887 393.569 9.94599 397.867 18.557C400.825 24.485 335.235 56.447 335.235 74.207Z" fill="url(#paint7_linear_4_3065)"/>
<g opacity="0.3">
<path d="M397.818 379.317C397.818 379.673 397.806 380.028 397.784 380.384L372.963 408.062C347.564 421.69 305.1 431.15 257.013 431.15C179.246 431.15 116.219 406.406 116.219 379.317C115.174 319.347 154.012 230.597 160.226 225.817C164.206 222.76 190.945 215.368 203.295 206.453C84.1279 278.45 225.311 311.554 366.807 191.958C362.995 201.529 337.548 259.398 338.993 264C342.561 275.361 384.368 338.965 397.329 375.27C397.784 376.548 397.651 377.961 397.818 379.317Z" fill="url(#paint8_linear_4_3065)"/>
</g>
<g opacity="0.5">
<path d="M250.711 122.42C244.187 151.725 321.284 141.269 325.524 147.663C335.419 162.582 240.805 174.031 171.303 229.656L246.701 156.839L250.711 122.42Z" fill="url(#paint9_linear_4_3065)"/>
</g>
<g opacity="0.3">
<path d="M132.853 289.84C132.853 289.84 163.682 232.196 171.303 229.656C178.924 227.116 257.164 171.664 259.196 165.589C261.228 159.514 272.003 62.4949 286.123 51.8069C302.513 39.4009 377.783 29.5759 377.783 29.5759" stroke="url(#paint10_linear_4_3065)" stroke-width="18" stroke-linecap="round" stroke-linejoin="round"/>
</g>
<g opacity="0.2">
<path d="M368.343 345.077C368.343 345.077 323.321 277.06 321.361 261.214C319.401 245.368 355.222 190.693 359.328 167.925C361.647 155.066 338.284 86.619 338.284 86.619" stroke="url(#paint11_linear_4_3065)" stroke-width="18" stroke-linecap="round" stroke-linejoin="round"/>
</g>
<path d="M335.235 74.207C335.235 91.967 375.416 153.516 371.033 179.767C368.34 195.97 334.277 248.96 338.996 263.999C342.561 275.359 384.366 338.964 397.327 375.272C397.783 376.548 397.653 377.96 397.816 379.317C397.816 406.409 334.777 431.152 257.018 431.152C179.245 431.152 116.219 406.409 116.219 379.317C115.175 319.345 154.015 230.596 160.23 225.819C172.5 216.389 246.701 165.593 246.701 156.839C246.701 148.085 257.546 50.563 279.628 37.658C303.192 23.887 393.569 9.94599 397.867 18.557C400.825 24.485 335.235 56.447 335.235 74.207Z" stroke="url(#paint12_linear_4_3065)" stroke-width="18" stroke-linecap="round" stroke-linejoin="round"/>
<path d="M397.817 379.317C397.817 406.406 334.779 431.15 257.012 431.15C179.245 431.15 116.218 406.406 116.218 379.317C115.951 364.199 118.23 347.248 121.876 330.274C121.876 330.274 252.933 395.812 376.831 332.063C385.234 347.536 392.937 362.977 397.328 375.271C397.783 376.549 397.65 377.961 397.817 379.317Z" fill="url(#paint13_linear_4_3065)"/>
<g opacity="0.2">
<path d="M397.818 379.32C397.818 406.41 334.778 431.15 257.008 431.15C179.248 431.15 116.218 406.41 116.218 379.32C116.058 370.62 116.748 367.3 118.068 357.73C128.998 381.48 187.038 401.52 257.008 401.52C319.308 401.52 372.148 385.64 390.718 365.39C393.338 371.05 395.599 370.4 397.329 375.27C397.789 376.55 397.648 377.96 397.818 379.32Z" fill="#331B0B"/>
</g>
<path d="M397.817 379.317C397.817 406.406 334.779 431.15 257.012 431.15C179.245 431.15 116.218 406.406 116.218 379.317C115.951 364.199 118.23 347.248 121.876 330.274C121.876 330.274 252.933 395.812 376.831 332.063C385.234 347.536 392.937 362.977 397.328 375.271C397.783 376.549 397.65 377.961 397.817 379.317Z" stroke="url(#paint14_linear_4_3065)" stroke-width="18" stroke-linecap="round" stroke-linejoin="round"/>
<g opacity="0.5">
<path d="M376.831 332.063C385.234 347.536 392.937 362.977 397.328 375.271C397.783 376.549 397.65 377.961 397.817 379.317C397.817 406.406 334.779 431.15 257.012 431.15C179.245 431.15 116.218 406.406 116.218 379.317C115.951 364.199 118.23 347.248 121.876 330.274" stroke="#331B0B" stroke-width="18" stroke-linecap="round" stroke-linejoin="round"/>
</g>
<path d="M304.264 317.122H197.158C187.295 317.122 179.3 326.342 179.3 337.715V442.135C179.3 453.508 187.295 462.728 197.158 462.728H304.264C314.126 462.728 322.122 453.508 322.122 442.135V337.715C322.122 326.342 314.126 317.122 304.264 317.122ZM287.707 421.588C287.707 424.932 285.356 427.643 282.456 427.643H218.965C216.065 427.643 213.715 424.932 213.715 421.588V358.262C213.715 354.918 216.065 352.207 218.965 352.207H282.456C285.356 352.207 287.707 354.918 287.707 358.262V421.588Z" fill="url(#paint15_linear_4_3065)"/>
<g opacity="0.9">
<path d="M322.122 352.29C322.122 342.243 314.126 334.098 304.264 334.098H197.158C187.295 334.098 179.3 342.243 179.3 352.29" stroke="url(#paint16_linear_4_3065)" stroke-width="18" stroke-linecap="round" stroke-linejoin="round"/>
</g>
<path d="M287.706 421.588C287.706 424.932 285.356 427.643 282.456 427.643H218.964C216.064 427.643 213.714 424.932 213.714 421.588V358.262C213.714 354.918 216.064 352.207 218.964 352.207H282.456C285.356 352.207 287.706 354.918 287.706 358.262V421.588Z" fill="url(#paint17_linear_4_3065)"/>
<g opacity="0.2">
<path d="M287.708 389.39V421.59C287.708 424.93 285.358 427.64 282.458 427.64H218.968C216.068 427.64 213.718 424.93 213.718 421.59V389.39C213.718 392.74 216.068 395.45 218.968 395.45H282.458C285.358 395.45 287.708 392.74 287.708 389.39Z" fill="#331B0B"/>
</g>
<path d="M287.706 421.588C287.706 424.932 285.356 427.643 282.456 427.643H218.964C216.064 427.643 213.714 424.932 213.714 421.588V358.262C213.714 354.918 216.064 352.207 218.964 352.207H282.456C285.356 352.207 287.706 354.918 287.706 358.262V421.588Z" stroke="url(#paint18_linear_4_3065)" stroke-width="18" stroke-linecap="round" stroke-linejoin="round"/>
<path d="M300.825 317.122H200.597C188.835 317.122 179.3 328.117 179.3 341.681V438.169C179.3 451.733 188.835 462.728 200.597 462.728H300.825C312.587 462.728 322.122 451.733 322.122 438.169V341.681C322.122 328.117 312.587 317.122 300.825 317.122Z" stroke="url(#paint19_linear_4_3065)" stroke-width="18" stroke-linecap="round" stroke-linejoin="round"/>
</g>
</g>
<defs>
<radialGradient id="paint0_radial_4_3065" cx="0" cy="0" r="1" gradientUnits="userSpaceOnUse" gradientTransform="translate(256 419.683) scale(255.718 89.5013)">
<stop stop-color="white"/>
<stop offset="0.11" stop-color="white"/>
<stop offset="0.22" stop-color="white"/>
<stop offset="0.84" stop-color="white" stop-opacity="0.5"/>
<stop offset="1" stop-color="white" stop-opacity="0"/>
</radialGradient>
<radialGradient id="paint1_radial_4_3065" cx="0" cy="0" r="1" gradientUnits="userSpaceOnUse" gradientTransform="translate(256 419.683) scale(255.718 89.5013)">
<stop/>
<stop offset="0.5" stop-color="#0F0022"/>
<stop offset="1" stop-color="#1E0044"/>
</radialGradient>
<linearGradient id="paint2_linear_4_3065" x1="256.436" y1="492.788" x2="256.314" y2="324.925" gradientUnits="userSpaceOnUse">
<stop offset="0.14" stop-color="#AB37FF"/>
<stop offset="0.75" stop-color="#751CD2"/>
<stop offset="1" stop-color="#3E00A6"/>
</linearGradient>
<linearGradient id="paint3_linear_4_3065" x1="214.436" y1="492.588" x2="214.314" y2="345.837" gradientUnits="userSpaceOnUse">
<stop stop-color="white"/>
<stop offset="0.51" stop-color="white" stop-opacity="0.5"/>
<stop offset="0.8" stop-color="white" stop-opacity="0"/>
</linearGradient>
<linearGradient id="paint4_linear_4_3065" x1="332.437" y1="329.987" x2="353.071" y2="438.849" gradientUnits="userSpaceOnUse">
<stop stop-color="#000054"/>
<stop offset="0.58" stop-color="#2C0080" stop-opacity="0.5"/>
<stop offset="1" stop-color="#5700AC" stop-opacity="0"/>
</linearGradient>
<linearGradient id="paint5_linear_4_3065" x1="111.437" y1="328.988" x2="111.086" y2="476.945" gradientUnits="userSpaceOnUse">
<stop stop-color="#000054"/>
<stop offset="0.58" stop-color="#2C0080" stop-opacity="0.5"/>
<stop offset="1" stop-color="#5700AC" stop-opacity="0"/>
</linearGradient>
<linearGradient id="paint6_linear_4_3065" x1="256.437" y1="494.888" x2="256.314" y2="321.862" gradientUnits="userSpaceOnUse">
<stop offset="0.18" stop-color="#6900AC"/>
<stop offset="0.52" stop-color="#4A0086"/>
<stop offset="0.66" stop-color="#2B005F"/>
</linearGradient>
<linearGradient id="paint7_linear_4_3065" x1="257" y1="81" x2="257" y2="325.925" gradientUnits="userSpaceOnUse">
<stop offset="0.14" stop-color="#AB37FF"/>
<stop offset="0.75" stop-color="#751CD2"/>
<stop offset="1" stop-color="#3E00A6"/>
</linearGradient>
<linearGradient id="paint8_linear_4_3065" x1="260" y1="345" x2="280.41" y2="196.301" gradientUnits="userSpaceOnUse">
<stop offset="0.33" stop-color="#000054"/>
<stop offset="0.72" stop-color="#2C0080" stop-opacity="0.5"/>
<stop offset="1" stop-color="#5700AC" stop-opacity="0"/>
</linearGradient>
<linearGradient id="paint9_linear_4_3065" x1="188" y1="182" x2="325.572" y2="143.022" gradientUnits="userSpaceOnUse">
<stop offset="0.03" stop-color="#000054"/>
<stop offset="0.64" stop-color="#2C0080" stop-opacity="0.5"/>
<stop offset="1" stop-color="#5700AC" stop-opacity="0"/>
</linearGradient>
<linearGradient id="paint10_linear_4_3065" x1="255.001" y1="298" x2="255.001" y2="19.7359" gradientUnits="userSpaceOnUse">
<stop stop-color="white" stop-opacity="0"/>
<stop offset="0.36" stop-color="white" stop-opacity="0.5"/>
<stop offset="1" stop-color="white"/>
</linearGradient>
<linearGradient id="paint11_linear_4_3065" x1="344" y1="354" x2="344" y2="77.541" gradientUnits="userSpaceOnUse">
<stop offset="0.2" stop-color="white" stop-opacity="0"/>
<stop offset="0.49" stop-color="white" stop-opacity="0.5"/>
<stop offset="1" stop-color="white"/>
</linearGradient>
<linearGradient id="paint12_linear_4_3065" x1="257" y1="440" x2="257" y2="6.752" gradientUnits="userSpaceOnUse">
<stop offset="0.55" stop-color="#2B005F"/>
<stop offset="0.64" stop-color="#4A0086"/>
<stop offset="0.82" stop-color="#6900AC"/>
</linearGradient>
<linearGradient id="paint13_linear_4_3065" x1="257" y1="442" x2="257" y2="353.509" gradientUnits="userSpaceOnUse">
<stop offset="0.27" stop-color="#763B23"/>
<stop offset="0.7" stop-color="#925317"/>
<stop offset="1" stop-color="#AD6A0B"/>
</linearGradient>
<linearGradient id="paint14_linear_4_3065" x1="257" y1="440" x2="257" y2="321.124" gradientUnits="userSpaceOnUse">
<stop offset="0.48" stop-color="#331B0B"/>
<stop offset="0.73" stop-color="#512B0B"/>
<stop offset="1" stop-color="#6F3B0B"/>
</linearGradient>
<linearGradient id="paint15_linear_4_3065" x1="250" y1="334" x2="250" y2="439.774" gradientUnits="userSpaceOnUse">
<stop offset="0.22" stop-color="#FFDF00"/>
<stop offset="0.57" stop-color="#F7B600"/>
<stop offset="0.71" stop-color="#EF8D00"/>
</linearGradient>
<linearGradient id="paint16_linear_4_3065" x1="250" y1="361" x2="250" y2="324.808" gradientUnits="userSpaceOnUse">
<stop offset="0.2" stop-color="white" stop-opacity="0"/>
<stop offset="0.49" stop-color="white" stop-opacity="0.5"/>
<stop offset="1" stop-color="white"/>
</linearGradient>
<linearGradient id="paint17_linear_4_3065" x1="250" y1="428" x2="250" y2="368.077" gradientUnits="userSpaceOnUse">
<stop stop-color="#763B23"/>
<stop offset="0.48" stop-color="#925317"/>
<stop offset="1" stop-color="#AD6A0B"/>
</linearGradient>
<linearGradient id="paint18_linear_4_3065" x1="250" y1="436" x2="250" y2="342.565" gradientUnits="userSpaceOnUse">
<stop offset="0.28" stop-color="#331B0B"/>
<stop offset="0.54" stop-color="#512B0B"/>
<stop offset="0.82" stop-color="#6F3B0B"/>
</linearGradient>
<linearGradient id="paint19_linear_4_3065" x1="250" y1="471" x2="250" y2="307.394" gradientUnits="userSpaceOnUse">
<stop offset="0.09" stop-color="#873E00"/>
<stop offset="0.43" stop-color="#AD5C00"/>
<stop offset="0.68" stop-color="#D37A00"/>
</linearGradient>
<clipPath id="clip0_4_3065">
<rect width="512" height="512" fill="white"/>
</clipPath>
</defs>
</svg>
