<svg width="512" height="512" viewBox="0 0 512 512" fill="none" xmlns="http://www.w3.org/2000/svg">
<g clip-path="url(#clip0_2002_460)">
<mask id="mask0_2002_460" style="mask-type:luminance" maskUnits="userSpaceOnUse" x="0" y="0" width="512" height="512">
<path d="M512 0H0V512H512V0Z" fill="white"/>
</mask>
<g mask="url(#mask0_2002_460)">
<path d="M491.73 189.727C482.179 163.381 455.727 145.84 428.384 148.718C405.437 151.134 343.657 166.514 275.525 187.385C199.594 210.646 117.144 240.105 84.9053 256.327C65.8477 265.917 65.303 309.21 79.2336 346.259C92.648 383.497 109.203 410.194 138.819 402.788C173.832 394.033 255.753 363.209 328.644 331.687C394.047 303.404 451.055 275.056 470.09 262.018C492.774 246.482 501.54 215.976 491.73 189.727Z" fill="url(#paint0_linear_2002_460)"/>
<path d="M491.73 189.727C482.179 163.381 455.727 145.84 428.384 148.718C405.437 151.134 343.657 166.514 275.525 187.385C199.594 210.646 117.144 240.105 84.9053 256.327C65.8477 265.917 65.303 309.21 79.2336 346.259C92.648 383.497 109.203 410.194 138.819 402.788C173.832 394.033 255.753 363.209 328.644 331.687C394.047 303.404 451.055 275.056 470.09 262.018C492.774 246.482 501.54 215.976 491.73 189.727Z" stroke="#894700" stroke-width="6" stroke-miterlimit="10"/>
<g opacity="0.75">
<path d="M234.711 369.419C328.502 340.03 356.262 165.956 272.241 188.881" stroke="url(#paint1_linear_2002_460)" stroke-width="4" stroke-linecap="round" stroke-linejoin="round"/>
</g>
<g opacity="0.75">
<path d="M169.455 393.441C248.273 371.586 250.805 190.7 176.286 220.428" stroke="url(#paint2_linear_2002_460)" stroke-width="4" stroke-linecap="round" stroke-linejoin="round"/>
</g>
<g opacity="0.75">
<path d="M355.239 319.627C405.043 299.206 428.157 139.489 370.373 160.76" stroke="url(#paint3_linear_2002_460)" stroke-width="4" stroke-linecap="round" stroke-linejoin="round"/>
</g>
<g opacity="0.75">
<path d="M418.117 290.462C467.922 270.041 491.994 143.066 433.491 148.415" stroke="url(#paint4_linear_2002_460)" stroke-width="4" stroke-linecap="round" stroke-linejoin="round"/>
</g>
<path d="M408.87 232.202C404.847 218.637 395.43 208.319 382.191 205.013C372.214 189.866 349.844 168.167 328.724 169.15C314.592 172.669 298.696 178.402 283.477 182.192C307.143 181.073 330.26 202.053 340.505 218.153C330.318 229.934 326.703 245.996 330.244 261.311C333.995 276.976 346.741 288.296 358.021 290.161C357.173 301.209 354.511 319.008 335.265 331.938C350.906 324.761 365.917 317.873 380.334 311.257C396.774 302.869 400.711 282.387 401.032 272.176C410.602 260.291 413.086 246.047 408.87 232.202Z" fill="url(#paint5_linear_2002_460)"/>
<path d="M408.87 232.202C404.847 218.637 395.43 208.319 382.191 205.013C372.214 189.866 349.844 168.167 328.724 169.15C314.592 172.669 298.696 178.402 283.477 182.192C307.143 181.073 330.26 202.053 340.505 218.153C330.318 229.934 326.703 245.996 330.244 261.311C333.995 276.976 346.741 288.296 358.021 290.161C357.173 301.209 354.511 319.008 335.265 331.938C350.906 324.761 365.917 317.873 380.334 311.257C396.774 302.869 400.711 282.387 401.032 272.176C410.602 260.291 413.086 246.047 408.87 232.202Z" stroke="url(#paint6_linear_2002_460)" stroke-width="4" stroke-linecap="round" stroke-linejoin="round"/>
<path d="M358.98 207.031C354.149 208.52 350.156 210.878 347.003 213.919C337.346 199.455 324.748 186.154 304.083 178.799C302.146 179.286 297.984 180.696 296.028 181.188C318.105 188.089 332.797 201.928 342.622 217.689C332.33 230.608 328.836 246.359 332.315 261.298C336.003 276.567 347.969 286.196 359.659 288.921C360.258 302.603 355.715 313.113 348.003 323.598C350.013 322.682 357.675 319.161 359.664 318.255C365.417 309.654 368.01 297.754 366.863 289.328C371.116 289.753 374.717 288.89 379.728 286.757C384.621 284.672 389.357 281.493 393.636 277.569C393.123 286.294 387.331 300.557 380.961 308.308C382.79 307.475 385.485 305.163 387.155 303.475C393.482 296.97 398.759 284.306 398.876 271.303C408.501 259.89 411.084 247.148 406.95 233.513C403.007 220.147 393.804 209.378 380.758 206.479C371.157 191.595 348.804 170.623 329.024 171.372C327.247 171.819 326.956 171.925 325.997 172.172C350.446 177.582 364.45 191.568 373.923 205.459C368.804 205.086 363.702 205.577 358.98 207.031Z" fill="url(#paint7_linear_2002_460)"/>
<path d="M360.69 198.233C355.935 199.646 351.12 201.077 346.244 202.526C337.598 192.137 326.149 181.395 307.959 177.507C312.878 176.054 317.041 174.701 321.996 173.283C337.389 175.137 352.17 188.052 360.69 198.233Z" fill="#5A79EA"/>
<path d="M378.044 309.88C372.969 312.193 367.823 314.538 362.604 316.916C365.663 313.181 370.168 304.142 371.052 299.629C376.162 297.383 381.783 294.955 386.754 292.77C385.967 297.157 381.16 305.8 378.044 309.88Z" fill="#5A79EA"/>
<path d="M362.432 212.14C378.374 207.034 396.924 217.555 402.07 235.295C407.541 253.517 396.687 273.091 380.233 279.9C362.857 287.194 342.777 278.667 337.787 258.535C333.145 238.978 345.559 217.415 362.432 212.14Z" fill="url(#paint8_linear_2002_460)"/>
<path d="M344.307 245.365C346.131 245.475 347.943 245.586 349.743 245.699" stroke="#5A79EA" stroke-linejoin="round"/>
<path d="M344.388 242.941C344.352 244.565 344.286 246.206 344.187 247.862" stroke="#5A79EA" stroke-linejoin="round"/>
<path d="M346.449 234.528C346.13 235.504 345.8 236.487 345.461 237.476C347.073 238.041 348.668 238.611 350.246 239.185C350.591 238.147 350.926 237.117 351.25 236.092" stroke="#5A79EA" stroke-linejoin="round"/>
<path d="M348.653 235.446C348.373 236.366 348.084 237.292 347.786 238.223" stroke="#5A79EA" stroke-linejoin="round"/>
<path d="M348.405 229.252C349.994 230.33 351.551 231.419 353.075 232.52C353.674 231.679 354.267 230.842 354.852 230.01" stroke="#5A79EA" stroke-linejoin="round"/>
<path d="M356.66 222.014C355.889 222.558 355.116 223.103 354.339 223.651C355.506 224.904 356.641 226.173 357.743 227.456C358.564 226.86 359.381 226.266 360.194 225.675" stroke="#5A79EA" stroke-linejoin="round"/>
<path d="M358.223 223.886C357.55 224.363 356.873 224.841 356.195 225.322" stroke="#5A79EA" stroke-linejoin="round"/>
<path d="M365.622 218.914C359.722 218.845 362.896 225.522 367.167 222.947C366.711 222.024 366.205 220.981 366.205 220.981C365.726 221.115 365.246 221.249 364.766 221.384" stroke="#5A79EA" stroke-linejoin="round"/>
<path d="M372.16 223.241C372.047 221.535 371.896 219.849 371.71 218.185C371.71 218.185 372.561 218.179 373.544 218.351C374.535 218.517 376.185 220.961 372.148 220.51C374.216 220.711 374.68 221.298 374.856 222.069C375.055 222.947 375.343 223.271 375.359 223.465" stroke="#5A79EA" stroke-linejoin="round"/>
<path d="M379.588 224.435C379.773 223.931 382.448 220.272 382.439 220.275C382.735 220.388 383.031 220.501 383.325 220.615C383.351 220.605 383.524 225.295 383.273 225.954" stroke="#5A79EA" stroke-linejoin="round"/>
<path d="M380.725 222.927C381.589 223.281 382.448 223.638 383.3 223.995" stroke="#5A79EA" stroke-linejoin="round"/>
<path d="M387.038 228.327C388.212 227.187 389.373 226.054 390.523 224.929C390.781 225.202 391.036 225.476 391.29 225.751C391.301 225.747 389.476 229.557 388.916 230.036C389.48 229.564 393.289 227.587 393.289 227.587C393.527 227.834 393.762 228.081 393.998 228.328C392.936 229.586 391.86 230.852 390.769 232.128" stroke="#5A79EA" stroke-linejoin="round"/>
<path d="M398.624 245.415C397.075 245.281 395.515 245.148 393.945 245.016" stroke="#5A79EA" stroke-linejoin="round"/>
<path d="M398.284 247.841C398.525 246.205 398.736 244.581 398.917 242.97" stroke="#5A79EA" stroke-linejoin="round"/>
<path d="M394.927 256.64C395.444 255.583 395.95 254.532 396.446 253.485C395.22 252.867 393.976 252.25 392.717 251.636C392.24 252.721 391.751 253.811 391.251 254.907" stroke="#5A79EA" stroke-linejoin="round"/>
<path d="M393.311 255.625C393.765 254.636 394.208 253.651 394.643 252.67" stroke="#5A79EA" stroke-linejoin="round"/>
<path d="M391.712 262.506C390.776 261.263 389.807 260.027 388.805 258.795C388.058 259.729 387.304 260.666 386.542 261.607" stroke="#5A79EA" stroke-linejoin="round"/>
<path d="M381.906 271.046C382.806 270.381 383.701 269.718 384.593 269.057C384.166 267.544 383.702 266.038 383.202 264.539C382.28 265.233 381.353 265.93 380.423 266.63" stroke="#5A79EA" stroke-linejoin="round"/>
<path d="M381.406 268.769C382.183 268.194 382.956 267.623 383.726 267.052" stroke="#5A79EA" stroke-linejoin="round"/>
<path d="M372.689 274.944C377.887 274.964 378.126 266.779 373.169 269.935C373.199 271.06 373.169 272.35 373.169 272.35C373.656 272.18 374.142 272.012 374.627 271.843" stroke="#5A79EA" stroke-linejoin="round"/>
<path d="M368.733 269.612C368.163 271.7 367.544 273.805 366.879 275.927C366.879 275.927 366.102 275.941 365.286 275.734C364.478 275.526 364.061 272.46 367.589 272.986C365.775 272.755 365.598 272.027 365.75 271.075C365.923 269.997 365.769 269.606 365.831 269.369" stroke="#5A79EA" stroke-linejoin="round"/>
<path d="M362.135 268.242C361.804 268.846 357.764 273.416 357.754 273.417C357.514 273.28 357.273 273.142 357.032 273.005C357.064 272.999 358.625 267.24 359.009 266.468" stroke="#5A79EA" stroke-linejoin="round"/>
<path d="M360.486 270.092C359.779 269.67 359.065 269.249 358.345 268.828" stroke="#5A79EA" stroke-linejoin="round"/>
<path d="M355.86 263.724C354.365 265.081 352.855 266.448 351.329 267.823C351.144 267.498 350.958 267.174 350.771 266.85C350.786 266.846 353.649 262.325 354.305 261.773C353.617 262.325 349.148 264.705 349.148 264.705C348.954 264.419 348.758 264.134 348.562 263.849C349.973 262.361 351.366 260.884 352.74 259.417" stroke="#5A79EA" stroke-linejoin="round"/>
<path d="M364.476 230.002C364.702 228.46 366.737 227.992 367.742 229.215L374.433 236.874L383.028 235.693C384.506 235.439 385.737 237.329 385.004 238.685L380.844 246.916L384.415 255.39C385.141 256.996 383.754 258.924 382.133 258.533L374.013 256.789L367.712 263.287C366.567 264.533 364.442 263.803 364.246 262.126C363.76 259.037 362.734 254.782 365.456 252.455L371.781 246.222C372.119 245.908 371.726 245.297 371.315 245.501L362.492 249.59C359.937 251.059 356.472 248.88 354.041 247.91C352.218 247.193 352.198 244.427 354.011 243.721L362.704 240.073L364.476 230.002Z" fill="#5A79EA"/>
<path d="M85.4723 253.806C71.3604 260.578 70.6214 267.249 63.7018 276.646C56.7823 286.042 49.7674 296.305 54.1512 306.522C58.5349 316.739 51.6833 321.527 52.9705 327.28C54.2577 333.032 56.2749 343.022 59.712 351.231C63.1491 359.441 73.9987 381.306 78.7123 382.269C83.4259 383.232 83.4121 386.039 93.8742 395.264C104.336 404.489 103 398.917 111.258 403.05C120.32 407.584 127.127 405.529 132.014 406.767C136.9 408.006 148.644 403.951 152.71 400.198C156.777 396.445 166.966 388.44 167.765 369.466C168.563 350.491 167.685 314.698 158.066 299.559C148.446 284.421 131.449 256.25 115.968 248.872C100.487 241.494 85.4723 253.806 85.4723 253.806Z" fill="url(#paint9_radial_2002_460)"/>
<path d="M85.4723 253.806C71.3604 260.578 70.6214 267.249 63.7018 276.646C56.7823 286.042 49.7674 296.305 54.1512 306.522C58.5349 316.739 51.6833 321.527 52.9705 327.28C54.2577 333.032 56.2749 343.022 59.712 351.231C63.1491 359.441 73.9987 381.306 78.7123 382.269C83.4259 383.232 83.4121 386.039 93.8742 395.264C104.336 404.489 103 398.917 111.258 403.05C120.32 407.584 127.127 405.529 132.014 406.767C136.9 408.006 148.644 403.951 152.71 400.198C156.777 396.445 166.966 388.44 167.765 369.466C168.563 350.491 167.685 314.698 158.066 299.559C148.446 284.421 131.449 256.25 115.968 248.872C100.487 241.494 85.4723 253.806 85.4723 253.806Z" stroke="#8E8E8E" stroke-width="3" stroke-linecap="round" stroke-linejoin="round"/>
<path d="M101.629 245.047C104.687 242.92 107.173 241.135 113.578 239.887C120.464 238.547 142.325 252.116 145.222 253.514C150.42 256.023 152.569 262.81 154.392 265.464C156.216 268.117 159.205 271.899 162.083 274.205C164.96 276.511 172.884 290.11 174.419 294.204C175.954 298.298 181.304 304.172 183.447 306.497C185.589 308.823 193.222 318.784 192.943 321.959C192.664 325.134 193.784 334.094 193.492 339.096C193.2 344.099 187.705 349.899 188.898 353.021C190.091 356.144 184.995 375.787 183.265 378.789C181.535 381.791 177.201 394.426 172.946 396.124C168.691 397.821 154.012 402.986 149.462 403.027C162.792 391.515 165.381 388.743 165.966 368.698C174.181 356.949 170.627 354.142 166.232 335.002C161.836 315.862 155.449 293.86 144.582 284.401C134.554 266.434 117.583 256.009 116.208 256.069C110.748 252.544 101.629 245.047 101.629 245.047Z" fill="url(#paint10_radial_2002_460)"/>
<path d="M68.6339 363.458C78.2505 375.485 85.7541 375.006 93.7465 380.367C101.739 385.728 98.929 386.553 106.759 388.653C114.59 390.752 122.137 385.172 125.572 382.662C129.007 380.152 128.772 371.275 133.618 369.426C138.464 367.577 145.735 365.953 141.778 351.843C137.822 337.732 146.139 334.103 147.93 328.254C149.72 322.406 144.261 313.76 142.925 308.44C141.589 303.12 145.796 285.508 145.796 285.508C145.796 285.508 161.406 306.599 165.927 333.205C170.449 359.811 175.898 389.235 147.606 403.158C119.314 417.082 94.2615 396.991 79.956 381.812C65.6505 366.632 68.6339 363.458 68.6339 363.458Z" fill="url(#paint11_radial_2002_460)"/>
<path d="M149.378 399.908C166.365 394.625 167.285 383.602 166.085 374.703C164.885 365.805 173.81 365.841 170.561 356.451C167.313 347.06 166.783 334.095 165.496 328.342C164.209 322.589 157.279 298.62 148.777 290.749C140.275 282.878 140.947 277.373 137.995 271.61C135.043 265.847 130.236 263.78 126.465 261.432C122.695 259.084 117.228 257.564 114.705 254.757C112.182 251.949 107.457 245.721 102.82 246.657" stroke="#353535" stroke-width="6" stroke-linecap="round" stroke-linejoin="round"/>
<path d="M66.3134 290.129C67.6755 286.86 68.3487 281.835 70.4816 279.453C72.9074 276.744 79.2636 279.96 81.9377 278.223C85.5697 275.863 94.7387 269.194 96.807 270.33C104.863 264.558 111.262 263.487 113.925 264.604C118.241 266.416 107.246 279.7 110.213 283.098C112.857 286.125 122.415 284.223 124.92 287.398C127.449 290.604 138.638 289.93 140.6 293.494C142.083 296.19 140.261 300.979 141.337 303.855C142.415 306.74 129.875 312.909 130.705 315.877C131.64 319.218 146.386 319.799 147.252 323.202C148.151 326.728 153.439 341.823 153.271 347.476C153.174 350.759 142.495 352.6 141.619 355.771C140.743 358.94 152.479 364.668 152.008 367.965C149.852 383.063 138.726 393.347 129.594 395.483C125.836 396.362 120.038 383.462 116.226 382.762C112.416 382.063 107.275 391.261 103.454 390.653C99.2788 389.989 96.4819 382.761 92.6057 381.187C87.5018 379.113 84.8951 374.214 81.5529 370.026C78.8545 366.644 73.477 365.512 71.2371 361.893C68.9141 358.139 72.9832 352.071 71.527 347.991C70.1399 344.104 63.1726 340.627 61.3217 336.96C59.4448 333.242 63.1323 330.236 63.03 326.157C62.9582 323.3 59.6147 320.598 60.4251 317.84C61.2247 315.116 67.1861 313.095 67.6571 310.337C68.1382 307.521 61.7517 303.974 61.9621 301.152C62.8983 288.617 68.5399 289.77 73.0942 285.573C75.7032 283.168 71.83 273.726 74.9894 271.91C78.1936 270.068 88.0502 270.781 90.2507 268.129C110.549 243.663 96.487 278.974 100.239 279.701C104.471 280.52 114.606 272.318 117.896 274.863C121.156 277.384 110.441 289.969 112.52 293.412C114.633 296.914 119.643 297.878 120.963 301.73C122.286 305.588 136.97 306.314 138.125 310.275C139.056 313.472 136.018 317.644 136.891 320.897C137.771 324.174 125.605 329.39 126.153 332.724C126.705 336.087 130.973 338.405 130.979 341.834C130.987 346.288 137.449 350.823 137.776 355.344C138.101 359.833 131.308 363.464 130.566 367.906C130.023 371.153 126.474 370.783 124.705 373.574C123.82 374.972 129.615 380.014 128.196 380.943C125.164 382.929 119.876 393.126 116.17 392.38C111.637 391.469 107.434 388.827 102.944 387.927C100.732 387.484 104.62 370.478 102.651 369.443C100.332 368.224 94.3224 374.246 92.6478 372.282C89.8787 369.037 78.2901 371.473 75.8809 367.988C73.4854 364.523 81.8145 354.555 79.9096 350.924C77.9963 347.275 81.6111 342.445 80.4017 338.625C79.1962 334.819 70.1745 333.051 69.9043 329.092C69.6021 324.654 71.3075 320.127 71.1613 315.734C70.5298 296.722 77.122 299.668 80.9911 294.025C82.9597 291.153 81.4336 286.96 84.6994 285.393C88.3006 283.665 92.4075 276.941 96.4392 277.167C99.2289 277.324 99.8734 289.369 102.616 290.032C105.469 290.722 113.141 283.213 115.085 285.207C116.721 286.886 116.256 290.922 117.184 293.015C118.678 296.388 111.529 302.634 112.885 306.102C114.252 309.596 115.964 312.495 117.039 316.1C118.123 319.733 133.013 320.985 133.659 324.76C134.305 328.532 124.15 333.177 124.079 337.026C124.008 340.912 131.312 346.077 130.403 349.864C129.486 353.688 130.426 359.954 128.477 363.457C126.394 367.2 112.126 364.461 110.008 368.18C108.303 371.174 111.411 367.948 107.825 367.492C106.314 367.3 102.257 377.523 101.102 376.536C97.7842 373.702 92.42 371.285 90.0716 367.818C87.7502 364.39 81.3724 361.346 79.8045 357.532C78.2749 353.812 94.0589 344.734 92.987 340.862C91.9221 337.016 88.8263 334.118 88.0902 330.312C87.4366 326.928 75.1163 324.978 74.8307 321.553C74.5441 318.113 77.7556 313.955 78.1893 310.632C78.6272 307.277 83.8511 305.058 85.4303 301.976C86.1751 300.522 79.158 291.31 80.5137 290.318C81.8935 289.309 90.4332 298.348 92.1535 297.931C96.3731 296.909 100.19 297.987 104.569 297.791C106.546 297.702 110.133 290.888 111.824 291.817C113.093 292.512 120.308 292.439 121.006 293.632C123.045 297.116 118.436 304.876 118.363 308.889C118.292 312.801 105.592 316.665 105.579 320.576C105.563 325.7 124.79 331.564 124.541 336.79C124.291 342.053 119.559 355.073 114.982 358.163C114.374 358.574 107.356 344.255 106.611 344.251C105.516 344.246 99.9361 354.174 99.1833 353.405C96.748 350.912 104.401 341.523 102.716 338.587C101.041 335.667 87.7737 336.638 86.9408 333.455C86.1114 330.287 92.9512 325.426 92.9513 322.198C92.9517 318.983 99.4065 317.33 100.286 314.23C100.398 313.837 93.5297 310.627 93.9136 310.433C94.337 310.22 98.2781 306.426 98.7151 306.615C102.544 308.269 101.98 317.197 103.716 320.818C105.475 324.488 112.279 331.511 110.183 335.052C109.911 335.51 108.815 341.704 108.308 341.933C107.013 342.519 97.7842 333.898 97.2987 332.637C96.8141 331.378 101.812 328.155 101.198 326.951" stroke="url(#paint12_linear_2002_460)" stroke-width="4" stroke-linecap="round" stroke-linejoin="round" stroke-dasharray="10 10"/>
<path d="M148.26 365.125C146.82 368.714 146.239 374.306 143.842 376.953C141.105 379.977 133.664 376.232 130.624 378.134C126.491 380.719 116.022 388.076 113.677 386.729C104.452 393.106 99.2762 390.954 96.3376 389.596C91.6205 387.416 102.165 376.054 99.0055 372.305C96.2282 369.01 85.8518 370.935 83.3399 367.528C80.8362 364.132 69.0895 364.75 67.3194 361.051C65.9952 358.284 68.2102 353.432 67.3225 350.548C66.4404 347.683 79.5597 341.517 78.8809 338.623C78.124 335.397 63.4513 335.029 62.8576 331.814C62.2487 328.515 58.3368 314.82 58.9444 309.791C59.2935 306.902 69.531 304.955 70.5678 302.158C71.5963 299.382 61.0002 294.92 61.6787 292.126C64.7209 279.606 75.4721 270.825 83.9274 268.651C87.4229 267.752 92.3439 277.861 95.9277 278.252C99.5334 278.644 104.634 270.847 108.263 271.139C112.254 271.459 114.9 277.28 118.678 278.406C123.708 279.903 126.331 283.952 129.731 287.418C132.515 290.255 138.032 291.023 140.433 294.148C142.954 297.43 138.876 303.104 140.514 306.817C142.094 310.4 149.669 313.481 151.826 316.941C154.043 320.495 150.144 323.514 150.429 327.532C150.632 330.374 154.466 333.032 153.696 335.839C152.931 338.628 146.358 340.76 145.935 343.604C145.501 346.528 152.867 350.226 152.762 353.221C152.285 366.822 145.709 365.499 140.613 370.075C137.681 372.708 142.464 383.447 138.818 385.46C135.117 387.503 124.366 387.117 121.161 389.416C103.91 401.797 114.115 377.036 109.931 376.169C105.248 375.2 93.8153 384.07 90.309 381.179C86.8771 378.349 98.9661 364.934 96.8361 361.284C94.6984 357.621 89.4277 356.609 88.2081 352.659C87.0024 348.753 71.9327 348.084 71.0245 344.171C70.2995 341.047 73.6245 336.97 72.9558 333.855C72.2891 330.749 84.7221 325.606 84.3327 322.493C83.9444 319.382 79.8431 317.35 80.018 314.222C80.2435 310.202 74.2456 306.36 74.1998 302.401C74.1547 298.517 80.812 295.139 81.7373 291.319C82.4079 288.551 85.7552 288.713 87.5528 286.287C88.4498 285.076 83.2082 281.151 84.5778 280.32C87.5033 278.546 92.829 270.013 96.2691 270.415C100.509 270.911 104.436 272.836 108.712 273.339C110.831 273.588 106.816 288.039 108.729 288.842C110.995 289.794 116.972 284.36 118.622 285.964C121.378 288.642 133.006 286.015 135.519 288.948C138.048 291.9 129.664 301.152 131.685 304.393C133.74 307.688 130.036 312.294 131.363 315.855C132.701 319.446 142.396 320.933 142.813 324.778C143.286 329.142 141.564 333.681 141.86 338.11C143.185 357.946 135.667 354.795 131.441 360.799C129.274 363.878 131.059 368.453 127.382 370.133C123.33 371.984 118.7 379.374 114.153 379.044C111.025 378.817 110.472 365.662 107.477 364.929C104.378 364.171 95.819 372.143 93.7831 369.971C92.0832 368.157 92.742 363.879 91.8339 361.674C90.3841 358.152 98.186 351.724 96.8616 348.197C95.5439 344.684 93.8601 341.807 92.878 338.258C91.8998 334.722 76.844 333.717 76.4185 330.127C75.9973 326.578 86.3548 322.028 86.5975 318.452C86.8402 314.88 79.9149 310.401 80.9944 306.99C82.0747 303.576 81.4793 298.133 83.5149 295.036C85.6758 291.749 99.3489 293.531 101.509 290.238C103.236 287.603 100.138 290.497 103.624 290.74C105.099 290.842 109.229 281.95 110.34 282.727C113.558 284.981 118.846 286.812 121.187 289.709C123.53 292.608 130.027 295.042 131.689 298.392C133.33 301.7 117.122 310.53 118.213 314.091C119.311 317.671 122.549 320.344 123.337 323.973C124.047 327.235 137.28 328.92 137.674 332.31C138.074 335.747 134.654 339.988 134.247 343.381C133.832 346.837 128.106 349.157 126.399 352.37C125.591 353.891 133.555 363.736 132.042 364.8C130.501 365.885 120.908 356.174 119.018 356.609C114.391 357.675 110.246 356.534 105.506 356.731C103.374 356.819 99.3264 363.959 97.5315 362.966C96.1911 362.225 88.4856 362.26 87.7982 361.009C85.8091 357.389 90.9883 349.459 91.2259 345.42C91.4551 341.523 104.812 337.573 104.906 333.729C105.03 328.754 85.6405 323.548 86.1273 318.681C86.6104 313.845 91.7895 302.017 96.3755 299.133C96.9835 298.751 103.591 311.361 104.342 311.343C105.447 311.316 111.226 302.138 111.974 302.802C114.413 304.968 106.525 313.789 108.193 316.472C109.869 319.165 123.639 317.925 124.531 320.933C125.428 323.955 118.213 328.798 118.205 331.952C118.197 335.123 111.337 336.843 110.366 339.936C110.242 340.33 117.554 343.501 117.14 343.701C116.683 343.921 112.416 347.805 111.948 347.614C107.875 345.95 108.619 337.003 106.859 333.464C105.097 329.922 98.2734 323.337 100.506 319.96C100.794 319.524 102.06 313.745 102.577 313.519C103.898 312.944 113.211 320.76 113.703 321.946C114.196 323.134 108.964 326.323 109.584 327.469" stroke="url(#paint13_linear_2002_460)" stroke-width="4" stroke-linecap="round" stroke-linejoin="round" stroke-dasharray="20 10"/>
<path d="M121.88 279.186C118.719 276.913 115.185 272.445 111.738 271.51C107.8 270.442 103.613 277.789 100.034 277.851C95.1658 277.935 82.3977 277.455 81.1685 279.914C69.9759 279.582 65.7274 284.721 64.0085 287.519C61.2484 292.011 77.3518 295.464 76.7488 300.433C76.2197 304.8 66.4867 308.923 66.2411 313.239C65.9968 317.541 57.9537 323.921 58.4876 328.075C58.8872 331.181 63.3843 334.108 64.2119 337.071C65.0348 340.017 77.2482 337.627 78.2563 340.485C79.3803 343.669 67.3019 352.146 68.5567 355.231C69.8437 358.395 74.0307 367.306 77.2786 371.276C79.1441 373.557 88.7727 374.53 91.1643 376.35C93.5382 378.156 86.5558 383.897 88.6453 385.913C98.0111 394.948 109.432 385.58 120.598 397.626C123.053 400.274 122.624 385.054 125.41 382.726C128.213 380.384 136.73 384.226 139.608 381.958C142.773 379.462 141.815 373.003 144.365 369.938C147.758 365.857 147.748 360.929 148.705 356.069C149.489 352.09 153.687 348.362 153.994 344.35C154.316 340.135 147.813 337.543 147.161 333.451C146.531 329.502 151.192 322.649 151.113 318.485C151.032 314.207 146.124 313.788 144.174 310.187C142.795 307.64 144.556 303.229 142.383 301.253C140.223 299.29 133.56 301.119 131.657 298.917C129.701 296.654 133.851 289.389 132.132 286.881C124.323 275.494 119.54 280.284 112.783 279.199C108.895 278.574 107.048 266.712 102.9 267.017C98.6904 267.325 89.7035 274.602 85.9676 273.449C50.6813 262.548 86.8159 287.975 83.7863 291.045C80.396 294.481 65.9952 293.24 64.6367 297.668C63.3065 302.001 80.7314 306.77 80.9378 311.083C81.1443 315.41 77.2837 319.208 78.4152 323.27C79.5338 327.288 67.2876 336.245 68.6596 340.102C69.7548 343.181 74.7574 344.824 75.8952 347.865C77.029 350.899 90.2346 348.388 91.6057 351.272C92.9748 354.153 90.6491 358.175 92.4997 360.757C94.8782 364.076 91.9531 370.705 94.0717 374.122C96.1497 377.475 103.56 376.664 106.416 379.423C108.486 381.422 111.199 379.421 114.025 380.499C115.435 381.038 113.186 387.315 114.785 387.265C118.201 387.159 127.304 391.509 129.964 389.25C133.242 386.467 135.48 382.633 138.784 379.824C140.422 378.431 129.19 368.283 130.354 366.531C131.732 364.456 139.693 365.786 140.2 363.493C141.047 359.666 152.21 355.45 152.715 351.539C153.224 347.603 141.167 344.34 141.093 340.44C141.018 336.473 135.409 334.587 134.579 330.798C133.742 326.977 141.047 320.31 139.301 316.784C137.319 312.782 133.404 309.851 131.239 305.891C121.542 288.16 116.968 295.041 110.162 292.249C106.67 290.816 105.672 285.904 101.679 286.51C97.2794 287.178 89.3795 283.422 85.7545 286.234C83.2607 288.168 89.9638 299.746 87.8563 302.04C85.6764 304.413 74.1694 302.346 73.6498 305.339C73.2158 307.839 76.0973 311.136 76.5389 313.531C77.2441 317.354 87.2744 318.522 88.0879 322.28C88.8978 326.023 89.0566 329.424 90.1685 333.011C91.2765 336.584 79.2246 345.82 80.8241 349.133C82.4054 352.408 93.5516 350.545 95.703 353.474C97.8522 356.399 94.4964 364.088 97.2583 366.41C100.022 368.734 102.487 373.728 105.878 375.249C109.477 376.864 119.949 367.731 123.551 369.351C126.432 370.648 122.262 369.892 125.048 367.745C126.226 366.837 134.527 372.158 135.033 370.874C136.499 367.153 139.927 362.643 140.308 358.859C140.689 355.072 144.799 349.373 144.365 345.577C143.936 341.831 125.562 343.282 124.536 339.623C123.504 335.946 124.757 331.855 123.44 328.307C122.257 325.117 132.414 316.313 130.897 313.189C129.359 310.022 124.187 308.291 121.998 305.611C119.767 302.88 113.711 304.077 110.533 302.274C109.027 301.421 110.33 288.555 108.483 288.486C106.602 288.414 103.866 302.07 102.048 302.749C97.5952 304.41 94.747 307.692 90.6725 310.16C88.8405 311.27 81.5637 307.405 80.6022 309.254C79.8848 310.634 73.417 314.892 73.5238 316.346C73.8314 320.553 82.4853 324.465 84.8847 327.794C87.1991 331.004 100.529 326.961 102.703 330.202C105.515 334.394 92.127 349.64 95.1851 353.539C98.2234 357.414 109 364.666 114.41 364.586C115.127 364.575 113.785 350.096 114.424 349.694C115.364 349.102 125.2 353.751 125.464 352.765C126.326 349.553 114.919 346.383 114.853 343.157C114.788 339.917 126.988 333.321 126.096 330.247C125.2 327.16 116.524 327.024 114.799 324.326C113.065 321.614 106.387 323.956 103.889 321.846C103.571 321.577 107.962 314.794 107.507 314.853C107.005 314.918 101.316 313.963 101.03 314.387C98.5274 318.078 104.024 325.331 104.48 329.342C104.935 333.357 102.813 342.793 106.52 344.445C106.999 344.658 111.206 348.906 111.762 348.811C113.181 348.57 116.716 336.692 116.482 335.402C116.248 334.109 110.133 334.289 110.026 332.962" stroke="url(#paint14_linear_2002_460)" stroke-width="6" stroke-linecap="round" stroke-linejoin="round" stroke-dasharray="10 50"/>
<g opacity="0.872709">
<path d="M90.4582 47.1063C124.364 11.1862 165.561 36.418 167.236 76.1914C168.943 115.625 116.654 127.091 84.3305 109.26C119.351 115.133 143.541 98.4988 142.803 69.1629C142.21 39.1642 120.732 29.6276 90.4582 47.1063Z" fill="#CDCDCD" fill-opacity="0.7"/>
<path d="M90.4582 47.1063C124.364 11.1862 165.561 36.418 167.236 76.1914C168.943 115.625 116.654 127.091 84.3305 109.26C119.351 115.133 143.541 98.4988 142.803 69.1629C142.21 39.1642 120.732 29.6276 90.4582 47.1063Z" stroke="#BABABA" stroke-opacity="0.15" stroke-width="21.8197" stroke-linecap="round" stroke-linejoin="round"/>
<path d="M90.4582 47.1063C124.364 11.1862 165.561 36.418 167.236 76.1914C168.943 115.625 116.654 127.091 84.3305 109.26C119.351 115.133 143.541 98.4988 142.803 69.1629C142.21 39.1642 120.732 29.6276 90.4582 47.1063Z" stroke="#BABABA" stroke-opacity="0.25" stroke-width="14.3387" stroke-linecap="round" stroke-linejoin="round"/>
<path d="M90.4582 47.1063C124.364 11.1862 165.561 36.418 167.236 76.1914C168.943 115.625 116.654 127.091 84.3305 109.26C119.351 115.133 143.541 98.4988 142.803 69.1629C142.21 39.1642 120.732 29.6276 90.4582 47.1063Z" stroke="#BABABA" stroke-opacity="0.25" stroke-width="8.10447" stroke-linecap="round" stroke-linejoin="round"/>
<path d="M83.9599 109.512C53.4803 102.645 37.8587 130.395 40.7643 153.826C44.2086 181.576 79.4997 190.343 103.1 178.109C74.8081 210.894 20.0451 201 13.4941 164.372C8.82527 137.036 40.1493 92.4077 83.9599 109.512Z" fill="#CDCDCD" fill-opacity="0.7"/>
<path d="M83.9599 109.512C53.4803 102.645 37.8587 130.395 40.7643 153.826C44.2086 181.576 79.4997 190.343 103.1 178.109C74.8081 210.894 20.0451 201 13.4941 164.372C8.82527 137.036 40.1493 92.4077 83.9599 109.512Z" stroke="#BABABA" stroke-opacity="0.15" stroke-width="21.8197" stroke-linecap="round" stroke-linejoin="round"/>
<path d="M83.9599 109.512C53.4803 102.645 37.8587 130.395 40.7643 153.826C44.2086 181.576 79.4997 190.343 103.1 178.109C74.8081 210.894 20.0451 201 13.4941 164.372C8.82527 137.036 40.1493 92.4077 83.9599 109.512Z" stroke="#BABABA" stroke-opacity="0.25" stroke-width="14.3387" stroke-linecap="round" stroke-linejoin="round"/>
<path d="M83.9599 109.512C53.4803 102.645 37.8587 130.395 40.7643 153.826C44.2086 181.576 79.4997 190.343 103.1 178.109C74.8081 210.894 20.0451 201 13.4941 164.372C8.82527 137.036 40.1493 92.4077 83.9599 109.512Z" stroke="#BABABA" stroke-opacity="0.25" stroke-width="8.10447" stroke-linecap="round" stroke-linejoin="round"/>
<path d="M102.985 178.153C148.216 151.749 188.438 186.826 184.296 211.05C179.208 240.447 144.722 250.03 108.337 235.524C128.72 232.789 140.399 216.8 141.676 205.204C143.548 187.749 129.99 169.686 102.985 178.153Z" fill="#CDCDCD" fill-opacity="0.7"/>
<path d="M102.985 178.153C148.216 151.749 188.438 186.826 184.296 211.05C179.208 240.447 144.722 250.03 108.337 235.524C128.72 232.789 140.399 216.8 141.676 205.204C143.548 187.749 129.99 169.686 102.985 178.153Z" stroke="#BABABA" stroke-opacity="0.15" stroke-width="21.8197" stroke-linecap="round" stroke-linejoin="round"/>
<path d="M102.985 178.153C148.216 151.749 188.438 186.826 184.296 211.05C179.208 240.447 144.722 250.03 108.337 235.524C128.72 232.789 140.399 216.8 141.676 205.204C143.548 187.749 129.99 169.686 102.985 178.153Z" stroke="#BABABA" stroke-opacity="0.25" stroke-width="14.3387" stroke-linecap="round" stroke-linejoin="round"/>
<path d="M102.985 178.153C148.216 151.749 188.438 186.826 184.296 211.05C179.208 240.447 144.722 250.03 108.337 235.524C128.72 232.789 140.399 216.8 141.676 205.204C143.548 187.749 129.99 169.686 102.985 178.153Z" stroke="#BABABA" stroke-opacity="0.25" stroke-width="8.10447" stroke-linecap="round" stroke-linejoin="round"/>
<path d="M107.09 235.602C98.3209 234.171 94.1079 235.464 92.0756 241.757C88.8879 251.628 98.5823 261.645 96.0624 283.246C93.5347 265.508 72.9456 259.926 73.2129 241.183C73.3249 233.371 88.7597 229.878 107.09 235.602Z" fill="#CDCDCD" fill-opacity="0.7"/>
<path d="M107.09 235.602C98.3209 234.171 94.1079 235.464 92.0756 241.757C88.8879 251.628 98.5823 261.645 96.0624 283.246C93.5347 265.508 72.9456 259.926 73.2129 241.183C73.3249 233.371 88.7597 229.878 107.09 235.602Z" stroke="#BABABA" stroke-opacity="0.15" stroke-width="21.8197" stroke-linecap="round" stroke-linejoin="round"/>
<path d="M107.09 235.602C98.3209 234.171 94.1079 235.464 92.0756 241.757C88.8879 251.628 98.5823 261.645 96.0624 283.246C93.5347 265.508 72.9456 259.926 73.2129 241.183C73.3249 233.371 88.7597 229.878 107.09 235.602Z" stroke="#BABABA" stroke-opacity="0.25" stroke-width="14.3387" stroke-linecap="round" stroke-linejoin="round"/>
<path d="M107.09 235.602C98.3209 234.171 94.1079 235.464 92.0756 241.757C88.8879 251.628 98.5823 261.645 96.0624 283.246C93.5347 265.508 72.9456 259.926 73.2129 241.183C73.3249 233.371 88.7597 229.878 107.09 235.602Z" stroke="#BABABA" stroke-opacity="0.25" stroke-width="8.10447" stroke-linecap="round" stroke-linejoin="round"/>
</g>
</g>
</g>
<defs>
<linearGradient id="paint0_linear_2002_460" x1="277.278" y1="172.739" x2="328.979" y2="313.189" gradientUnits="userSpaceOnUse">
<stop stop-color="#B87032"/>
<stop offset="0.15" stop-color="#C88E57"/>
<stop offset="0.31" stop-color="#D8AC7D"/>
<stop offset="0.43" stop-color="#CF9D6A"/>
<stop offset="0.55" stop-color="#C58E57"/>
<stop offset="0.71" stop-color="#976B3F"/>
<stop offset="0.87" stop-color="#6A4727"/>
<stop offset="0.93" stop-color="#7E542F"/>
<stop offset="1" stop-color="#936237"/>
</linearGradient>
<linearGradient id="paint1_linear_2002_460" x1="281.516" y1="190.799" x2="336.934" y2="341.543" gradientUnits="userSpaceOnUse">
<stop stop-color="#7F4C1A"/>
<stop offset="0.11" stop-color="#A27444"/>
<stop offset="0.22" stop-color="#C69C6D"/>
<stop offset="0.46" stop-color="#9E7448"/>
<stop offset="0.69" stop-color="#754C24"/>
<stop offset="0.85" stop-color="#7A4C1F"/>
<stop offset="1" stop-color="#7F4C1A"/>
</linearGradient>
<linearGradient id="paint2_linear_2002_460" x1="240.077" y1="202.687" x2="296.709" y2="356.733" gradientUnits="userSpaceOnUse">
<stop stop-color="#7F4C1A"/>
<stop offset="0.11" stop-color="#A27444"/>
<stop offset="0.22" stop-color="#C69C6D"/>
<stop offset="0.46" stop-color="#9E7448"/>
<stop offset="0.69" stop-color="#754C24"/>
<stop offset="0.85" stop-color="#7A4C1F"/>
<stop offset="1" stop-color="#7F4C1A"/>
</linearGradient>
<linearGradient id="paint3_linear_2002_460" x1="341.597" y1="177.443" x2="392.653" y2="316.32" gradientUnits="userSpaceOnUse">
<stop stop-color="#7F4C1A"/>
<stop offset="0.11" stop-color="#A27444"/>
<stop offset="0.22" stop-color="#C69C6D"/>
<stop offset="0.46" stop-color="#9E7448"/>
<stop offset="0.69" stop-color="#754C24"/>
<stop offset="0.85" stop-color="#7A4C1F"/>
<stop offset="1" stop-color="#7F4C1A"/>
</linearGradient>
<linearGradient id="paint4_linear_2002_460" x1="376.994" y1="175.202" x2="422.572" y2="299.178" gradientUnits="userSpaceOnUse">
<stop stop-color="#7F4C1A"/>
<stop offset="0.11" stop-color="#A27444"/>
<stop offset="0.22" stop-color="#C69C6D"/>
<stop offset="0.46" stop-color="#9E7448"/>
<stop offset="0.69" stop-color="#754C24"/>
<stop offset="0.85" stop-color="#7A4C1F"/>
<stop offset="1" stop-color="#7F4C1A"/>
</linearGradient>
<linearGradient id="paint5_linear_2002_460" x1="323.745" y1="130.957" x2="377.718" y2="277.578" gradientUnits="userSpaceOnUse">
<stop stop-color="#E6E6E6"/>
<stop offset="0.1" stop-color="#F3F3F3"/>
<stop offset="0.2" stop-color="white"/>
<stop offset="0.6" stop-color="#D9D9D9"/>
<stop offset="1" stop-color="#B3B3B3"/>
</linearGradient>
<linearGradient id="paint6_linear_2002_460" x1="336.619" y1="169.677" x2="391.91" y2="320.074" gradientUnits="userSpaceOnUse">
<stop stop-color="#808080"/>
<stop offset="0.1" stop-color="#9A9A9A"/>
<stop offset="0.2" stop-color="#B3B3B3"/>
<stop offset="0.52" stop-color="#846F5A"/>
<stop offset="0.85" stop-color="#542C00"/>
<stop offset="0.93" stop-color="#875D2F"/>
<stop offset="1" stop-color="#BA8E5E"/>
</linearGradient>
<linearGradient id="paint7_linear_2002_460" x1="333.68" y1="123.619" x2="385.247" y2="263.707" gradientUnits="userSpaceOnUse">
<stop stop-color="#EBBC00"/>
<stop offset="0.07" stop-color="#F5DE80"/>
<stop offset="0.14" stop-color="white"/>
<stop offset="0.19" stop-color="white"/>
<stop offset="0.24" stop-color="white"/>
<stop offset="0.26" stop-color="#FFEAA2"/>
<stop offset="0.29" stop-color="#FFD446"/>
<stop offset="0.51" stop-color="#E4BA23"/>
<stop offset="0.74" stop-color="#C9A100"/>
<stop offset="0.75" stop-color="#E4C400"/>
<stop offset="0.76" stop-color="#FFE600"/>
<stop offset="0.88" stop-color="#F6D600"/>
<stop offset="1" stop-color="#EDC600"/>
</linearGradient>
<linearGradient id="paint8_linear_2002_460" x1="328.759" y1="129.163" x2="382.731" y2="275.783" gradientUnits="userSpaceOnUse">
<stop stop-color="#E6E6E6"/>
<stop offset="0.1" stop-color="#F3F3F3"/>
<stop offset="0.2" stop-color="white"/>
<stop offset="0.6" stop-color="#D9D9D9"/>
<stop offset="1" stop-color="#B3B3B3"/>
</linearGradient>
<radialGradient id="paint9_radial_2002_460" cx="0" cy="0" r="1" gradientUnits="userSpaceOnUse" gradientTransform="translate(141.719 324.983) rotate(-20) scale(72.5429 72.5429)">
<stop stop-color="#999999"/>
<stop offset="0.5" stop-color="#B2B2B2"/>
<stop offset="1" stop-color="#CCCCCC"/>
</radialGradient>
<radialGradient id="paint10_radial_2002_460" cx="0" cy="0" r="1" gradientUnits="userSpaceOnUse" gradientTransform="translate(78.3802 344.573) rotate(-20) scale(89.0765)">
<stop offset="0.81" stop-color="#FFAE00"/>
<stop offset="0.87" stop-color="#FF5700"/>
<stop offset="0.92" stop-color="#FF0000"/>
<stop offset="0.96" stop-color="#A32323"/>
<stop offset="1" stop-color="#474747"/>
</radialGradient>
<radialGradient id="paint11_radial_2002_460" cx="0" cy="0" r="1" gradientUnits="userSpaceOnUse" gradientTransform="translate(74.3408 300.286) rotate(-20) scale(123.796 123.796)">
<stop offset="0.55" stop-color="#999999" stop-opacity="0.5"/>
<stop offset="0.78" stop-color="#676767" stop-opacity="0.6"/>
<stop offset="1" stop-color="#353535" stop-opacity="0.7"/>
</radialGradient>
<linearGradient id="paint12_linear_2002_460" x1="141.834" y1="400.479" x2="77.8828" y2="263.255" gradientUnits="userSpaceOnUse">
<stop stop-color="#8C8C8C"/>
<stop offset="0.64" stop-color="#ABABAB"/>
<stop offset="1" stop-color="#C9C9C9"/>
</linearGradient>
<linearGradient id="paint13_linear_2002_460" x1="140.025" y1="393.114" x2="79.3754" y2="262.975" gradientUnits="userSpaceOnUse">
<stop stop-color="#ABABAB"/>
<stop offset="0.5" stop-color="#C1C1C1"/>
<stop offset="1" stop-color="#D6D6D6"/>
</linearGradient>
<linearGradient id="paint14_linear_2002_460" x1="34.7297" y1="265.031" x2="97.4298" y2="398.915" gradientUnits="userSpaceOnUse">
<stop stop-color="#FEFF00"/>
<stop offset="0.5" stop-color="#FEA220"/>
<stop offset="1" stop-color="#FF453F"/>
</linearGradient>
<clipPath id="clip0_2002_460">
<rect width="512" height="512" fill="white"/>
</clipPath>
</defs>
</svg>
